<svg width="124" height="24" viewBox="0 0 124 24" fill="none" xmlns="http://www.w3.org/2000/svg">
<path d="M8 7.5L3 8L1.5 8.5L1 10.5L6 15L4 20.5L6.5 22.5L12 19L17 22.5L19.5 21.5L18 15L22.5 11.5V8L16.5 7.5L14.5 5L12.5 1.5H10.5L8 7.5Z" fill="#FF8E3C"/>
<g clip-path="url(#clip0_16_47)">
<path d="M23.8358 8.79432C23.6312 8.14322 23.2226 7.57523 22.6702 7.17435C22.1179 6.77348 21.4512 6.56099 20.7688 6.56832H16.3998L15.0728 2.43232C14.8641 1.78128 14.4541 1.21333 13.9018 0.810386C13.3495 0.407437 12.6835 0.190308 11.9998 0.190308C11.3161 0.190308 10.6501 0.407437 10.0978 0.810386C9.54553 1.21333 9.13547 1.78128 8.9268 2.43232L7.5998 6.56832H3.2308C2.55054 6.56929 1.88799 6.7852 1.33778 7.18523C0.787564 7.58525 0.377837 8.14891 0.167118 8.79571C-0.0436018 9.44251 -0.0445344 10.1394 0.164453 10.7867C0.37344 11.4341 0.781657 11.9988 1.3308 12.4003L4.8868 15.0003L3.5348 19.1873C3.31631 19.8367 3.31354 20.5393 3.52691 21.1904C3.74027 21.8415 4.15834 22.4062 4.7188 22.8003C5.26965 23.2071 5.93719 23.425 6.62195 23.4216C7.30671 23.4182 7.97204 23.1936 8.5188 22.7813L11.9998 20.2193L15.4818 22.7783C16.0317 23.1828 16.6956 23.4025 17.3782 23.4058C18.0607 23.4091 18.7268 23.1959 19.2806 22.7968C19.8343 22.3978 20.2473 21.8334 20.4601 21.1848C20.6729 20.5362 20.6745 19.8369 20.4648 19.1873L19.1128 15.0003L22.6728 12.4003C23.2282 12.0039 23.6412 11.4391 23.8507 10.7897C24.0601 10.1402 24.0549 9.44058 23.8358 8.79432ZM21.4928 10.7853L17.3488 13.8143C17.1786 13.9385 17.0519 14.1132 16.9869 14.3137C16.9219 14.5141 16.9219 14.7299 16.9868 14.9303L18.5618 19.8003C18.6415 20.0473 18.6408 20.3132 18.5599 20.5598C18.4789 20.8064 18.3218 21.021 18.1112 21.1727C17.9006 21.3244 17.6474 21.4054 17.3878 21.4041C17.1283 21.4028 16.8758 21.3192 16.6668 21.1653L12.5918 18.1653C12.4202 18.0392 12.2128 17.9713 11.9998 17.9713C11.7868 17.9713 11.5794 18.0392 11.4078 18.1653L7.3328 21.1653C7.12388 21.3212 6.87073 21.4066 6.61006 21.4089C6.34939 21.4113 6.09474 21.3306 5.88303 21.1785C5.67131 21.0264 5.51354 20.8108 5.43259 20.563C5.35164 20.3152 5.35171 20.0481 5.4328 19.8003L7.0128 14.9303C7.07771 14.7299 7.07766 14.5141 7.01266 14.3137C6.94765 14.1132 6.82101 13.9385 6.6508 13.8143L2.5068 10.7853C2.2981 10.6325 2.14303 10.4177 2.06374 10.1715C1.98444 9.92526 1.98498 9.6603 2.06528 9.41442C2.14558 9.16854 2.30152 8.95433 2.51084 8.80237C2.72016 8.65042 2.97214 8.5685 3.2308 8.56832H8.3308C8.54251 8.56831 8.74876 8.50111 8.91984 8.3764C9.09093 8.25168 9.21801 8.07588 9.2828 7.87432L10.8328 3.04332C10.9124 2.79611 11.0683 2.58051 11.2782 2.42757C11.4881 2.27463 11.7411 2.19223 12.0008 2.19223C12.2605 2.19223 12.5135 2.27463 12.7234 2.42757C12.9333 2.58051 13.0892 2.79611 13.1688 3.04332L14.7188 7.87432C14.7836 8.07588 14.9107 8.25168 15.0817 8.3764C15.2528 8.50111 15.4591 8.56831 15.6708 8.56832H20.7708C21.0295 8.5685 21.2814 8.65042 21.4908 8.80237C21.7001 8.95433 21.856 9.16854 21.9363 9.41442C22.0166 9.6603 22.0171 9.92526 21.9379 10.1715C21.8586 10.4177 21.7035 10.6325 21.4948 10.7853H21.4928Z" fill="#FF8E3C"/>
</g>
<path d="M33 7.5L28 8L26.5 8.5L26 10.5L31 15L29 20.5L31.5 22.5L37 19L42 22.5L44.5 21.5L43 15L47.5 11.5V8L41.5 7.5L39.5 5L37.5 1.5H35.5L33 7.5Z" fill="#FF8E3C"/>
<g clip-path="url(#clip1_16_47)">
<path d="M48.8358 8.79432C48.6312 8.14322 48.2226 7.57523 47.6702 7.17435C47.1179 6.77348 46.4512 6.56099 45.7688 6.56832H41.3998L40.0728 2.43232C39.8641 1.78128 39.4541 1.21333 38.9018 0.810386C38.3495 0.407437 37.6835 0.190308 36.9998 0.190308C36.3161 0.190308 35.6501 0.407437 35.0978 0.810386C34.5455 1.21333 34.1355 1.78128 33.9268 2.43232L32.5998 6.56832H28.2308C27.5505 6.56929 26.888 6.7852 26.3378 7.18523C25.7876 7.58525 25.3778 8.14891 25.1671 8.79571C24.9564 9.44251 24.9555 10.1394 25.1645 10.7867C25.3734 11.4341 25.7817 11.9988 26.3308 12.4003L29.8868 15.0003L28.5348 19.1873C28.3163 19.8367 28.3135 20.5393 28.5269 21.1904C28.7403 21.8415 29.1583 22.4062 29.7188 22.8003C30.2696 23.2071 30.9372 23.425 31.6219 23.4216C32.3067 23.4182 32.972 23.1936 33.5188 22.7813L36.9998 20.2193L40.4818 22.7783C41.0317 23.1828 41.6956 23.4025 42.3782 23.4058C43.0607 23.4091 43.7268 23.1959 44.2806 22.7968C44.8343 22.3978 45.2473 21.8334 45.4601 21.1848C45.6729 20.5362 45.6745 19.8369 45.4648 19.1873L44.1128 15.0003L47.6728 12.4003C48.2282 12.0039 48.6412 11.4391 48.8507 10.7897C49.0601 10.1402 49.0549 9.44058 48.8358 8.79432ZM46.4928 10.7853L42.3488 13.8143C42.1786 13.9385 42.0519 14.1132 41.9869 14.3137C41.9219 14.5141 41.9219 14.7299 41.9868 14.9303L43.5618 19.8003C43.6415 20.0473 43.6408 20.3132 43.5599 20.5598C43.4789 20.8064 43.3218 21.021 43.1112 21.1727C42.9006 21.3244 42.6474 21.4054 42.3878 21.4041C42.1283 21.4028 41.8758 21.3192 41.6668 21.1653L37.5918 18.1653C37.4202 18.0392 37.2128 17.9713 36.9998 17.9713C36.7868 17.9713 36.5794 18.0392 36.4078 18.1653L32.3328 21.1653C32.1239 21.3212 31.8707 21.4066 31.6101 21.4089C31.3494 21.4113 31.0947 21.3306 30.883 21.1785C30.6713 21.0264 30.5135 20.8108 30.4326 20.563C30.3516 20.3152 30.3517 20.0481 30.4328 19.8003L32.0128 14.9303C32.0777 14.7299 32.0777 14.5141 32.0127 14.3137C31.9477 14.1132 31.821 13.9385 31.6508 13.8143L27.5068 10.7853C27.2981 10.6325 27.143 10.4177 27.0637 10.1715C26.9844 9.92526 26.985 9.6603 27.0653 9.41442C27.1456 9.16854 27.3015 8.95433 27.5108 8.80237C27.7202 8.65042 27.9721 8.5685 28.2308 8.56832H33.3308C33.5425 8.56831 33.7488 8.50111 33.9198 8.3764C34.0909 8.25168 34.218 8.07588 34.2828 7.87432L35.8328 3.04332C35.9124 2.79611 36.0683 2.58051 36.2782 2.42757C36.4881 2.27463 36.7411 2.19223 37.0008 2.19223C37.2605 2.19223 37.5135 2.27463 37.7234 2.42757C37.9333 2.58051 38.0892 2.79611 38.1688 3.04332L39.7188 7.87432C39.7836 8.07588 39.9107 8.25168 40.0817 8.3764C40.2528 8.50111 40.4591 8.56831 40.6708 8.56832H45.7708C46.0295 8.5685 46.2814 8.65042 46.4908 8.80237C46.7001 8.95433 46.856 9.16854 46.9363 9.41442C47.0166 9.6603 47.0171 9.92526 46.9379 10.1715C46.8586 10.4177 46.7035 10.6325 46.4948 10.7853H46.4928Z" fill="#FF8E3C"/>
</g>
<path d="M58 7.5L53 8L51.5 8.5L51 10.5L56 15L54 20.5L56.5 22.5L62 19L67 22.5L69.5 21.5L68 15L72.5 11.5V8L66.5 7.5L64.5 5L62.5 1.5H60.5L58 7.5Z" fill="#FF8E3C"/>
<g clip-path="url(#clip2_16_47)">
<path d="M73.8358 8.79432C73.6312 8.14322 73.2226 7.57523 72.6702 7.17435C72.1179 6.77348 71.4512 6.56099 70.7688 6.56832H66.3998L65.0728 2.43232C64.8641 1.78128 64.4541 1.21333 63.9018 0.810386C63.3495 0.407437 62.6835 0.190308 61.9998 0.190308C61.3161 0.190308 60.6501 0.407437 60.0978 0.810386C59.5455 1.21333 59.1355 1.78128 58.9268 2.43232L57.5998 6.56832H53.2308C52.5505 6.56929 51.888 6.7852 51.3378 7.18523C50.7876 7.58525 50.3778 8.14891 50.1671 8.79571C49.9564 9.44251 49.9555 10.1394 50.1645 10.7867C50.3734 11.4341 50.7817 11.9988 51.3308 12.4003L54.8868 15.0003L53.5348 19.1873C53.3163 19.8367 53.3135 20.5393 53.5269 21.1904C53.7403 21.8415 54.1583 22.4062 54.7188 22.8003C55.2696 23.2071 55.9372 23.425 56.6219 23.4216C57.3067 23.4182 57.972 23.1936 58.5188 22.7813L61.9998 20.2193L65.4818 22.7783C66.0317 23.1828 66.6956 23.4025 67.3782 23.4058C68.0607 23.4091 68.7268 23.1959 69.2806 22.7968C69.8343 22.3978 70.2473 21.8334 70.4601 21.1848C70.6729 20.5362 70.6745 19.8369 70.4648 19.1873L69.1128 15.0003L72.6728 12.4003C73.2282 12.0039 73.6412 11.4391 73.8507 10.7897C74.0601 10.1402 74.0549 9.44058 73.8358 8.79432ZM71.4928 10.7853L67.3488 13.8143C67.1786 13.9385 67.0519 14.1132 66.9869 14.3137C66.9219 14.5141 66.9219 14.7299 66.9868 14.9303L68.5618 19.8003C68.6415 20.0473 68.6408 20.3132 68.5599 20.5598C68.4789 20.8064 68.3218 21.021 68.1112 21.1727C67.9006 21.3244 67.6474 21.4054 67.3878 21.4041C67.1283 21.4028 66.8758 21.3192 66.6668 21.1653L62.5918 18.1653C62.4202 18.0392 62.2128 17.9713 61.9998 17.9713C61.7868 17.9713 61.5794 18.0392 61.4078 18.1653L57.3328 21.1653C57.1239 21.3212 56.8707 21.4066 56.6101 21.4089C56.3494 21.4113 56.0947 21.3306 55.883 21.1785C55.6713 21.0264 55.5135 20.8108 55.4326 20.563C55.3516 20.3152 55.3517 20.0481 55.4328 19.8003L57.0128 14.9303C57.0777 14.7299 57.0777 14.5141 57.0127 14.3137C56.9477 14.1132 56.821 13.9385 56.6508 13.8143L52.5068 10.7853C52.2981 10.6325 52.143 10.4177 52.0637 10.1715C51.9844 9.92526 51.985 9.6603 52.0653 9.41442C52.1456 9.16854 52.3015 8.95433 52.5108 8.80237C52.7202 8.65042 52.9721 8.5685 53.2308 8.56832H58.3308C58.5425 8.56831 58.7488 8.50111 58.9198 8.3764C59.0909 8.25168 59.218 8.07588 59.2828 7.87432L60.8328 3.04332C60.9124 2.79611 61.0683 2.58051 61.2782 2.42757C61.4881 2.27463 61.7411 2.19223 62.0008 2.19223C62.2605 2.19223 62.5135 2.27463 62.7234 2.42757C62.9333 2.58051 63.0892 2.79611 63.1688 3.04332L64.7188 7.87432C64.7836 8.07588 64.9107 8.25168 65.0817 8.3764C65.2528 8.50111 65.4591 8.56831 65.6708 8.56832H70.7708C71.0295 8.5685 71.2814 8.65042 71.4908 8.80237C71.7001 8.95433 71.856 9.16854 71.9363 9.41442C72.0166 9.6603 72.0171 9.92526 71.9379 10.1715C71.8586 10.4177 71.7035 10.6325 71.4948 10.7853H71.4928Z" fill="#FF8E3C"/>
</g>
<path d="M83 7.5L78 8L76.5 8.5L76 10.5L81 15L79 20.5L81.5 22.5L87 19L92 22.5L94.5 21.5L93 15L97.5 11.5V8L91.5 7.5L89.5 5L87.5 1.5H85.5L83 7.5Z" fill="#FF8E3C"/>
<g clip-path="url(#clip3_16_47)">
<path d="M98.8358 8.79432C98.6312 8.14322 98.2226 7.57523 97.6702 7.17435C97.1179 6.77348 96.4512 6.56099 95.7688 6.56832H91.3998L90.0728 2.43232C89.8641 1.78128 89.4541 1.21333 88.9018 0.810386C88.3495 0.407437 87.6835 0.190308 86.9998 0.190308C86.3161 0.190308 85.6501 0.407437 85.0978 0.810386C84.5455 1.21333 84.1355 1.78128 83.9268 2.43232L82.5998 6.56832H78.2308C77.5505 6.56929 76.888 6.7852 76.3378 7.18523C75.7876 7.58525 75.3778 8.14891 75.1671 8.79571C74.9564 9.44251 74.9555 10.1394 75.1645 10.7867C75.3734 11.4341 75.7817 11.9988 76.3308 12.4003L79.8868 15.0003L78.5348 19.1873C78.3163 19.8367 78.3135 20.5393 78.5269 21.1904C78.7403 21.8415 79.1583 22.4062 79.7188 22.8003C80.2696 23.2071 80.9372 23.425 81.6219 23.4216C82.3067 23.4182 82.972 23.1936 83.5188 22.7813L86.9998 20.2193L90.4818 22.7783C91.0317 23.1828 91.6956 23.4025 92.3782 23.4058C93.0607 23.4091 93.7268 23.1959 94.2806 22.7968C94.8343 22.3978 95.2473 21.8334 95.4601 21.1848C95.6729 20.5362 95.6745 19.8369 95.4648 19.1873L94.1128 15.0003L97.6728 12.4003C98.2282 12.0039 98.6412 11.4391 98.8507 10.7897C99.0601 10.1402 99.0549 9.44058 98.8358 8.79432ZM96.4928 10.7853L92.3488 13.8143C92.1786 13.9385 92.0519 14.1132 91.9869 14.3137C91.9219 14.5141 91.9219 14.7299 91.9868 14.9303L93.5618 19.8003C93.6415 20.0473 93.6408 20.3132 93.5599 20.5598C93.4789 20.8064 93.3218 21.021 93.1112 21.1727C92.9006 21.3244 92.6474 21.4054 92.3878 21.4041C92.1283 21.4028 91.8758 21.3192 91.6668 21.1653L87.5918 18.1653C87.4202 18.0392 87.2128 17.9713 86.9998 17.9713C86.7868 17.9713 86.5794 18.0392 86.4078 18.1653L82.3328 21.1653C82.1239 21.3212 81.8707 21.4066 81.6101 21.4089C81.3494 21.4113 81.0947 21.3306 80.883 21.1785C80.6713 21.0264 80.5135 20.8108 80.4326 20.563C80.3516 20.3152 80.3517 20.0481 80.4328 19.8003L82.0128 14.9303C82.0777 14.7299 82.0777 14.5141 82.0127 14.3137C81.9477 14.1132 81.821 13.9385 81.6508 13.8143L77.5068 10.7853C77.2981 10.6325 77.143 10.4177 77.0637 10.1715C76.9844 9.92526 76.985 9.6603 77.0653 9.41442C77.1456 9.16854 77.3015 8.95433 77.5108 8.80237C77.7202 8.65042 77.9721 8.5685 78.2308 8.56832H83.3308C83.5425 8.56831 83.7488 8.50111 83.9198 8.3764C84.0909 8.25168 84.218 8.07588 84.2828 7.87432L85.8328 3.04332C85.9124 2.79611 86.0683 2.58051 86.2782 2.42757C86.4881 2.27463 86.7411 2.19223 87.0008 2.19223C87.2605 2.19223 87.5135 2.27463 87.7234 2.42757C87.9333 2.58051 88.0892 2.79611 88.1688 3.04332L89.7188 7.87432C89.7836 8.07588 89.9107 8.25168 90.0817 8.3764C90.2528 8.50111 90.4591 8.56831 90.6708 8.56832H95.7708C96.0295 8.5685 96.2814 8.65042 96.4908 8.80237C96.7001 8.95433 96.856 9.16854 96.9363 9.41442C97.0166 9.6603 97.0171 9.92526 96.9379 10.1715C96.8586 10.4177 96.7035 10.6325 96.4948 10.7853H96.4928Z" fill="#FF8E3C"/>
</g>
<path d="M108 7.5L103 8L101.5 8.5L101 10.5L106 15L104 20.5L106.5 22.5L112 19L117 22.5L119.5 21.5L118 15L122.5 11.5V8L116.5 7.5L114.5 5L112.5 1.5H110.5L108 7.5Z" fill="#FF8E3C"/>
<g clip-path="url(#clip4_16_47)">
<path d="M123.836 8.79432C123.631 8.14322 123.223 7.57523 122.67 7.17435C122.118 6.77348 121.451 6.56099 120.769 6.56832H116.4L115.073 2.43232C114.864 1.78128 114.454 1.21333 113.902 0.810386C113.349 0.407437 112.683 0.190308 112 0.190308C111.316 0.190308 110.65 0.407437 110.098 0.810386C109.546 1.21333 109.135 1.78128 108.927 2.43232L107.6 6.56832H103.231C102.551 6.56929 101.888 6.7852 101.338 7.18523C100.788 7.58525 100.378 8.14891 100.167 8.79571C99.9564 9.44251 99.9555 10.1394 100.164 10.7867C100.373 11.4341 100.782 11.9988 101.331 12.4003L104.887 15.0003L103.535 19.1873C103.316 19.8367 103.314 20.5393 103.527 21.1904C103.74 21.8415 104.158 22.4062 104.719 22.8003C105.27 23.2071 105.937 23.425 106.622 23.4216C107.307 23.4182 107.972 23.1936 108.519 22.7813L112 20.2193L115.482 22.7783C116.032 23.1828 116.696 23.4025 117.378 23.4058C118.061 23.4091 118.727 23.1959 119.281 22.7968C119.834 22.3978 120.247 21.8334 120.46 21.1848C120.673 20.5362 120.675 19.8369 120.465 19.1873L119.113 15.0003L122.673 12.4003C123.228 12.0039 123.641 11.4391 123.851 10.7897C124.06 10.1402 124.055 9.44058 123.836 8.79432ZM121.493 10.7853L117.349 13.8143C117.179 13.9385 117.052 14.1132 116.987 14.3137C116.922 14.5141 116.922 14.7299 116.987 14.9303L118.562 19.8003C118.641 20.0473 118.641 20.3132 118.56 20.5598C118.479 20.8064 118.322 21.021 118.111 21.1727C117.901 21.3244 117.647 21.4054 117.388 21.4041C117.128 21.4028 116.876 21.3192 116.667 21.1653L112.592 18.1653C112.42 18.0392 112.213 17.9713 112 17.9713C111.787 17.9713 111.579 18.0392 111.408 18.1653L107.333 21.1653C107.124 21.3212 106.871 21.4066 106.61 21.4089C106.349 21.4113 106.095 21.3306 105.883 21.1785C105.671 21.0264 105.514 20.8108 105.433 20.563C105.352 20.3152 105.352 20.0481 105.433 19.8003L107.013 14.9303C107.078 14.7299 107.078 14.5141 107.013 14.3137C106.948 14.1132 106.821 13.9385 106.651 13.8143L102.507 10.7853C102.298 10.6325 102.143 10.4177 102.064 10.1715C101.984 9.92526 101.985 9.6603 102.065 9.41442C102.146 9.16854 102.302 8.95433 102.511 8.80237C102.72 8.65042 102.972 8.5685 103.231 8.56832H108.331C108.543 8.56831 108.749 8.50111 108.92 8.3764C109.091 8.25168 109.218 8.07588 109.283 7.87432L110.833 3.04332C110.912 2.79611 111.068 2.58051 111.278 2.42757C111.488 2.27463 111.741 2.19223 112.001 2.19223C112.26 2.19223 112.514 2.27463 112.723 2.42757C112.933 2.58051 113.089 2.79611 113.169 3.04332L114.719 7.87432C114.784 8.07588 114.911 8.25168 115.082 8.3764C115.253 8.50111 115.459 8.56831 115.671 8.56832H120.771C121.029 8.5685 121.281 8.65042 121.491 8.80237C121.7 8.95433 121.856 9.16854 121.936 9.41442C122.017 9.6603 122.017 9.92526 121.938 10.1715C121.859 10.4177 121.703 10.6325 121.495 10.7853H121.493Z" fill="#FF8E3C"/>
</g>
<defs>
<clipPath id="clip0_16_47">
<rect width="24" height="24" fill="white"/>
</clipPath>
<clipPath id="clip1_16_47">
<rect width="24" height="24" fill="white" transform="translate(25)"/>
</clipPath>
<clipPath id="clip2_16_47">
<rect width="24" height="24" fill="white" transform="translate(50)"/>
</clipPath>
<clipPath id="clip3_16_47">
<rect width="24" height="24" fill="white" transform="translate(75)"/>
</clipPath>
<clipPath id="clip4_16_47">
<rect width="24" height="24" fill="white" transform="translate(100)"/>
</clipPath>
</defs>
</svg>
