<svg width="437" height="436" viewBox="0 0 437 436" fill="none" xmlns="http://www.w3.org/2000/svg">
<path d="M77.4414 199.448C91.8231 179.392 113.376 170.302 113.376 170.302C114.079 170.01 111.082 142.533 111.02 140.584C110.112 108.486 115.447 75.088 139.631 51.9102C169.863 22.9553 224.715 16.956 259.395 41.3502C258.958 41.0275 270.805 31.7102 271.806 31.1129C278.279 27.2155 285.582 24.8984 293.123 24.3505C323.468 22.1705 351.296 45.9588 362.68 74.7348C374.064 103.511 371.451 169.076 350.566 187.986" stroke="#FFE5D2" stroke-width="5.05" stroke-miterlimit="10"/>
<path d="M64.4746 234.241C65.2223 226.342 67.2579 218.617 70.5008 211.373C70.8098 210.684 71.1332 210.009 71.471 209.35" stroke="#FFE5D2" stroke-width="5.05" stroke-miterlimit="10"/>
<path d="M101.979 317.709C98.4827 314.539 95.2446 311.313 92.2773 308.069" stroke="#FFE5D2" stroke-width="5.05" stroke-miterlimit="10"/>
<path d="M393.3 223.441C393.326 225.621 393.3 227.845 393.195 230.073C392.574 243.855 389.616 258.099 382.222 269.705C380.876 271.847 379.374 273.887 377.729 275.809C361.997 273.738 359.651 257.728 341.458 248.677C319.665 237.807 283.98 241.701 283.98 241.701L301.56 225.521C300.621 176.794 264.765 179.785 264.765 179.785L262.942 184.236C264.326 180.204 265.726 176.445 267.142 172.957L267.221 172.774C283.827 131.624 301.031 126.523 314.417 120.58C317.614 119.822 320.889 119.433 324.175 119.42C358.396 119.237 378.481 154.008 387.265 181.999C389.45 188.975 392.81 203.895 393.26 220.673C393.269 221.571 393.3 222.508 393.3 223.441Z" fill="#2E2E2E"/>
<path d="M412.528 406.073C409.871 409.722 405.488 411.71 400.97 411.71H349.054C347.059 411.739 345.08 411.35 343.244 410.57C341.409 409.79 339.757 408.635 338.396 407.18C338.369 407.18 338.396 407.18 338.396 407.18C338.211 406.994 338.038 406.796 337.88 406.587C336.253 404.577 335.236 402.144 334.948 399.577C334.685 397.218 336.442 395.121 338.819 395.217C339.72 395.251 340.578 395.611 341.233 396.228C341.889 396.845 342.298 397.678 342.385 398.574C342.385 398.761 342.425 398.944 342.451 399.128C342.643 400.191 343.112 401.187 343.81 402.014C344.427 402.742 345.203 403.321 346.077 403.706C346.951 404.092 347.902 404.275 348.857 404.242H401.192C402.129 404.257 403.058 404.071 403.916 403.695C404.774 403.318 405.54 402.761 406.161 402.062C406.862 401.253 407.34 400.276 407.548 399.227C407.757 398.179 407.688 397.094 407.35 396.08L383.975 326.734C383.784 326.202 383.558 325.683 383.297 325.182C381.925 322.29 379.75 319.851 377.031 318.156C374.311 316.46 371.161 315.579 367.954 315.616C358.113 315.734 345.619 315.76 344.444 315.76C318.254 315.664 306.337 315.664 299.782 315.838C300.232 314.231 301.045 312.748 302.16 311.505C302.16 311.505 302.186 311.478 302.186 311.465C303.784 309.765 305.972 308.738 308.304 308.592C318.014 307.799 327.628 306.351 336.967 303.822C353.446 299.366 369.165 291.723 380.085 279.432C385.401 273.483 389.419 266.495 391.884 258.914C393.797 252.894 395.003 246.673 395.476 240.376C395.646 238.387 395.75 236.384 395.791 234.367V234.276C395.791 233.814 395.817 233.338 395.817 232.876C395.877 230.003 395.745 227.129 395.424 224.274C398.278 224.296 401.011 225.425 403.045 227.422C403.224 227.892 403.356 228.378 403.439 228.874C403.518 229.343 403.557 229.819 403.557 230.295V286.692C403.561 290.544 402.799 294.358 401.315 297.914C399.83 301.47 397.653 304.696 394.908 307.406C390.364 311.897 389.07 318.712 391.224 324.707L414.455 393.673C415.157 395.742 415.349 397.949 415.013 400.108C414.678 402.267 413.825 404.313 412.528 406.073Z" fill="#FF8E3C"/>
<path d="M92.2822 404.333V246.227H101.979V404.399L92.2822 404.333Z" fill="#2E2E2E"/>
<path d="M283.985 241.679C290.929 240.942 298.961 240.07 306.674 240.245" stroke="black" stroke-width="5.05" stroke-miterlimit="10"/>
<path d="M246.158 248.664C233.861 251.76 221.896 256.229 211.688 263.658C194.558 276.11 186.726 299.34 193.727 319.466C193.727 319.492 221.258 398.726 221.258 398.726H214.013C212.451 398.726 210.905 399.034 209.463 399.632C208.022 400.231 206.713 401.109 205.614 402.214C203.459 404.351 202.397 407.913 202.397 411.183H267.611L242.829 330.305C242.21 328.312 242.071 326.2 242.423 324.143C242.774 322.086 243.606 320.14 244.851 318.464C246.096 316.787 247.719 315.426 249.589 314.491C251.459 313.556 253.523 313.074 255.615 313.083C269.735 313.48 282.849 314.02 297.13 313.401" stroke="black" stroke-width="5.05" stroke-miterlimit="10"/>
<path d="M393.401 230.731V230.644C392.767 213.64 391.911 196.863 387.248 181.986C378.464 153.995 358.38 119.224 324.158 119.407C320.871 119.42 317.597 119.809 314.4 120.567C291.842 125.917 276.176 148.977 267.204 172.761L267.125 172.944C266.269 175.225 265.476 177.501 264.748 179.772C264.254 181.299 263.645 182.787 262.926 184.223C260.177 189.749 255.821 194.318 250.427 197.332C245.033 200.347 238.852 201.666 232.694 201.118C191.266 197.36 136.668 195.215 119.472 224.257" stroke="black" stroke-width="5.05" stroke-miterlimit="10"/>
<path d="M325.608 199.104C319.577 206.368 313.228 213.383 306.664 220.167C293.226 234.067 281.633 248.83 260.779 249.815C244.142 250.613 228.306 244.243 212.574 239.826C195.745 235.104 187.228 231.329 171.544 226.559C167.026 225.191 162.34 224.457 157.621 224.379L141.832 224.501" stroke="black" stroke-width="5.05" stroke-miterlimit="10"/>
<path d="M264.027 399.747C265.53 399.074 267.16 398.729 268.807 398.735H276.07C276.07 398.735 260.889 369.292 248.749 349.694" stroke="black" stroke-width="5.05" stroke-miterlimit="10"/>
<path d="M274 313.467L324.779 411.71H267.34H256.922" stroke="black" stroke-width="5.05" stroke-miterlimit="10"/>
<path d="M412.528 406.073C409.871 409.722 405.488 411.71 400.97 411.71H349.054C344.75 411.71 340.55 409.932 337.867 406.574C336.24 404.564 335.223 402.131 334.935 399.563C334.672 397.205 336.429 395.108 338.806 395.203C339.707 395.238 340.565 395.598 341.22 396.215C341.876 396.832 342.285 397.665 342.372 398.561C342.479 399.827 342.976 401.029 343.797 402.001C344.424 402.717 345.201 403.289 346.072 403.674C346.945 404.059 347.891 404.248 348.844 404.229H401.193C402.129 404.244 403.059 404.058 403.916 403.682C404.774 403.305 405.54 402.748 406.161 402.049C406.862 401.239 407.34 400.263 407.548 399.214C407.756 398.166 407.688 397.081 407.35 396.067L383.975 326.734C382.791 323.451 380.613 320.617 377.742 318.625C374.872 316.633 371.451 315.581 367.954 315.616C358.113 315.734 345.619 315.76 344.444 315.76C315.283 315.668 303.803 315.668 297.72 315.891C297.625 315.89 297.531 315.871 297.444 315.834C297.357 315.797 297.277 315.744 297.211 315.677C297.145 315.609 297.092 315.53 297.056 315.442C297.02 315.355 297.002 315.261 297.003 315.167C296.994 312.475 297.984 309.875 299.782 307.868C299.789 307.863 299.795 307.857 299.8 307.849C299.804 307.842 299.807 307.833 299.809 307.825C301.409 306.129 303.596 305.103 305.927 304.956C315.637 304.162 325.251 302.715 334.589 300.186C351.069 295.73 366.788 288.087 377.708 275.796C383.024 269.846 387.042 262.859 389.507 255.278C391.415 249.26 392.616 243.042 393.086 236.748C393.258 234.754 393.363 232.751 393.401 230.74V230.644C393.401 230.186 393.427 229.711 393.427 229.249C393.486 226.376 393.355 223.502 393.034 220.647C397.788 220.62 402.582 224.069 403.412 228.883C403.492 229.352 403.531 229.827 403.53 230.304V286.692C403.535 290.544 402.773 294.358 401.288 297.914C399.804 301.47 397.626 304.696 394.882 307.406C390.337 311.897 389.044 318.712 391.198 324.707L414.429 393.673C415.135 395.74 415.33 397.946 415 400.105C414.669 402.264 413.821 404.311 412.528 406.073Z" stroke="black" stroke-width="5.05" stroke-miterlimit="10"/>
<path d="M163.105 234.245H27.8496C24.5359 234.245 21.8496 236.925 21.8496 240.232V240.236C21.8496 243.542 24.5359 246.222 27.8496 246.222H163.105C166.419 246.222 169.106 243.542 169.106 240.236V240.232C169.106 236.925 166.419 234.245 163.105 234.245Z" stroke="black" stroke-width="5.05" stroke-miterlimit="10"/>
<path d="M124.803 405.083H70.1125C68.2565 405.083 66.752 406.584 66.752 408.436C66.752 410.288 68.2565 411.789 70.1125 411.789H124.803C126.659 411.789 128.164 410.288 128.164 408.436C128.164 406.584 126.659 405.083 124.803 405.083Z" stroke="black" stroke-width="5.05" stroke-miterlimit="10"/>
<path d="M84.7168 228.869V229.471C84.8042 233.609 88.7066 234.241 92.0715 234.267L157.123 234.224C159.973 234.224 162.324 232.044 162.328 229.367V229.253C162.276 226.637 159.986 224.505 157.171 224.501C157.171 224.501 120.778 224.37 92.5915 224.287C92.0846 225.761 90.7998 226.903 89.196 227.836C87.8164 228.558 86.2743 228.914 84.7168 228.869Z" stroke="black" stroke-width="5.05" stroke-miterlimit="10"/>
<path d="M48.9439 170.576C48.9575 171.265 49.155 171.938 49.5164 172.525L79.6694 223.053C80.0597 223.661 80.5714 224.181 81.1731 224.582C81.7749 224.983 82.4531 225.255 83.1654 225.381C84.3702 225.618 85.6187 225.483 86.7444 224.993C88.593 224.174 89.6592 222.521 89.6243 220.847C89.6177 220.636 89.5954 220.426 89.5587 220.219C89.4656 219.757 89.2943 219.315 89.0518 218.911L58.8988 168.383C57.5878 166.173 54.3802 165.305 51.8019 166.443C49.9622 167.245 48.8959 168.898 48.9439 170.576Z" stroke="black" stroke-width="5.05" stroke-miterlimit="10"/>
<path d="M130.479 224.501C130.479 224.501 134.11 221.052 142.461 215.576" stroke="black" stroke-width="5.05" stroke-miterlimit="10"/>
<path d="M160.09 167.821L146.853 182.466C145.932 183.486 144.652 184.114 143.279 184.221C141.906 184.327 140.545 183.903 139.477 183.037C138.886 182.559 138.405 181.962 138.063 181.284C137.721 180.606 137.527 179.864 137.494 179.107C137.461 178.349 137.59 177.592 137.871 176.888C138.153 176.183 138.581 175.546 139.127 175.019L141.548 172.682C141.64 172.551 141.745 172.434 141.85 172.312L143.598 170.389L158.63 154.091C160.455 152.09 162.753 150.578 165.313 149.691C167.875 148.805 170.618 148.573 173.292 149.016L173.515 149.055" stroke="black" stroke-width="5.05" stroke-miterlimit="10"/>
<path d="M178.733 171.784H165.492C163.985 171.784 162.54 171.187 161.475 170.124C160.409 169.061 159.811 167.619 159.811 166.116C159.811 164.613 160.409 163.171 161.475 162.108C162.54 161.045 163.985 160.448 165.492 160.448H184.283" stroke="black" stroke-width="5.05" stroke-miterlimit="10"/>
<path d="M168.582 171.784C168.398 174.099 167.511 175.813 166.205 177.016C162.84 180.068 156.669 179.732 152.378 177.635" stroke="black" stroke-width="5.05" stroke-miterlimit="10"/>
<path d="M143.62 170.38C139.813 165.806 140.596 159.589 143.554 154.78C155.768 134.881 179.052 147.137 194.36 155.713C203.472 160.843 212.183 166.652 220.418 173.092C227.707 178.76 234.454 185.544 243.212 188.954C248.456 190.999 254.648 191.487 259.866 189.128" stroke="black" stroke-width="5.05" stroke-miterlimit="10"/>
<path d="M166.203 176.981C175.44 183.783 184.26 191.132 192.615 198.986" stroke="black" stroke-width="5.05" stroke-miterlimit="10"/>
<path d="M278.592 70.0129C280.803 72.0272 284.199 72.1362 287.009 71.8659C290.601 71.5389 294.158 70.6712 297.676 69.9387L299.813 69.8298H299.843C300.253 69.8341 300.658 69.9183 301.035 70.0787C301.412 70.2387 301.753 70.4715 302.041 70.7632C302.327 71.0553 302.554 71.4007 302.707 71.78C302.86 72.1589 302.937 72.5648 302.933 72.9733C302.981 77.5749 302.521 82.1677 301.561 86.6681L305.655 88.8786C306.184 87.4049 305.59 85.2816 306.844 85.1203C307.648 83.6248 308.845 82.6525 310.725 83.7643C314.404 85.9443 315.855 92.3491 312.311 95.2834L314.583 99.5214C315.375 101.007 316.659 102.172 318.217 102.818C319.774 103.464 321.508 103.55 323.122 103.062L320.802 97.943C326.247 98.9066 330.057 92.1268 328.397 87.9892C327.265 85.1464 327.322 82.9359 328.834 80.1717C328.934 79.9842 327.907 79.7357 327.995 79.5438C328.047 77.5164 327.484 75.3451 326.505 74.3118C324.783 72.4632 321.317 72.1318 322.025 69.324C322.34 68.1023 322.456 66.8379 322.371 65.5787C322.186 63.9328 321.65 62.3454 320.799 60.9236C319.947 59.5013 318.801 58.2775 317.437 57.334C314.57 55.4548 311.363 57.1596 308.299 57.1116C304.58 57.0724 301.915 53.9245 298.017 53.8765C296.076 53.846 294.521 54.6003 292.86 55.5377C291.47 56.3355 290.103 57.1683 288.774 58.0708C287.446 58.9733 286.266 59.7538 284.679 59.7581C282.612 59.7843 280.615 58.4763 278.535 59.0867C277.483 59.3692 276.559 59.9993 275.913 60.8743C275.253 64.092 276.446 68.0727 278.592 70.0129Z" fill="#FF8E3C"/>
<path d="M305.673 88.399C305.94 87.2632 306.333 86.1606 306.844 85.1115C307.648 83.6161 308.85 82.6438 310.725 83.7556C314.404 85.9356 315.855 92.3404 312.311 95.2747L314.583 99.5126C315.376 100.998 316.66 102.163 318.217 102.809C319.775 103.455 321.508 103.541 323.122 103.053" stroke="black" stroke-width="5.05" stroke-linecap="round" stroke-linejoin="round"/>
<path d="M320.803 97.9343L323.114 103.062C323.696 104.287 325.361 108.054 327.104 111.969C328.345 114.773 329.639 117.659 330.6 119.782" stroke="black" stroke-width="5.05" stroke-linecap="round" stroke-linejoin="round"/>
<path d="M283.355 79.5221C283.355 79.5221 290.168 77.8304 293.144 82.9839" stroke="black" stroke-width="5.05" stroke-miterlimit="10"/>
<path d="M285.361 94.9084C283.526 95.4098 281.057 95.8589 279.641 94.2632L282.726 87.7842C283.475 86.1954 283.66 84.3995 283.25 82.6917C282.577 79.8185 280.895 75.4541 282.7 71.6653" stroke="black" stroke-width="5.05" stroke-miterlimit="10"/>
<path d="M289.945 86.2251C290.462 85.3693 290.063 84.1838 289.055 83.5773C288.046 82.9708 286.809 83.1727 286.292 84.0286C285.775 84.8844 286.173 86.0699 287.182 86.6764C288.191 87.2833 289.428 87.081 289.945 86.2251Z" fill="black"/>
<path d="M299.886 127.016L298.27 109.113" stroke="black" stroke-width="5.05" stroke-miterlimit="10"/>
<path d="M305.655 88.8699C305.655 88.713 305.655 88.5516 305.655 88.3947C305.664 88.2264 305.664 88.0572 305.655 87.8889" stroke="black" stroke-width="5.05" stroke-linecap="round" stroke-linejoin="round"/>
<path d="M305.66 88.8742L304.252 88.1199L301.561 86.6593" stroke="black" stroke-width="5.05" stroke-linecap="round" stroke-linejoin="round"/>
<path d="M294.393 95.3706C294.393 95.3706 294.257 99.905 289.062 101.771" stroke="black" stroke-width="5.05" stroke-miterlimit="10"/>
<path d="M320.8 97.9343C326.246 98.8979 330.056 92.1181 328.396 87.9805C327.264 85.1377 327.321 82.9272 328.833 80.163C328.933 79.9755 329.016 79.7924 329.103 79.6093C330.227 77.1371 329.829 74.6868 328.063 72.5853C326.39 70.5971 323.868 69.8995 324.594 67.0001C324.92 65.7414 325.041 64.4386 324.952 63.1415C324.764 61.4486 324.214 59.8157 323.339 58.353C322.465 56.8902 321.286 55.6314 319.883 54.6613C316.937 52.7124 313.621 54.4782 310.448 54.4303C306.629 54.3736 303.871 51.1297 299.864 51.0818C297.858 51.0818 296.241 51.8273 294.537 52.7953C293.103 53.6193 291.683 54.4869 290.328 55.4113C288.974 56.3356 287.706 57.1553 286.098 57.1553C283.966 57.1553 281.907 55.8473 279.775 56.4577C277.642 57.0681 276.375 58.8295 275.956 60.87C275.274 64.0702 276.467 68.0683 278.612 70.026C280.824 72.0403 284.219 72.1493 287.029 71.879C290.621 71.552 294.178 70.6843 297.696 69.9519L299.833 69.8429H299.864C300.274 69.8468 300.679 69.9314 301.055 70.0914C301.433 70.2518 301.774 70.4842 302.061 70.7763C302.348 71.068 302.575 71.4138 302.728 71.7927C302.881 72.172 302.957 72.5775 302.953 72.9864C303.002 77.588 302.542 82.1804 301.581 86.6812" stroke="black" stroke-width="5.05" stroke-miterlimit="10"/>
<path d="M306.482 102.896C306.482 102.896 298.362 113.656 291.147 111.245C283.933 108.834 283.565 95.5145 283.565 95.5145" stroke="black" stroke-width="5.05" stroke-linecap="round" stroke-linejoin="round"/>
<path d="M92.2822 404.333V246.227H101.979V404.399" stroke="black" stroke-width="5.05" stroke-miterlimit="10"/>
<path d="M101.205 154.226C109.85 154.226 116.858 147.234 116.858 138.609C116.858 129.983 109.85 122.991 101.205 122.991C92.5599 122.991 85.5518 129.983 85.5518 138.609C85.5518 147.234 92.5599 154.226 101.205 154.226Z" fill="#FF8E3C"/>
<path d="M95.0824 142.637C94.6244 142.325 94.2176 141.944 93.8763 141.508C93.2719 140.762 92.9629 139.82 93.0071 138.862C93.0512 137.904 93.4458 136.995 94.1166 136.307C94.5541 135.858 95.0898 135.515 95.682 135.307C96.2741 135.099 96.9064 135.031 97.5296 135.108C97.3915 134.243 97.5392 133.357 97.9509 132.583C98.3621 131.81 99.0145 131.191 99.8099 130.82C100.605 130.449 101.499 130.347 102.358 130.528C103.217 130.709 103.993 131.164 104.57 131.825C105.789 133.202 106.361 135.252 106.575 137.057C106.686 137.999 106.701 138.95 106.619 139.895C106.58 140.37 106.409 143.113 105.964 143.287C103.018 144.412 97.9972 144.656 95.0824 142.637Z" fill="white"/>
<path d="M211.648 150.542C216.282 150.542 220.039 146.794 220.039 142.171C220.039 137.548 216.282 133.8 211.648 133.8C207.014 133.8 203.258 137.548 203.258 142.171C203.258 146.794 207.014 150.542 211.648 150.542Z" fill="#FF8E3C"/>
<path d="M211.072 138.291C211.327 138.137 211.606 138.026 211.897 137.964C212.399 137.843 212.927 137.91 213.382 138.151C213.837 138.392 214.189 138.79 214.371 139.272C214.489 139.586 214.533 139.924 214.499 140.258C214.465 140.592 214.353 140.914 214.174 141.199C214.616 141.339 215.002 141.615 215.276 141.989C215.549 142.363 215.697 142.813 215.697 143.276C215.697 143.739 215.549 144.19 215.276 144.563C215.002 144.936 214.616 145.213 214.174 145.354C213.173 145.572 212.13 145.496 211.172 145.136C210.689 144.973 210.223 144.763 209.782 144.508C209.56 144.381 208.262 143.675 208.283 143.418C208.41 141.726 209.437 139.241 211.072 138.291Z" fill="white"/>
<path d="M146.592 132.623C147.533 133.406 148.582 134.047 149.708 134.528C151.781 135.391 154.044 135.702 156.274 135.431C158.504 135.16 160.624 134.315 162.429 132.98C163.828 131.916 165.051 130.447 166.498 129.379C167.507 128.59 168.719 128.1 169.994 127.966C170.418 127.978 170.838 127.89 171.222 127.709C172.192 127.107 171.047 126.109 170.946 125.402C170.811 124.273 171.096 123.133 171.746 122.198C173.406 119.728 174.158 116.762 173.876 113.801C173.594 110.841 172.294 108.07 170.196 105.957C168.099 103.844 165.334 102.52 162.37 102.209C159.406 101.898 156.425 102.62 153.934 104.252C151.474 105.861 149.647 108.246 147.794 110.526C146.16 112.536 144.451 114.515 143.254 116.813C140.439 122.215 142.083 128.869 146.592 132.623Z" fill="#FF8E3C"/>
<path d="M163.281 114.816C164.828 114.816 166.082 113.565 166.082 112.021C166.082 110.478 164.828 109.227 163.281 109.227C161.734 109.227 160.479 110.478 160.479 112.021C160.479 113.565 161.734 114.816 163.281 114.816Z" fill="white"/>
<path d="M157.861 121.426C159.408 121.426 160.662 120.175 160.662 118.631C160.662 117.088 159.408 115.836 157.861 115.836C156.314 115.836 155.06 117.088 155.06 118.631C155.06 120.175 156.314 121.426 157.861 121.426Z" fill="white"/>
<path d="M152.779 127.63C154.326 127.63 155.58 126.379 155.58 124.836C155.58 123.292 154.326 122.041 152.779 122.041C151.232 122.041 149.978 123.292 149.978 124.836C149.978 126.379 151.232 127.63 152.779 127.63Z" fill="white"/>
<g opacity="0.46">
<path opacity="0.46" d="M233.795 98.6625C233.576 99.7573 233.115 100.789 232.445 101.683C231.775 102.577 230.913 103.31 229.923 103.829L206.561 116.211C205.68 116.681 204.715 116.971 203.721 117.068C202.727 117.164 201.724 117.063 200.769 116.771C199.813 116.48 198.926 116.003 198.156 115.368C197.386 114.733 196.75 113.953 196.283 113.072L177.662 78.092C176.719 76.3179 176.52 74.243 177.109 72.3224C177.698 70.4023 179.027 68.7934 180.804 67.8504L204.184 55.4723C207.702 53.6063 212.557 55.0363 214.445 58.6072L233.07 93.5744C233.908 95.1313 234.165 96.9342 233.795 98.6625Z" fill="#FF8E3C"/>
</g>
<path d="M226.86 96.0115L204.079 87.3482C203.789 87.2357 203.548 87.0238 203.4 86.7509C203.252 86.4775 203.206 86.1605 203.271 85.8571L208.554 61.6111C208.614 61.353 208.751 61.1193 208.947 60.941C209.143 60.7622 209.388 60.6471 209.651 60.6109C209.914 60.5743 210.182 60.6183 210.419 60.7369C210.656 60.8555 210.851 61.0434 210.979 61.2754L228.477 94.1759C228.601 94.4101 228.65 94.6765 228.619 94.9394C228.588 95.2023 228.477 95.4499 228.302 95.6488C228.126 95.848 227.895 95.9888 227.637 96.0538C227.38 96.1183 227.109 96.1035 226.86 96.0115Z" fill="white"/>
<g opacity="0.46">
<path opacity="0.46" d="M260.889 123.004C261.367 123.346 261.762 123.791 262.045 124.306C262.327 124.82 262.491 125.392 262.523 125.978L263.397 139.838C263.43 140.361 263.359 140.886 263.19 141.382C263.019 141.878 262.752 142.335 262.404 142.728C262.056 143.121 261.634 143.441 261.162 143.671C260.689 143.901 260.176 144.036 259.652 144.067L238.803 145.349C237.746 145.413 236.707 145.055 235.915 144.355C235.121 143.656 234.639 142.671 234.573 141.617L233.72 127.748C233.683 126.701 234.049 125.679 234.745 124.894C235.44 124.109 236.411 123.62 237.457 123.528L258.302 122.22C259.23 122.168 260.147 122.446 260.889 123.004Z" fill="#FF8E3C"/>
</g>
<path d="M258.119 125.742L248.994 134.755C248.878 134.864 248.727 134.93 248.568 134.941C248.409 134.952 248.25 134.908 248.12 134.816L237.632 127.011C237.52 126.927 237.437 126.811 237.393 126.678C237.35 126.545 237.348 126.401 237.389 126.267C237.429 126.134 237.51 126.015 237.62 125.928C237.73 125.841 237.864 125.79 238.004 125.782L257.616 124.574C257.753 124.57 257.888 124.608 258.004 124.682C258.119 124.756 258.21 124.863 258.264 124.989C258.318 125.114 258.333 125.253 258.307 125.388C258.282 125.522 258.216 125.646 258.119 125.742Z" fill="white"/>
<g opacity="0.46">
<path opacity="0.46" d="M119.301 199.169C117.932 199.394 116.549 199.511 115.162 199.518C101.886 199.518 102.332 187.236 102.332 187.236L113.331 189.608C112.916 188.592 112.756 187.49 112.868 186.398C112.979 185.306 113.357 184.258 113.969 183.347C116.486 179.676 122.333 181.564 122.333 181.564L125.969 179.227L125.183 183.587L130.055 182.767L127.551 185.658C130.916 188.884 135.203 198.707 124.864 203.813C114.524 208.918 110.062 202.801 110.062 202.801L115.162 199.522L119.301 199.169Z" fill="#FF8E3C"/>
</g>
<path d="M119.082 187.157C119.961 187.157 120.673 186.447 120.673 185.57C120.673 184.694 119.961 183.983 119.082 183.983C118.204 183.983 117.491 184.694 117.491 185.57C117.491 186.447 118.204 187.157 119.082 187.157Z" fill="white"/>
<path d="M146.81 411.71H328.72" stroke="black" stroke-width="3.15" stroke-miterlimit="10"/>
</svg>
