<svg width="402" height="328" viewBox="0 0 402 328" fill="none" xmlns="http://www.w3.org/2000/svg">
<path d="M101.363 160.728C102.304 160.787 103.192 161.184 103.864 161.846C104.905 162.927 126.778 185.917 127.087 186.528C127.397 187.139 119.755 187.143 119.011 187.143C118.267 187.143 102.216 187.352 101.789 186.528C101.363 185.704 101.363 160.728 101.363 160.728Z" fill="#FF8E3C"/>
<path d="M86.5792 58.1456C86.5792 58.1456 86.9812 55.8944 91.0012 56.7507C95.0212 57.607 110.177 61.5345 110.635 61.627C111.093 61.7194 116.516 61.1727 113.348 64.6661L74.873 107.097C74.873 107.097 64.3808 115.913 70.8771 126.622L84.3361 141.432L93.0313 150.509C93.0313 150.509 95.1137 149.359 94.7318 155.655C94.3499 161.95 95.0654 184.036 95.0654 184.036C95.0654 184.036 95.4674 185.97 93.0193 183.952C90.5711 181.933 57.6433 146.389 57.6433 146.389L42.1502 129.308C42.1502 129.308 37.2861 124.339 39.4729 115.563C41.6597 106.788 52.373 97.212 52.373 97.212L86.5792 58.1456Z" fill="#FF8E3C"/>
<path d="M174.392 163.892C167.864 168.102 161.606 172.717 155.655 177.709C145.436 166.967 126.393 146.405 126.393 146.405L110.908 129.324C110.908 129.324 106.032 124.351 108.227 115.575C108.267 115.423 108.303 115.266 108.356 115.101C116.798 126.148 128.456 143.177 153.577 141.955L174.392 163.892Z" fill="#FF8E3C"/>
<path d="M182.106 64.6499C179.975 67.0097 163.176 85.5298 152.499 97.3044L143.655 107.073C142.176 108.411 140.903 109.959 139.876 111.668C131.892 108.669 123.88 105.722 115.949 102.611C117.575 100.712 119.312 98.9108 121.151 97.216L152.824 61.036C153.17 60.9958 153.5 60.9716 153.845 60.9314C158.58 60.4647 163.285 59.7375 167.939 58.7526C169.294 58.4591 170.657 58.1536 172.008 57.832C176.832 60.4611 170.158 65.8439 179.408 61.6108C179.561 61.6349 180.212 61.6108 180.964 61.647C182.456 61.7837 184.228 62.3063 182.106 64.6499Z" fill="#FF8E3C"/>
<path d="M145.676 187.135H128.1H103.265H101.363" stroke="#FFE5D2" stroke-width="4.76" stroke-miterlimit="10"/>
<path d="M69.168 56.3367L33.5427 97.0392L24.5982 107.262C21.641 110.641 20.0382 114.995 20.0983 119.485C20.1584 123.975 21.8772 128.284 24.9238 131.583L70.9287 181.306C72.6324 183.144 74.6963 184.609 76.9921 185.612C79.2879 186.615 81.7658 187.134 84.2711 187.135H94.7231" stroke="#FFE5D2" stroke-width="4.76" stroke-miterlimit="10"/>
<path d="M88.2626 56.208L43.5923 107.262C40.6348 110.642 39.0329 114.998 39.0945 119.488C39.1561 123.98 40.8768 128.289 43.926 131.587L89.9228 181.306C91.3129 182.8 92.9434 184.05 94.7468 185.005" stroke="#FFE5D2" stroke-width="4.76" stroke-miterlimit="10"/>
<path d="M94.7321 152.286L73.3778 130.015C70.6531 127.23 69.1017 123.504 69.0451 119.608C68.9884 115.712 70.43 111.943 73.0723 109.079L115.282 62.5354" stroke="#FFE5D2" stroke-width="4.76" stroke-miterlimit="10"/>
<path d="M101.363 187.031C101.995 187.098 102.63 187.133 103.265 187.135H128.1L101.363 159.225" stroke="#FFE5D2" stroke-width="4.76" stroke-miterlimit="10"/>
<path d="M153.332 141.902L153.384 141.967L174.392 163.892" stroke="#FFE5D2" stroke-width="4.76" stroke-miterlimit="10"/>
<path d="M153.817 60.9517L116.137 102.715" stroke="#FFE5D2" stroke-width="4.76" stroke-miterlimit="10"/>
<path d="M108.189 114.872C107.465 117.793 107.478 120.849 108.228 123.764C108.979 126.679 110.442 129.362 112.487 131.571L155.372 177.938" stroke="#FFE5D2" stroke-width="4.76" stroke-miterlimit="10"/>
<path d="M139.542 111.949C139.607 111.849 139.659 111.748 139.735 111.644C140.273 110.722 140.911 109.862 141.637 109.079L152.451 97.1396L152.555 97.0391" stroke="#FFE5D2" stroke-width="4.76" stroke-miterlimit="10"/>
<path d="M33.5435 97.0392C33.5435 97.0392 37.1896 62.1657 69.1685 56.3367C78.1492 54.7046 87.3992 55.6734 96.187 57.9045C103.395 59.7296 110.522 62.2019 117.999 62.6481C125.959 63.1225 134.031 62.3547 141.979 61.8843C145.565 61.6672 149.187 61.414 152.797 61.0562C153.142 61.016 153.472 60.9919 153.818 60.9517C158.552 60.485 163.257 59.7573 167.912 58.7728C169.267 58.4794 170.629 58.1739 171.98 57.8523C172.659 57.7116 173.335 57.5467 174.01 57.394" stroke="#FFE5D2" stroke-width="4.76" stroke-miterlimit="10"/>
<path d="M288.138 289.477C306.325 273.69 317.424 247.443 321.38 223.758" stroke="#FFE5D2" stroke-width="4.76" stroke-miterlimit="10"/>
<path d="M193.192 51.7296C200.517 49.7196 210.426 46.3589 223.668 40.7993C262.879 24.3173 276.833 40.1078 276.833 40.1078C279.127 42.1416 281.076 44.5335 282.605 47.1911C282.794 47.5087 282.975 47.8383 283.14 48.1599C296.482 73.1723 272.688 100.38 282.424 125.746C287.948 140.186 301.66 149.42 308.51 163.172C312.153 170.557 314.784 178.4 316.329 186.488" stroke="#FFE5D2" stroke-width="4.76" stroke-miterlimit="10"/>
<path d="M173.475 50.8896C173.435 50.8917 173.395 50.8997 173.358 50.9139" stroke="#FFE5D2" stroke-width="4.76" stroke-miterlimit="10"/>
<path d="M260.352 142.019C256.842 190.219 208.056 190.259 207.236 189.724C207.236 189.724 210.395 193.037 191.176 177.725C171.956 162.412 164.065 139.679 164.065 139.679C155.977 143.442 141.103 141.5 141.103 141.5C131.495 138.606 123.451 132.536 117.304 126.365C125.782 115.957 124.138 107.998 123.499 105.98C131.563 109.268 140.785 112.749 144.552 113.155C151.856 113.939 151.197 103.568 151.197 103.568C157.741 63.7094 180.86 61.6873 180.86 61.6873C205.905 58.7929 220.421 69.5907 232.509 96.6613C244.597 123.732 260.352 142.019 260.352 142.019Z" fill="#2E2E2E"/>
<path d="M213.626 295.8H169.643C168.782 295.353 168.096 294.629 167.696 293.745C167.296 292.862 167.204 291.869 167.436 290.926C167.668 289.985 168.21 289.148 168.975 288.551C169.74 287.954 170.683 287.631 171.653 287.635H182.326C182.326 287.635 181.9 287.326 181.12 286.727H206.141C209.843 291.281 212.597 294.57 213.626 295.8Z" fill="#FF8E3C"/>
<path d="M372.713 227.814L370.643 250.953C370.623 251.098 370.599 251.234 370.579 251.391C370.004 256.006 367.487 256.058 367.487 256.058L369.747 260.967L369.558 263.053V275.222C369.558 276.102 369.813 276.963 370.292 277.702C370.772 278.44 371.455 279.024 372.259 279.383C373.062 279.742 373.953 279.86 374.823 279.724C375.693 279.587 376.504 279.202 377.159 278.614C378 277.87 378.531 276.837 378.647 275.72C379.608 266.755 381.831 246.105 381.831 246.105C382.703 241.755 375.041 230.435 372.713 227.814Z" fill="#FF8E3C"/>
<path d="M217.353 195.541C194.737 214.435 166.548 218.182 169.378 230.748C172.289 243.612 194.114 271.873 206.153 286.719C209.828 291.285 212.585 294.566 213.631 295.776C213.896 296.122 214.033 296.286 214.033 296.286H171.654C170.945 296.29 170.246 296.115 169.624 295.776C168.773 295.323 168.097 294.598 167.705 293.718C167.313 292.837 167.227 291.85 167.461 290.915C167.694 289.979 168.234 289.149 168.993 288.555C169.753 287.962 170.69 287.639 171.654 287.639H182.331L181.125 286.719C172.972 280.456 126.051 242.929 130.79 213.426C132.881 200.361 143.606 187.911 155.65 177.708C161.601 172.716 167.859 168.101 174.387 163.892C175.216 163.357 176.02 162.834 176.799 162.336" stroke="black" stroke-width="4.76" stroke-miterlimit="10"/>
<path d="M101.361 109.348V296.729C101.361 297.608 101.011 298.452 100.389 299.073C99.767 299.696 98.9236 300.045 98.044 300.045C97.1645 300.045 96.3207 299.696 95.6988 299.073C95.0769 298.452 94.7275 297.608 94.7275 296.729V109.348C94.7291 108.693 94.9249 108.052 95.2895 107.508C95.6546 106.964 96.1727 106.539 96.7785 106.289C97.384 106.038 98.0505 105.972 98.6933 106.1C99.3365 106.227 99.9274 106.542 100.392 107.005C100.701 107.311 100.946 107.676 101.112 108.079C101.279 108.481 101.363 108.913 101.361 109.348Z" stroke="black" stroke-width="4.76" stroke-miterlimit="10"/>
<path d="M117.654 296.29C117.655 300.029 116.589 303.69 114.579 306.843C112.57 309.995 109.701 312.508 106.311 314.085C102.921 315.661 99.1519 316.236 95.4462 315.742C91.7402 315.247 88.2532 313.704 85.3954 311.294C82.5372 308.884 80.4279 305.707 79.3152 302.138C78.2024 298.569 78.1329 294.756 79.115 291.149C80.0967 287.542 82.0894 284.29 84.8576 281.777C87.6257 279.265 91.0544 277.595 94.7395 276.966V296.729C94.7395 297.608 95.0889 298.452 95.7108 299.074C96.3326 299.696 97.1764 300.045 98.056 300.045C98.9356 300.045 99.779 299.696 100.401 299.074C101.023 298.452 101.373 297.608 101.373 296.729V276.966C105.93 277.749 110.064 280.118 113.043 283.654C116.023 287.19 117.656 291.667 117.654 296.29Z" stroke="black" stroke-width="4.76" stroke-miterlimit="10"/>
<path d="M263.679 315.904C274.512 315.904 283.293 307.123 283.293 296.29C283.293 285.458 274.512 276.677 263.679 276.677C252.847 276.677 244.066 285.458 244.066 296.29C244.066 307.123 252.847 315.904 263.679 315.904Z" stroke="black" stroke-width="4.76" stroke-miterlimit="10"/>
<path d="M199.714 91.604C196.779 111.362 184.217 134.425 164.161 140.318C162.663 140.759 161.138 141.101 159.594 141.339C157.596 141.65 155.584 141.856 153.564 141.955C128.459 143.161 116.789 126.148 108.343 115.101C104.569 110.128 101.429 106.378 98.0361 106.032" stroke="black" stroke-width="3" stroke-miterlimit="10"/>
<path d="M94.7316 109.348V110.828C94.7468 111.877 94.4019 112.901 93.7547 113.727C93.1075 114.554 92.1965 115.134 91.1739 115.37C90.5146 115.513 89.8316 115.505 89.1751 115.349C88.5186 115.193 87.9056 114.892 87.381 114.468C86.8564 114.044 86.4331 113.508 86.1428 112.898C85.8522 112.289 85.7022 111.623 85.7026 110.948V109.815C85.7026 105.706 87.4996 101.546 90.7276 98.9607C96.5446 94.2815 104.335 97.9799 110.281 100.376C112.158 101.144 114.032 101.883 115.909 102.623C123.84 105.734 131.852 108.681 139.836 111.68L142.783 112.79C143.575 113.096 144.426 113.219 145.272 113.15C146.118 113.081 146.938 112.821 147.669 112.391C148.401 111.96 149.025 111.369 149.496 110.663C149.967 109.956 150.272 109.152 150.388 108.311C150.899 104.806 151.562 101.075 152.467 97.3166C156.23 81.5742 164.024 65.1566 180.824 61.6873L180.924 61.6632C201.945 57.414 221.462 71.3232 229.542 90.0363C236.533 106.249 245.068 121.915 255.704 136.045C275.479 162.312 292.15 173.319 320.137 188.603C339.602 199.24 359.03 212.321 373.888 229.012C376.224 231.641 382.732 241.755 381.836 246.105C381.836 246.105 379.617 266.756 378.66 275.724C378.54 276.889 377.976 277.963 377.086 278.724C376.195 279.484 375.046 279.873 373.876 279.809C372.707 279.745 371.607 279.233 370.804 278.38C370.002 277.526 369.559 276.397 369.567 275.226V263.057C369.569 262.215 369.471 261.376 369.273 260.557C367.231 251.218 354.399 242.366 347.702 237.864C334.388 228.933 319.744 222.165 304.314 217.812C291.892 214.291 279.455 213.563 266.828 211.589C265.973 211.46 265.118 211.327 264.263 211.187C248.127 208.373 232.003 203.187 217.358 195.561C201.543 187.332 187.433 176.265 176.82 162.356C171.653 155.605 167.398 148.202 164.165 140.339" stroke="black" stroke-width="3" stroke-miterlimit="10"/>
<path d="M117.657 296.291H202.708H244.163" stroke="black" stroke-width="4.76" stroke-miterlimit="10"/>
<path d="M263.777 300.037C265.607 300.037 267.09 298.554 267.09 296.725C267.09 294.895 265.607 293.412 263.777 293.412C261.948 293.412 260.465 294.895 260.465 296.725C260.465 298.554 261.948 300.037 263.777 300.037Z" stroke="black" stroke-width="4.76" stroke-miterlimit="10"/>
<path d="M283.293 296.29H289.066C289.066 289.559 286.392 283.102 281.632 278.342C276.872 273.582 270.415 270.908 263.684 270.908C256.952 270.908 250.496 273.582 245.735 278.342C240.975 283.102 238.301 289.559 238.301 296.29" stroke="black" stroke-width="4.76" stroke-miterlimit="10"/>
<path d="M72.6567 296.291C72.6543 290.132 74.8923 284.183 78.9533 279.554C83.0143 274.924 88.6206 271.93 94.7265 271.129" stroke="black" stroke-width="4.76" stroke-miterlimit="10"/>
<path d="M101.361 271.129C107.464 271.933 113.067 274.928 117.125 279.558C121.183 284.187 123.418 290.134 123.415 296.291H117.654" stroke="black" stroke-width="4.76" stroke-miterlimit="10"/>
<path d="M157.151 20.0843C158.779 21.7767 161.432 22.038 163.647 21.9737C166.461 21.8973 169.307 21.4029 172.089 21.0089L173.765 21.033H173.789C174.112 21.0543 174.426 21.1384 174.715 21.2811C175.005 21.4238 175.263 21.6224 175.475 21.8652C175.688 22.108 175.851 22.3902 175.953 22.6957C176.057 23.0012 176.099 23.3244 176.077 23.646C175.877 27.2584 175.28 30.8378 174.296 34.3191L177.387 36.2688C177.878 35.1352 177.52 33.4548 178.513 33.3825C179.221 32.2488 180.209 31.5453 181.62 32.5182C184.386 34.4196 185.19 39.517 182.264 41.6355L183.823 45.0807C184.945 47.5731 189.592 48.759 192.245 48.1439C191.329 45.6877 188.776 44.1641 188.776 44.1641C192.989 45.2013 196.322 40.0798 195.236 36.7432C194.501 34.4558 194.657 32.7232 195.992 30.6328C196.08 30.4921 195.288 30.2308 195.369 30.0941C195.514 28.5102 195.184 26.7736 194.472 25.9093C193.222 24.3696 190.525 23.9234 191.224 21.7647C191.533 20.8228 191.689 19.8375 191.687 18.8462C191.626 17.5457 191.288 16.2734 190.694 15.1144C190.101 13.9558 189.266 12.9376 188.245 12.1287C186.099 10.5207 183.498 11.6745 181.102 11.4775C178.191 11.2564 176.278 8.6635 173.219 8.41024C171.699 8.28562 170.437 8.81223 169.094 9.44739C167.965 9.99813 166.851 10.5851 165.762 11.2242C164.672 11.8634 163.711 12.4302 162.469 12.3378C160.861 12.2534 159.354 11.1318 157.693 11.4936C156.861 11.664 156.11 12.1102 155.563 12.7599C154.843 15.2483 155.575 18.4482 157.151 20.0843Z" fill="#FF8E3C"/>
<path d="M177.403 35.9151C177.471 35.7222 177.54 35.5373 177.62 35.3282V35.3041C177.844 34.6432 178.134 34.0061 178.484 33.4027C179.2 32.269 180.181 31.5655 181.6 32.5343C184.369 34.4398 185.165 39.5372 182.247 41.6637L183.803 45.1008C183.859 45.2287 183.924 45.3525 184 45.4707C184.864 46.9701 186.745 48.0435 188.88 48.156H188.916C189.687 48.1934 190.458 48.1038 191.199 47.8907" stroke="black" stroke-width="3" stroke-linecap="round" stroke-linejoin="round"/>
<path d="M160.398 27.7907C160.398 27.7907 165.821 26.8179 167.883 31.0067" stroke="black" stroke-width="3" stroke-miterlimit="10"/>
<path d="M161.154 39.9671C159.686 40.2646 157.729 40.4937 156.708 39.1631L159.457 34.2346C160.127 33.027 160.364 31.6276 160.133 30.2668C159.755 27.9794 158.661 24.466 160.269 21.5876" stroke="black" stroke-width="3" stroke-miterlimit="10"/>
<path d="M165.204 33.4001C165.653 32.7553 165.403 31.8046 164.645 31.2764C163.887 30.7485 162.909 30.8434 162.46 31.4882C162.01 32.1334 162.261 33.0842 163.018 33.612C163.776 34.1398 164.755 34.045 165.204 33.4001Z" fill="black"/>
<path d="M173.797 64.0994L173.476 50.7007" stroke="black" stroke-width="3" stroke-miterlimit="10"/>
<path d="M177.367 36.2807C177.367 36.1561 177.395 36.0315 177.403 35.9069C177.411 35.7823 177.439 35.6456 177.443 35.5049" stroke="black" stroke-width="4.76" stroke-linecap="round" stroke-linejoin="round"/>
<path d="M177.366 36.2808L176.305 35.6175L174.275 34.3311" stroke="black" stroke-width="3" stroke-linecap="round" stroke-linejoin="round"/>
<path d="M168.209 40.7993C168.209 40.7993 167.867 44.349 163.702 45.5469" stroke="black" stroke-width="3" stroke-miterlimit="10"/>
<path d="M188.755 44.1761C192.968 45.2133 196.301 40.0918 195.216 36.7552C194.48 34.4678 194.637 32.7352 195.971 30.6448C196.06 30.5041 196.136 30.3634 196.212 30.2428C196.707 29.3753 196.93 28.3795 196.852 27.3838C196.774 26.388 196.398 25.4389 195.774 24.659C194.568 23.0108 192.631 22.3314 193.362 20.0963C193.684 19.1267 193.847 18.1112 193.845 17.0894C193.782 15.7487 193.433 14.4365 192.82 13.2422C192.207 12.0479 191.344 10.999 190.291 10.1669C188.084 8.48253 185.395 9.70059 182.914 9.49959C179.927 9.25839 177.934 6.56901 174.798 6.32379C173.234 6.20319 171.924 6.72579 170.541 7.39311C169.375 7.96797 168.221 8.57499 167.112 9.23025C166.002 9.88551 164.985 10.4604 163.707 10.38C162.034 10.2835 160.491 9.12573 158.79 9.50763C157.09 9.88953 156.004 11.192 155.574 12.7719C154.875 15.2482 155.606 18.4481 157.182 20.0842C158.758 21.7204 161.464 22.038 163.679 21.9736C166.493 21.8973 169.339 21.4028 172.121 21.0089L173.797 21.033H173.821C174.465 21.0836 175.064 21.3863 175.486 21.8756C175.909 22.3652 176.121 23.0012 176.076 23.646C175.877 27.2583 175.28 30.8377 174.295 34.3191" stroke="black" stroke-width="3" stroke-miterlimit="10"/>
<path d="M177.283 47.3398C177.283 47.3398 170.368 55.3798 164.845 53.1005C159.321 50.8211 159.723 40.3611 159.723 40.3611" stroke="black" stroke-width="3" stroke-linecap="round" stroke-linejoin="round"/>
<path d="M116.937 126.019L117.283 126.365C117.062 126.654 116.821 126.94 116.567 127.229L116.937 126.019Z" fill="#2E2E2E"/>
<path d="M123.466 105.98L123.177 105.863L123.293 105.461C123.363 105.629 123.421 105.803 123.466 105.98Z" fill="#2E2E2E"/>
<path d="M98.0396 315.9H323.312" stroke="black" stroke-width="4.76" stroke-miterlimit="10"/>
<path d="M189.314 44.2766L198.861 62.5716" stroke="black" stroke-width="3" stroke-linecap="round" stroke-linejoin="round"/>
<path d="M303.755 173.427C303.755 173.427 341.374 189.608 348.936 199.618" stroke="black" stroke-width="4.76" stroke-miterlimit="10"/>
<path d="M296.957 295.78H313.113" stroke="black" stroke-width="4.76" stroke-miterlimit="10"/>
<path d="M305.033 291.253H329.27" stroke="black" stroke-width="4.76" stroke-miterlimit="10"/>
<path d="M258.696 87.2424C273.518 87.2424 285.533 75.2266 285.533 60.4049C285.533 45.5828 273.518 33.5674 258.696 33.5674C243.874 33.5674 231.858 45.5828 231.858 60.4049C231.858 75.2266 243.874 87.2424 258.696 87.2424Z" stroke="#FFE5D2" stroke-width="4.76" stroke-miterlimit="10"/>
<path d="M258.696 75.1463C266.837 75.1463 273.437 68.5462 273.437 60.4049C273.437 52.2632 266.837 45.6636 258.696 45.6636C250.554 45.6636 243.955 52.2632 243.955 60.4049C243.955 68.5462 250.554 75.1463 258.696 75.1463Z" stroke="#FFE5D2" stroke-width="4.76" stroke-miterlimit="10"/>
<path d="M258.696 62.9334C260.092 62.9334 261.224 61.8013 261.224 60.4048C261.224 59.0087 260.092 57.8762 258.696 57.8762C257.299 57.8762 256.167 59.0087 256.167 60.4048C256.167 61.8013 257.299 62.9334 258.696 62.9334Z" stroke="#FFE5D2" stroke-width="4.76" stroke-miterlimit="10"/>
<path d="M263.924 51.9668L260.025 58.2541" stroke="#FFE5D2" stroke-width="4.76" stroke-miterlimit="10"/>
<path d="M258.695 45.6636V48.2846" stroke="#FFE5D2" stroke-width="4.76" stroke-miterlimit="10"/>
<path d="M273.437 60.4048H270.953" stroke="#FFE5D2" stroke-width="4.76" stroke-miterlimit="10"/>
<path d="M258.695 75.1463V72.5977" stroke="#FFE5D2" stroke-width="4.76" stroke-miterlimit="10"/>
<path d="M243.955 60.4048H246.194" stroke="#FFE5D2" stroke-width="4.76" stroke-miterlimit="10"/>
</svg>
