<svg width="467" height="410" viewBox="0 0 467 410" fill="none" xmlns="http://www.w3.org/2000/svg">
<path d="M102.55 130.727C102.55 130.727 76.4428 53.4765 167.506 62.9049C258.57 72.3333 215.061 38.1408 249.471 16.9221C283.882 -4.29669 385.271 61.7167 342.853 125.387C300.435 189.058 410.642 130.815 433.631 226.563C447.817 285.651 412.621 329.141 383.584 353.793" stroke="#FFE5D2" stroke-width="5.47" stroke-miterlimit="10"/>
<path d="M392.464 279.972C385.621 240.342 361.39 204.879 322.023 192.187C311.952 188.958 301.654 186.485 291.216 184.79V184.844C290.672 188.133 289.382 191.256 287.447 193.971C283.344 199.592 277.689 204.21 271.142 206.615C264.458 209.089 256.179 209.409 249.976 205.519C246.242 203.181 242.619 199.064 241.964 194.621C241.217 189.616 243.768 184.878 247.357 181.57C216.938 181.817 188.323 186.822 165.392 192.521C166.187 195.849 167.288 199.096 168.681 202.221C170.629 206.578 173.384 210.527 176.799 213.861C181.059 209.641 184.788 204.918 187.906 199.796C190.888 200.772 193.517 202.603 195.467 205.062C197.416 207.52 198.6 210.497 198.872 213.623V213.784C200.075 225.137 189.143 233.669 179.957 238.916C169.345 245.018 157.516 249.586 145.895 253.384C141.103 254.955 134.876 256.294 129.817 254.655C129.272 254.481 128.741 254.268 128.227 254.019C123.183 251.546 119.807 246.361 117.174 241.623C109.671 228.164 104.792 213.493 101.484 198.433C78.5288 201.368 75.9001 185.823 74.5372 182.011L54.8996 236.908C53.8694 240.854 53.7579 244.984 54.5736 248.98C55.3894 252.976 57.1107 256.732 59.6045 259.958C62.0989 263.185 65.2999 265.797 68.9612 267.593C72.6224 269.39 76.6474 270.322 80.7258 270.32H162.022L198.949 365.04L209.416 391.924H269.197C264.347 391.924 261.694 390.741 259.768 388.81C257.779 386.821 256.66 384.125 256.655 381.312C256.655 375.492 261.432 370.72 269.197 370.72H269.745C269.158 370.72 268.595 370.666 268.009 370.613C268.372 370.574 268.733 370.514 269.09 370.434C268.706 370.424 268.322 370.395 267.941 370.346C271.443 369.933 274.688 368.302 277.11 365.737C279.531 363.174 280.974 359.84 281.186 356.32C281.196 356.137 281.196 355.955 281.186 355.772V355.491C281.102 351.882 279.723 348.423 277.3 345.748C274.877 343.071 271.572 341.357 267.989 340.917C268.397 340.883 268.785 340.849 269.177 340.849C268.823 340.761 268.431 340.708 268.062 340.655C268.644 340.601 269.231 340.563 269.793 340.563L313.531 340.795L321.577 340.829H331.126C331.568 340.829 332.014 340.829 332.436 340.883L346.622 340.955L356.099 341.009C360.06 341.042 363.846 342.642 366.63 345.46C369.414 348.277 370.969 352.083 370.955 356.044C370.949 358.283 370.43 360.492 369.437 362.499C373.502 361.979 377.273 360.098 380.136 357.164C386.96 350.195 389.899 339.762 391.931 330.489C395.525 313.97 395.311 296.563 392.464 279.972ZM281.962 281.087C273.722 293.77 259.691 292.63 259.691 292.63C259.691 292.63 258.527 293.765 255.811 288.934C253.095 284.104 245.359 280.801 245.359 280.801C244.743 285.651 243.468 293.023 230.809 283.468C218.151 273.914 221.968 259.985 223.049 252.627C224.131 245.27 228.442 242.83 228.442 242.83L233.535 240.143C233.535 240.143 218.805 236.355 218.097 236.215C217.389 236.074 204.27 225.089 217.583 222.189C230.896 219.288 251.65 230.822 255.66 233.101C259.671 235.381 283.111 255.207 283.111 255.207C283.111 255.207 290.246 268.424 281.962 281.087Z" fill="#353642"/>
<path d="M101.464 198.443C101.464 198.443 112.566 197.095 116.722 189.17L113.1 209.496C113.1 209.496 157.264 194.461 165.363 192.521C165.363 192.521 167.972 209.346 178.361 213.861L189.08 200.233C189.08 200.233 202.519 203.628 198.843 221.941C195.166 240.255 144.319 255.561 135.696 255.207C127.072 254.853 117.789 249.547 108.283 221.034L101.464 198.443Z" fill="#353642"/>
<path d="M119.549 153.163C122.362 157.742 125.19 162.311 128.109 166.821C129.909 169.6 133.187 173.563 129.7 176.468C128.565 177.338 127.195 177.845 125.767 177.923C123.526 178.122 121.174 177.583 119.811 175.658L113.021 164.406C111.667 162.162 109.519 160.51 107.003 159.778C104.486 159.046 101.786 159.289 99.4409 160.458" stroke="black" stroke-width="5.47" stroke-miterlimit="10"/>
<path d="M145.231 167.985C147.006 172.204 145.803 174.925 143.727 176.293C140.332 178.519 135.788 177.452 133.382 174.203L119.574 153.188" stroke="black" stroke-width="5.47" stroke-miterlimit="10"/>
<path d="M131.239 147.052C136.263 153.163 142.602 164.512 146.109 169.251C149.615 173.989 155.038 171.133 155.038 171.133C159.441 168.761 158.694 164.828 156.769 160.05C152.026 148.323 145.255 140.524 137.704 135.412C114.302 119.582 90.2949 131.261 83.1508 158.586L54.8996 236.908C53.8694 240.855 53.7579 244.985 54.5736 248.98C55.3894 252.976 57.1107 256.732 59.6045 259.959C62.0989 263.186 65.2999 265.797 68.9612 267.594C72.6224 269.39 76.6474 270.322 80.7258 270.32H162.022L209.43 391.929" stroke="black" stroke-width="5.47" stroke-miterlimit="10"/>
<path d="M160.266 154.672C166.086 152.654 165.819 143.371 157.56 140.238C148.437 136.775 132.238 131.877 128.169 130.655C128.144 130.635 128.113 130.624 128.082 130.621C127.795 130.533 127.597 130.461 127.441 130.427L127.213 130.354" stroke="black" stroke-width="5.47" stroke-miterlimit="10"/>
<path d="M246.255 247.486C241.163 241.365 227.224 237.898 218.125 236.22C216.596 235.933 215.202 235.156 214.152 234.008C213.102 232.859 212.454 231.401 212.305 229.852C212.199 228.807 212.32 227.752 212.659 226.757C213.201 225.231 214.241 223.931 215.61 223.066C216.979 222.201 218.6 221.82 220.211 221.985C235.731 223.556 251.736 228.44 263.575 238.96C263.575 238.96 320.965 282.755 327.818 287.019C330.645 288.735 333.284 286.708 331.368 284.011L330.766 282.983C327.393 277.194 323.401 271.789 318.86 266.862" stroke="black" stroke-width="5.47" stroke-miterlimit="10"/>
<path d="M247.318 181.565C175.14 182.166 113.099 209.491 113.099 209.491L119.292 174.775" stroke="black" stroke-width="5.47" stroke-miterlimit="10"/>
<path d="M359.42 370.506C359.42 370.506 351.558 368.726 349.468 375.022C347.378 381.317 345.195 391.332 360.225 391.924C375.255 392.516 366.428 389.562 365.56 384.698C364.692 379.833 359.42 370.506 359.42 370.506Z" fill="#353642"/>
<path d="M239.319 255.474C239.319 255.474 230.837 249.043 223.198 255.561C222.876 255.845 222.596 256.171 222.364 256.531" stroke="black" stroke-width="5.47" stroke-miterlimit="10"/>
<g opacity="0.77">
<path opacity="0.77" d="M133.353 174.178C135.778 177.433 140.318 178.495 143.699 176.264C145.75 174.906 146.953 172.2 145.221 168.019C145.537 168.48 145.823 168.887 146.104 169.261C149.606 174.018 155.033 171.152 155.033 171.152C159.437 168.78 158.695 164.847 156.769 160.065C154.885 155.328 152.413 150.848 149.412 146.727C151.376 144.889 153.709 143.032 156.168 143.847C158.821 144.729 159.563 148.056 159.864 150.831C160.004 152.121 160.145 153.396 160.286 154.686L162.41 173.679C163.118 179.984 163.826 186.381 165.363 192.536C166.158 195.863 167.259 199.11 168.652 202.236C170.6 206.592 173.355 210.542 176.771 213.876C181.03 209.656 184.76 204.933 187.877 199.811C190.859 200.787 193.488 202.618 195.438 205.076C197.388 207.535 198.571 210.512 198.843 213.638V213.798C200.046 225.152 189.114 233.683 179.928 238.931C169.316 245.032 157.487 249.601 145.866 253.398C141.075 254.97 134.847 256.308 129.789 254.669C129.244 254.495 128.712 254.283 128.198 254.034C123.154 251.56 119.778 246.376 117.145 241.637C104.535 218.963 99.2968 192.929 96.5371 167.146C102.056 166.384 107.556 165.536 112.988 164.367C112.988 164.367 112.988 164.406 113.022 164.42L119.284 174.804L119.798 175.667C121.156 177.607 123.508 178.126 125.754 177.932C127.181 177.862 128.552 177.354 129.682 176.477C133.164 173.567 129.895 169.619 128.091 166.84" fill="white"/>
<path opacity="0.77" d="M133.353 174.178C135.778 177.433 140.318 178.495 143.699 176.264C145.75 174.906 146.953 172.2 145.221 168.019C145.537 168.48 145.823 168.887 146.104 169.261C149.606 174.018 155.033 171.152 155.033 171.152C159.437 168.78 158.695 164.847 156.769 160.065C154.885 155.328 152.413 150.848 149.412 146.727C151.376 144.889 153.709 143.032 156.168 143.847C158.821 144.729 159.563 148.056 159.864 150.831C160.004 152.121 160.145 153.396 160.286 154.686L162.41 173.679C163.118 179.984 163.826 186.381 165.363 192.536C166.158 195.863 167.259 199.11 168.652 202.236C170.6 206.592 173.355 210.542 176.771 213.876C181.03 209.656 184.76 204.933 187.877 199.811C190.859 200.787 193.488 202.618 195.438 205.076C197.388 207.535 198.571 210.512 198.843 213.638V213.798C200.046 225.152 189.114 233.683 179.928 238.931C169.316 245.032 157.487 249.601 145.866 253.398C141.075 254.97 134.847 256.308 129.789 254.669C129.244 254.495 128.712 254.283 128.198 254.034C123.154 251.56 119.778 246.376 117.145 241.637C104.535 218.963 99.2968 192.929 96.5371 167.146C102.056 166.384 107.556 165.536 112.988 164.367C112.988 164.367 112.988 164.406 113.022 164.42L119.284 174.804L119.798 175.667C121.156 177.607 123.508 178.126 125.754 177.932C127.181 177.862 128.552 177.354 129.682 176.477C133.164 173.567 129.895 169.619 128.091 166.84" fill="#FF8E3C"/>
<path opacity="0.77" d="M134.842 175.716C136.991 178.626 140.662 178.257 143.698 176.264C145.532 175.051 147.035 175.406 145.488 171.666C145.774 172.074 145.813 170.696 146.065 171.002C149.193 175.25 146.104 169.246 146.104 169.246C150.469 174.76 159.97 169.566 158.229 165.303C156.386 160.71 154.446 153.92 151.987 150.525C153.927 148.692 153.554 148.963 156.022 150.423C156.686 150.849 157.241 151.424 157.644 152.101C158.047 152.779 158.287 153.541 158.345 154.327C158.544 156.175 158.743 157.946 158.942 159.75L160.833 176.725C161.469 182.365 162.099 188.064 163.472 193.554C164.181 196.523 165.165 199.419 166.411 202.207C168.147 206.043 173.725 212.43 176.771 215.355C180.558 211.596 185.098 204.685 187.877 200.092C193.212 201.731 192.979 206.834 193.358 212.406V212.552C194.434 222.683 184.676 230.293 176.499 234.983C167.022 240.429 156.464 244.503 146.089 247.898C141.812 249.305 136.254 250.517 131.738 249.033C131.251 248.88 130.777 248.69 130.317 248.466C125.816 246.254 122.8 241.632 120.448 237.398C110.151 218.905 105.374 197.91 102.745 176.861C102.552 175.285 102.978 173.697 103.934 172.431C104.889 171.164 106.3 170.317 107.867 170.071C110.82 169.586 113.764 169.101 116.689 168.451L116.771 168.489L122.358 177.758C123.576 179.48 123.775 178.131 125.778 177.957C127.044 177.845 129.498 177.598 130.477 176.778C133.586 174.188 131.83 173.116 130.22 170.638" fill="#FF8E3C"/>
</g>
<path d="M238.297 264.835C238.297 264.835 222.19 259.538 221.947 268.443" stroke="black" stroke-width="5.47" stroke-miterlimit="10"/>
<path opacity="0.54" d="M94.1202 355.544L62.5321 274.617C62.1408 273.051 62.1117 271.417 62.4468 269.837C62.7819 268.258 63.4721 266.777 64.4658 265.504C65.4591 264.232 66.7298 263.203 68.1805 262.495C69.6316 261.788 71.2243 261.42 72.8384 261.42H198.308C201.125 261.42 203.861 262.368 206.074 264.111C208.287 265.856 209.848 268.294 210.506 271.033L245.086 351.941C245.46 353.501 245.475 355.127 245.131 356.694C244.786 358.262 244.091 359.731 243.097 360.991C242.104 362.251 240.837 363.27 239.393 363.971C237.949 364.671 236.365 365.035 234.76 365.036H106.289C103.493 365.038 100.776 364.104 98.5715 362.384C96.3662 360.664 94.7997 358.257 94.1202 355.544Z" fill="white"/>
<path d="M243.54 278.487C243.54 278.487 246.154 280.883 245.16 284.307C244.423 286.844 241.901 288.444 239.403 287.576C231.449 284.826 224.286 280.156 222.54 272.216C221.715 268.197 221.536 264.071 222.011 259.994C222.394 256.216 222.952 252.137 224.223 248.543C226.163 243.024 232.104 239.178 237.871 241.836" stroke="black" stroke-width="5.47" stroke-miterlimit="10"/>
<path d="M94.1202 355.544L62.5321 274.617C62.1408 273.051 62.1117 271.417 62.4468 269.837C62.7819 268.258 63.4721 266.777 64.4658 265.504C65.4591 264.232 66.7298 263.203 68.1805 262.495C69.6316 261.788 71.2243 261.42 72.8384 261.42H198.308C201.125 261.42 203.861 262.368 206.074 264.111C208.287 265.856 209.848 268.294 210.506 271.033L245.086 351.941C245.46 353.501 245.475 355.127 245.131 356.694C244.786 358.262 244.091 359.731 243.097 360.991C242.104 362.251 240.837 363.27 239.393 363.971C237.949 364.671 236.365 365.035 234.76 365.036H106.289C103.493 365.038 100.776 364.104 98.5715 362.384C96.3662 360.664 94.7997 358.257 94.1202 355.544Z" fill="#FF8E3C"/>
<path d="M94.1202 355.544L62.5321 274.617C62.1408 273.051 62.1117 271.417 62.4468 269.837C62.7819 268.258 63.4721 266.777 64.4658 265.504C65.4591 264.232 66.7298 263.203 68.1805 262.495C69.6316 261.788 71.2243 261.42 72.8384 261.42H198.308C201.125 261.42 203.861 262.368 206.074 264.111C208.287 265.856 209.848 268.294 210.506 271.033L245.086 351.941C245.46 353.501 245.475 355.127 245.131 356.694C244.786 358.262 244.091 359.731 243.097 360.991C242.104 362.251 240.837 363.27 239.393 363.971C237.949 364.671 236.365 365.035 234.76 365.036H106.289C103.493 365.038 100.776 364.104 98.5715 362.384C96.3662 360.664 94.7997 358.257 94.1202 355.544Z" stroke="black" stroke-width="5.47" stroke-linecap="square" stroke-linejoin="round"/>
<path d="M98.7433 352.285L69.5997 277.595C69.2398 276.15 69.2131 274.642 69.5225 273.186C69.8324 271.729 70.4697 270.362 71.3864 269.189C72.303 268.016 73.4753 267.067 74.8139 266.414C76.152 265.761 77.6216 265.422 79.1105 265.422H194.861C197.46 265.421 199.983 266.295 202.025 267.903C204.066 269.512 205.506 271.76 206.113 274.287L238.021 348.934C238.366 350.374 238.379 351.874 238.061 353.32C237.742 354.766 237.101 356.121 236.184 357.284C235.266 358.446 234.098 359.386 232.765 360.032C231.433 360.679 229.972 361.015 228.491 361.015H109.966C107.391 361.017 104.888 360.159 102.855 358.578C100.822 356.997 99.3753 354.782 98.7433 352.285Z" fill="#FF8E3C"/>
<path d="M346.467 340.567L368.661 391.924" stroke="black" stroke-width="5.47" stroke-miterlimit="10"/>
<path d="M451.75 391.924H15.25" stroke="black" stroke-width="5.47" stroke-miterlimit="10"/>
<path d="M245.319 160.133C241.72 163.688 236.346 163.683 233.286 160.395" stroke="black" stroke-width="5.47" stroke-miterlimit="10"/>
<path d="M149.411 146.713C151.375 144.875 153.708 143.017 156.167 143.832C158.82 144.715 159.562 148.042 159.863 150.816C160.713 158.44 161.562 166.057 162.409 173.664C163.486 183.364 164.621 193.297 168.651 202.211C170.6 206.568 173.355 210.518 176.77 213.851" stroke="black" stroke-width="5.47" stroke-miterlimit="10"/>
<path d="M198.842 213.793V213.633C198.571 210.507 197.387 207.53 195.438 205.071C193.488 202.614 190.859 200.782 187.877 199.806C184.76 204.928 181.03 209.651 176.77 213.871C165.602 224.976 151.256 232.33 135.72 234.915C136.467 237.888 138.004 240.594 139.066 243.456C140.128 246.317 140.657 249.63 139.367 252.39C137.737 255.911 133.062 255.45 129.812 254.669C129.778 254.669 129.759 254.669 129.725 254.669" stroke="black" stroke-width="5.47" stroke-miterlimit="10"/>
<path d="M112.998 164.362C107.566 165.531 102.066 166.38 96.5464 167.141C99.306 192.924 104.525 218.958 117.154 241.632C119.788 246.371 123.163 251.555 128.207 254.029C128.722 254.279 129.253 254.491 129.798 254.664C134.857 256.328 141.084 254.965 145.876 253.393C157.516 249.591 169.325 245.027 179.937 238.926C189.099 233.673 200.031 225.147 198.852 213.793C198.738 212.543 198.483 211.31 198.091 210.117" stroke="black" stroke-width="5.47" stroke-miterlimit="10"/>
<path d="M203.828 112.933C204.641 116.327 206.499 119.379 209.14 121.661C211.781 123.943 215.071 125.337 218.547 125.649C218.836 124.249 219.462 122.941 220.371 121.837C224.251 117.264 225.905 125.843 238.316 119.684C255.514 111.128 262.042 116.037 262.042 116.037C262.614 116.463 262.527 120.402 262.624 121.119C263.109 125.208 263.546 129.277 264.026 133.361C264.317 135.854 264.603 138.327 264.875 140.801C265.109 140.38 265.368 139.973 265.651 139.583C267.217 134.04 270.016 127.492 276.049 130.31C277.271 130.906 278.334 131.782 279.153 132.866C283.154 138.124 280.123 143.202 275.937 146.96C274.888 148.127 273.716 149.175 272.441 150.089C273.129 151.514 275.942 157.174 275.942 157.194C276.233 157.766 286.064 146.64 286.797 145.428C287.891 142.458 288.478 139.324 288.533 136.159C288.693 123.147 283.397 108 272.858 100.536C270.244 98.6882 271.078 96.9082 270.918 94.3959C270.907 94.2601 270.855 94.1311 270.769 94.0254C270.682 93.9197 270.567 93.8426 270.436 93.8042C270.305 93.7659 270.165 93.7684 270.036 93.8105C269.906 93.8532 269.793 93.9337 269.71 94.0419C266.407 97.8443 258.23 97.466 258.23 97.466C229.848 90.3559 220.308 102.976 214.58 105.226C212.243 106.112 209.67 106.154 207.305 105.347C207.166 106.131 206.815 106.86 206.291 107.459C205.768 108.057 205.09 108.501 204.332 108.742L204.478 110.057C204.601 111.062 204.371 112.079 203.828 112.933Z" fill="#FF8E3C"/>
<path d="M218.567 125.669C215.091 125.356 211.801 123.962 209.16 121.68C206.519 119.399 204.661 116.346 203.847 112.952C203.529 111.65 203.328 110.322 203.246 108.985L203.469 108.961C203.774 108.938 204.074 108.872 204.362 108.767C205.12 108.525 205.797 108.081 206.321 107.483C206.845 106.885 207.195 106.154 207.335 105.372C207.423 104.937 207.441 104.492 207.388 104.052L206.66 97.6309C206.66 97.6309 211.792 101.448 217.486 99.2169C223.18 96.9859 232.739 84.3662 261.136 91.4569C261.136 91.4569 267.547 91.8352 270.836 88.0328C270.919 87.9241 271.032 87.8436 271.162 87.8014C271.291 87.7587 271.43 87.7568 271.561 87.7951C271.692 87.8334 271.808 87.9105 271.894 88.0158C271.98 88.1215 272.032 88.251 272.043 88.3868C272.213 90.904 273.144 92.6839 275.763 94.5269C286.302 101.996 291.599 117.138 291.434 130.15C291.385 135.548 289.591 140.878 286.821 145.452C286.089 146.664 276.258 157.79 275.967 157.218C275.967 157.218 273.154 151.539 272.465 150.113L272.3 149.798L272.616 149.589C273.786 148.794 274.904 147.924 275.962 146.985C280.143 143.226 283.179 138.148 279.178 132.89C278.359 131.806 277.295 130.93 276.074 130.334C270.021 127.517 267.242 134.064 265.675 139.608C265.371 140.667 265.184 141.757 265.118 142.857C265.045 142.178 264.972 141.523 264.899 140.844C264.628 138.371 264.342 135.897 264.051 133.405C263.566 129.321 263.11 125.252 262.649 121.163C262.576 120.465 262.649 116.507 262.067 116.08C262.067 116.08 255.534 111.172 238.341 119.728C225.93 125.887 224.276 117.303 220.396 121.881C219.487 122.984 218.861 124.293 218.572 125.693C218.483 126.143 218.427 126.598 218.402 127.056C218.393 127.115 218.393 127.176 218.402 127.235C218.344 128.239 218.325 129.238 218.301 130.218C218.208 139.671 219.246 149.545 222.956 158.324C227.467 168.965 239.403 179.46 251.814 174.499C255.694 172.942 259.171 170.434 262.353 167.772" stroke="black" stroke-width="5.47" stroke-miterlimit="10"/>
<path d="M227.061 148.723C228.295 148.31 228.891 146.764 228.391 145.271C227.891 143.777 226.485 142.901 225.251 143.314C224.016 143.727 223.421 145.273 223.921 146.767C224.42 148.261 225.826 149.136 227.061 148.723Z" fill="black"/>
<path d="M245.526 148.133C246.761 147.72 247.357 146.175 246.857 144.681C246.357 143.187 244.951 142.311 243.717 142.724C242.482 143.137 241.886 144.683 242.386 146.176C242.886 147.67 244.292 148.546 245.526 148.133Z" fill="black"/>
<path d="M238.467 151.33C238.467 151.33 232.322 154.817 231.948 151.199C231.832 150.084 230.329 139.157 230.329 139.157C230.329 139.157 225.362 133.894 217.752 137.784" stroke="black" stroke-width="5.47" stroke-miterlimit="10"/>
<path d="M237.084 136.096C237.084 136.096 247.008 131.14 253.574 138.284" stroke="black" stroke-width="5.47" stroke-miterlimit="10"/>
<path d="M246.183 175.716L247.323 181.565C243.729 184.878 241.187 189.626 241.929 194.626C242.589 199.059 246.217 203.186 249.937 205.509C256.155 209.389 264.424 209.084 271.117 206.615C277.659 204.19 283.319 199.588 287.423 193.971C289.355 191.256 290.642 188.136 291.186 184.848V184.79" stroke="black" stroke-width="5.47" stroke-miterlimit="10"/>
<path d="M247.322 181.565L249.544 192.128" stroke="black" stroke-width="5.47" stroke-miterlimit="10"/>
<path d="M278.737 154.672L282.093 176.958C282.424 179.139 283.527 181.129 285.201 182.567C286.875 184.004 289.009 184.793 291.216 184.79C301.661 186.483 311.965 188.954 322.043 192.182C361.41 204.879 385.641 240.342 392.484 279.967C395.331 296.559 395.544 313.96 391.97 330.46C389.938 339.748 386.999 350.18 380.175 357.135C371.314 366.204 357.714 362.47 347.243 358.372C314.734 345.728 287.695 323.233 264.347 297.48C251.863 283.706 235.732 272.667 235.732 272.667" stroke="black" stroke-width="5.47" stroke-miterlimit="10"/>
<path d="M109.487 335.567C105.84 335.533 102.663 332.589 101.843 328.491C100.223 320.43 99.7964 307.966 111.616 305.245C126.384 301.85 137.743 317.932 143.311 328.098C145.183 331.493 143.063 335.858 139.576 335.858L109.487 335.567Z" fill="#FFE5D2"/>
<path d="M114.361 298.402C117.497 296.315 117.545 290.876 114.468 286.254C111.393 281.631 106.357 279.574 103.222 281.661C100.086 283.747 100.038 289.186 103.115 293.809C106.19 298.432 111.226 300.488 114.361 298.402Z" fill="#FFE5D2"/>
<path d="M357.064 370.773C356.836 370.807 356.579 370.841 356.356 370.894H356.268L321.77 370.715L270.006 370.448C269.807 370.448 269.613 370.448 269.419 370.448C269.035 370.439 268.652 370.41 268.27 370.361C271.778 369.954 275.028 368.322 277.451 365.754C279.874 363.186 281.313 359.845 281.515 356.32C281.526 356.138 281.526 355.955 281.515 355.772V355.491C281.501 352.042 280.299 348.703 278.113 346.036C275.925 343.37 272.886 341.537 269.507 340.849C269.153 340.761 268.765 340.708 268.391 340.655C268.978 340.601 269.56 340.563 270.128 340.563L313.86 340.795L321.911 340.829L332.77 340.883C336.489 341.222 339.946 342.936 342.468 345.689C344.989 348.443 346.392 352.039 346.404 355.772C346.404 356.477 346.351 357.181 346.243 357.877C345.727 361.432 343.951 364.682 341.24 367.038C338.529 369.394 335.062 370.699 331.47 370.715H357.748C356.234 370.715 356.656 370.715 357.064 370.773Z" fill="white"/>
<path d="M287.088 388.81C288.073 389.801 289.245 390.587 290.536 391.121C291.828 391.656 293.212 391.928 294.61 391.924H269.206C264.356 391.924 261.708 390.741 259.777 388.81C257.794 386.818 256.676 384.123 256.668 381.312C256.668 375.492 261.441 370.72 269.206 370.72H294.61C292.512 370.716 290.461 371.336 288.716 372.5C286.972 373.663 285.611 375.319 284.808 377.256C284.005 379.194 283.795 381.326 284.205 383.383C284.616 385.44 285.627 387.329 287.111 388.81H287.088Z" fill="#FFE5D2"/>
<path d="M370.987 356.039C370.981 358.279 370.46 360.488 369.465 362.494C368.754 364.011 367.778 365.389 366.584 366.563C364.615 368.515 362.141 369.88 359.44 370.506C358.326 370.763 357.187 370.894 356.045 370.894C356.277 370.841 356.53 370.807 356.753 370.773C356.345 370.734 355.923 370.72 357.441 370.72H331.159C334.754 370.706 338.223 369.402 340.936 367.045C343.65 364.687 345.426 361.434 345.942 357.877C346.049 357.181 346.103 356.477 346.102 355.772C346.091 352.038 344.687 348.442 342.164 345.689C339.642 342.935 336.183 341.221 332.464 340.883L346.65 340.955L356.127 341.009C360.088 341.042 363.874 342.642 366.658 345.458C369.443 348.275 370.999 352.078 370.987 356.039Z" fill="#FF8E3C"/>
<path d="M370.988 356.034C370.959 359.997 369.36 363.786 366.541 366.573C363.724 369.359 359.916 370.915 355.953 370.899L269.662 370.453C269.084 370.453 268.507 370.409 267.925 370.351C271.563 369.939 274.923 368.207 277.368 365.483C279.814 362.759 281.176 359.233 281.194 355.572C281.213 351.912 279.889 348.371 277.472 345.622C275.055 342.872 271.714 341.105 268.08 340.655C268.658 340.594 269.237 340.565 269.817 340.567L356.108 341.014C360.07 341.041 363.861 342.636 366.65 345.451C369.439 348.266 370.999 352.072 370.988 356.034Z" stroke="black" stroke-width="5.47" stroke-linecap="square" stroke-linejoin="round"/>
<path d="M346.093 355.767C346.085 359.729 344.508 363.527 341.707 366.328C338.905 369.13 335.107 370.707 331.145 370.715H269.749C269.169 370.712 268.589 370.679 268.013 370.618C271.648 370.186 274.998 368.436 277.429 365.7C279.86 362.963 281.203 359.43 281.203 355.77C281.203 352.109 279.86 348.576 277.429 345.839C274.998 343.103 271.648 341.353 268.013 340.921C268.59 340.868 269.172 340.829 269.749 340.829H331.145C335.105 340.838 338.9 342.415 341.702 345.214C344.503 348.013 346.081 351.807 346.093 355.767Z" stroke="black" stroke-width="5.47" stroke-linecap="square" stroke-linejoin="round"/>
<path d="M256.668 381.317C256.668 382.708 256.942 384.085 257.475 385.371C258.007 386.656 258.788 387.823 259.772 388.805C261.712 390.745 264.346 391.924 269.2 391.924H357.436C355.918 391.924 356.331 391.895 356.743 391.856C354.161 391.553 351.781 390.311 350.053 388.369C348.326 386.426 347.372 383.917 347.372 381.317C347.372 378.717 348.326 376.209 350.053 374.266C351.781 372.323 354.161 371.082 356.743 370.778C356.331 370.739 355.918 370.71 357.436 370.71H269.2C261.431 370.715 256.668 375.487 256.668 381.317Z" stroke="black" stroke-width="5.47" stroke-linecap="square" stroke-linejoin="round"/>
<path d="M283.974 381.317C283.981 384.128 285.1 386.822 287.088 388.81C289.076 390.798 291.77 391.918 294.581 391.924H355.512C355.919 391.924 356.331 391.895 356.743 391.856C354.162 391.553 351.781 390.311 350.054 388.369C348.326 386.426 347.372 383.917 347.372 381.317C347.372 378.717 348.326 376.209 350.054 374.266C351.781 372.323 354.162 371.082 356.743 370.778C356.331 370.739 355.919 370.71 355.512 370.71H294.581C291.77 370.718 289.077 371.838 287.089 373.825C285.102 375.813 283.982 378.507 283.974 381.317Z" stroke="black" stroke-width="5.47" stroke-linecap="square" stroke-linejoin="round"/>
<path d="M185.203 300.39H157.985C156.74 300.388 155.522 300.023 154.481 299.341C153.438 298.66 152.617 297.69 152.117 296.549C151.924 296.124 151.841 295.658 151.877 295.193C151.913 294.728 152.065 294.279 152.32 293.889C152.576 293.499 152.926 293.18 153.338 292.961C153.751 292.743 154.211 292.632 154.678 292.64H183.613C182.25 294.934 182.943 298.12 185.203 300.39Z" fill="#FFE5D2"/>
<path d="M202.804 297.587C202.802 298.329 202.508 299.04 201.983 299.564C201.458 300.089 200.747 300.384 200.005 300.385H185.203C182.943 298.12 182.25 294.934 183.612 292.625H196.683C197.927 292.626 199.144 292.987 200.186 293.665C201.229 294.343 202.053 295.31 202.557 296.447C202.713 296.807 202.797 297.194 202.804 297.587Z" fill="#FF8E3C"/>
<path d="M195.994 300.39C195.918 300.538 195.829 300.679 195.728 300.812C193.788 303.465 189.573 303.722 186.299 301.326C185.912 301.04 185.546 300.728 185.203 300.39C182.943 298.125 182.25 294.939 183.612 292.63C183.689 292.482 183.778 292.341 183.879 292.208C185.819 289.536 190.014 289.298 193.288 291.675C193.682 291.969 194.053 292.294 194.399 292.645C196.639 294.9 197.338 298.067 195.994 300.39Z" fill="white"/>
<path d="M209.647 314.673C209.642 315.416 209.344 316.126 208.816 316.65C208.289 317.173 207.577 317.467 206.834 317.467H178.273C179.65 315.149 178.961 311.986 176.696 309.707H203.526C204.772 309.707 205.991 310.07 207.034 310.751C208.077 311.432 208.899 312.402 209.4 313.543C209.559 313.899 209.644 314.283 209.647 314.673Z" fill="#FF8E3C"/>
<path d="M178.273 317.467H164.834C163.59 317.468 162.372 317.107 161.329 316.428C160.287 315.75 159.464 314.783 158.961 313.645C158.802 313.289 158.718 312.905 158.713 312.515C158.712 312.148 158.785 311.785 158.925 311.445C159.065 311.106 159.271 310.798 159.53 310.538C159.79 310.279 160.098 310.073 160.437 309.933C160.776 309.793 161.14 309.721 161.507 309.721H176.697C178.962 311.986 179.665 315.149 178.273 317.467Z" fill="#FFE5D2"/>
<path d="M178.274 317.467C178.211 317.619 178.128 317.763 178.027 317.894C176.087 320.561 171.887 320.804 168.618 318.422C168.222 318.127 167.849 317.803 167.502 317.452C165.257 315.187 164.568 312.025 165.911 309.692C165.989 309.543 166.078 309.4 166.178 309.265C168.118 306.613 172.333 306.356 175.602 308.756C175.991 309.039 176.357 309.352 176.698 309.692C178.963 311.986 179.666 315.149 178.274 317.467Z" fill="white"/>
<path d="M187.789 334.427H170.688C169.444 334.426 168.228 334.064 167.185 333.386C166.143 332.708 165.319 331.742 164.814 330.605C164.622 330.18 164.54 329.712 164.576 329.247C164.612 328.78 164.765 328.331 165.02 327.94C165.276 327.549 165.627 327.228 166.039 327.009C166.451 326.789 166.912 326.677 167.38 326.682H186.198C184.85 329.005 185.543 332.162 187.789 334.427Z" fill="#FF8E3C"/>
<path d="M215.501 331.653C215.498 332.391 215.202 333.097 214.678 333.617C214.154 334.137 213.446 334.428 212.708 334.427H187.789C185.543 332.162 184.849 329 186.198 326.667H209.381C210.627 326.667 211.845 327.031 212.888 327.712C213.931 328.393 214.753 329.363 215.254 330.504C215.414 330.866 215.498 331.257 215.501 331.653Z" fill="#FFE5D2"/>
<path d="M198.581 334.427C198.503 334.576 198.414 334.719 198.314 334.854C196.374 337.522 192.179 337.764 188.905 335.383C188.512 335.086 188.141 334.762 187.794 334.413C185.549 332.148 184.855 328.986 186.204 326.653C186.278 326.503 186.365 326.36 186.466 326.226C188.406 323.573 192.62 323.345 195.894 325.717C196.283 325.999 196.65 326.312 196.99 326.653C199.25 328.947 199.939 332.128 198.581 334.427Z" fill="white"/>
<path d="M69.3804 179.804L69.8072 179.926L69.6471 180.547C69.5458 180.304 69.457 180.056 69.3804 179.804Z" fill="#353642"/>
<path d="M145.281 218.606C151.665 216.732 155.02 209.01 152.774 201.359C150.528 193.708 143.532 189.024 137.147 190.898C130.763 192.773 127.408 200.495 129.654 208.146C131.9 215.797 138.897 220.48 145.281 218.606Z" fill="#FFE5D2"/>
</svg>
