<svg width="415" height="415" viewBox="0 0 415 415" fill="none" xmlns="http://www.w3.org/2000/svg">
<path d="M266.869 199.74C238.994 216.34 204.989 196.781 206.586 196.44C259.283 184.982 263.939 151.737 263.939 151.737C253.419 126.031 224.743 134.307 224.743 134.307C223.913 170.785 180.495 172.839 180.495 172.839C177.707 161.003 177.86 133.369 177.86 133.369C164.7 124.168 162.036 128.073 162.036 128.073C166.186 91.5532 182.898 79.7797 182.898 79.7797C185.683 77.1859 198.129 71.3552 204.52 70.5999L204.748 71.6125C204.748 71.6125 198.286 87.7477 210.67 88.8101C221.091 89.7231 227.013 76.8954 228.627 72.8243C242.177 77.0241 255.108 86.4238 263.711 102.235C284.063 139.643 266.869 199.74 266.869 199.74Z" fill="#2E2E2E"/>
<path d="M269.883 183.999L337.615 228.819C350.75 237.509 349.061 257.288 334.656 263.625L255.391 298.509C248.019 301.753 239.937 303.045 231.922 302.261C223.906 301.476 216.228 298.642 209.625 294.032L179.185 272.75" stroke="black" stroke-width="4.21" stroke-miterlimit="10"/>
<path d="M269.883 198.453L267.605 196.942L337.628 243.265C350.762 251.955 349.073 271.734 334.669 278.071L255.404 312.956C248.032 316.199 239.949 317.491 231.934 316.706C223.919 315.922 216.241 313.088 209.637 308.478L170.935 280.913" stroke="black" stroke-width="4.21" stroke-miterlimit="10"/>
<path d="M328.825 261.151L255.972 293.218C249.197 296.198 241.769 297.385 234.403 296.664C227.037 295.943 219.98 293.339 213.912 289.101L185.995 269.489C189.838 266.543 194.145 264.257 198.739 262.724C210.247 258.815 221.478 254.133 232.354 248.71C240.611 244.625 247.863 238.768 253.594 231.556C259.324 224.344 263.391 215.955 265.504 206.99C266.965 200.785 268.248 194.511 269.298 188.203L333.415 230.586C345.483 238.571 342.059 255.333 328.825 261.151Z" fill="#FF8E3C"/>
<path d="M141.101 354.086C141.101 354.086 153.874 348.791 156.323 344.799C156.323 344.799 156.783 353.862 154.393 356.958C152.003 360.054 137.718 368.238 136.951 367.213C136.183 366.188 141.101 354.086 141.101 354.086Z" fill="#FF8E3C"/>
<path d="M101.78 375.683C101.78 375.683 104.104 378.837 112.35 375.683C120.596 372.529 138.536 360.913 138.536 360.913C138.536 360.913 133.531 374.351 131.718 375.828C129.904 377.306 95.6417 394.088 95.6417 394.088C95.6417 394.088 80.3241 396.267 86.0967 385.373L101.78 375.683Z" fill="#FF8E3C"/>
<path d="M151.089 200.105C132.207 207.454 112.225 224.723 117.972 272.543L119.57 284.968" stroke="black" stroke-width="4.21" stroke-miterlimit="10"/>
<path d="M151.06 168.876C154.148 164.469 156.936 159.704 158.646 154.575C160.356 149.446 160.443 143.889 160.92 138.494C162.19 124.027 164.157 112.062 169.739 98.5874C174.574 86.9259 189.178 71.9029 203.707 70.4795L205.014 70.3674" stroke="black" stroke-width="3" stroke-miterlimit="10"/>
<path d="M187.58 199.046C187.51 198.843 187.439 198.652 187.364 198.453" stroke="black" stroke-width="4.21" stroke-miterlimit="10"/>
<path d="M180.495 171.943C179.781 167.747 179.25 163.68 178.835 159.821C178.836 159.748 178.828 159.675 178.81 159.605C176.636 138.054 178.835 122.375 178.835 122.375" stroke="black" stroke-width="4.21" stroke-miterlimit="10"/>
<path d="M231.254 41.1429L227.934 42.4379C227.934 42.5416 227.934 43.8364 227.793 45.65C227.639 47.8158 227.294 49.9643 226.764 52.07C227.059 50.6341 227.486 47.2228 225.61 44.849C225.581 44.8005 225.548 44.7544 225.511 44.7121C224.266 43.2139 222.73 43.8074 221.498 44.8366C220.646 45.5566 219.903 46.3953 219.29 47.3266C219.505 44.5539 219.008 41.7726 217.846 39.2463C217.088 37.523 216.082 35.9194 214.862 34.4863C216.742 40.9603 214.331 45.1976 214.331 45.1976C207.96 46.6958 203.541 46.3762 200.245 45.8077C197.469 43.2181 198.432 33.8928 198.432 33.8928C195.639 36.1753 196.311 45.0067 196.311 45.0067C195.954 42.7022 195.998 40.3533 196.44 38.0636C195.053 40.0255 194.251 42.3412 194.128 44.7411L194.079 44.7162C193.886 44.6668 193.696 44.6071 193.51 44.5378C193.168 44.3577 192.837 44.1584 192.518 43.9402L190.68 42.6952C193.456 28.531 203.163 19.6251 218.161 22.2396C219.14 22.4084 220.103 22.6582 221.041 22.9866C230.922 28.1368 231.254 41.1429 231.254 41.1429Z" fill="#FF8E3C"/>
<path d="M145.665 179.089L141.884 167.71C141.801 167.445 141.651 167.206 141.449 167.015C141.247 166.824 141 166.687 140.73 166.618C140.697 166.618 140.66 166.618 140.623 166.593C140.585 166.569 140.577 166.593 140.552 166.593C140.465 166.588 140.378 166.588 140.291 166.593C139.871 166.595 139.468 166.755 139.162 167.042C138.855 167.325 138.61 167.669 138.442 168.052C138.274 168.435 138.187 168.848 138.187 169.266C138.187 169.593 138.239 169.918 138.34 170.229C139.17 172.632 140.647 176.968 141.349 178.944" fill="#FF8E3C"/>
<path d="M144.81 179.089L140.735 166.618C140.702 166.618 140.664 166.618 140.627 166.593C140.59 166.569 140.581 166.593 140.556 166.593L138.419 166.178C137.278 165.967 136.137 165.739 134.995 165.527C133.626 165.253 132.248 165.025 130.883 164.697C130.56 164.606 130.229 164.55 129.895 164.531C129.474 164.53 129.07 164.692 128.766 164.983C128.457 165.267 128.21 165.612 128.042 165.996C127.874 166.381 127.789 166.796 127.791 167.216C127.789 167.539 127.841 167.86 127.945 168.166C128.862 170.856 130.609 175.943 131.165 177.487L144.81 179.089Z" fill="#FF8E3C"/>
<path d="M225.387 122.371C224.972 126.99 224.756 132.58 224.611 139.606C224.611 154.546 208.094 166.917 193.415 169.747L166.499 175.827C162.942 176.516 159.792 174.296 157.318 172.823C154.774 171.308 152.168 169.503 150.334 168.162C147.694 166.232 142.611 167.785 143.652 172.387C143.877 173.262 144.301 174.073 144.89 174.758C145.48 175.442 146.219 175.982 147.051 176.333C147.52 176.544 148.002 176.721 148.496 176.865C148.679 176.911 148.843 177.016 148.96 177.165C149.078 177.313 149.143 177.496 149.146 177.685C149.149 177.874 149.089 178.059 148.976 178.211C148.863 178.363 148.702 178.473 148.521 178.525C146.188 179.33 141.918 179.807 135.029 177.28C126.202 174.03 125.517 194.174 137.585 197.681H137.631C148.749 201.043 160.713 200.611 172.205 200.13C185.254 199.635 198.239 198.051 211.023 195.394C217.526 194.017 224.208 192.585 230.159 189.643C240.41 184.575 247.797 178.765 254.823 169.723C262.708 159.584 266.073 146.283 267.974 133.813C270.148 119.545 267.144 107.497 259.495 95.2176L259.213 94.7694" stroke="black" stroke-width="4.21" stroke-miterlimit="10"/>
<path d="M145.665 179.089L141.884 167.71C141.801 167.445 141.651 167.206 141.449 167.015C141.247 166.824 141 166.687 140.73 166.618C140.697 166.618 140.66 166.618 140.623 166.593C140.585 166.569 140.577 166.593 140.552 166.593C140.465 166.588 140.378 166.588 140.291 166.593C139.871 166.595 139.468 166.755 139.162 167.042C138.855 167.325 138.61 167.669 138.442 168.052C138.274 168.435 138.187 168.848 138.187 169.266C138.187 169.593 138.239 169.918 138.34 170.229C139.17 172.632 140.647 176.968 141.349 178.944" stroke="black" stroke-width="4.21" stroke-miterlimit="10"/>
<path d="M140.735 166.618C140.702 166.618 140.664 166.618 140.627 166.593C140.59 166.569 140.581 166.593 140.556 166.593L138.419 166.178C137.278 165.967 136.137 165.739 134.995 165.527C133.626 165.253 132.248 165.025 130.883 164.697C130.56 164.606 130.229 164.55 129.895 164.531C129.474 164.53 129.07 164.692 128.766 164.983C128.457 165.267 128.21 165.612 128.042 165.996C127.874 166.381 127.789 166.796 127.791 167.216C127.789 167.539 127.841 167.86 127.945 168.166C128.862 170.855 130.609 175.943 131.165 177.487" stroke="black" stroke-width="4.21" stroke-miterlimit="10"/>
<path d="M192.839 44.3345C192.839 49.7295 193.889 54.8879 196.478 59.6521C198.553 63.4784 201.6 67.3338 205.957 68.5995C206.923 68.878 207.923 69.0178 208.928 69.0145C216.324 68.9813 217.477 60.2207 217.477 60.2207" stroke="black" stroke-width="2" stroke-miterlimit="10"/>
<path d="M227.544 47.4635V47.4884C227.202 50.1651 226.612 52.805 225.785 55.3734C224.796 58.4373 224.562 61.6951 225.104 64.8686L226.254 71.5542C226.306 71.8522 226.441 72.1294 226.644 72.354C226.846 72.5785 227.108 72.7416 227.399 72.8241C241.99 77.0613 254.943 86.4112 262.479 99.9112C271.879 116.768 273.593 137.07 272.833 155.994C272.165 172.399 269.513 188.709 265.749 204.674C263.448 214.431 259.021 223.56 252.784 231.409C246.547 239.258 238.654 245.633 229.669 250.079C217.845 255.983 205.634 261.078 193.12 265.33C186.495 267.524 180.443 271.166 175.403 275.993C170.363 280.819 166.462 286.708 163.983 293.231L134.576 371.425C133.495 374.312 131.363 376.683 128.608 378.065L100.43 392.221C96.8712 394.002 92.8121 394.517 88.9219 393.681C87.913 393.464 86.9934 392.947 86.282 392.199C85.5711 391.452 85.1018 390.507 84.935 389.489C84.7685 388.47 84.9125 387.425 85.3483 386.49C85.784 385.554 86.4912 384.772 87.3781 384.244L101.77 375.683L121.562 274.788C122.954 265.787 126.28 257.194 131.31 249.6C136.339 242.006 142.954 235.592 150.699 230.798C151.731 230.168 152.807 229.614 153.919 229.138L196.822 210.509" stroke="black" stroke-width="3" stroke-miterlimit="10"/>
<path d="M215.75 21.2648C213.456 20.7181 211.081 20.5972 208.744 20.9079C208.648 20.91 208.553 20.9183 208.458 20.9328" stroke="black" stroke-width="4.21" stroke-miterlimit="10"/>
<path d="M205.359 70.6123C205.359 70.6123 197.768 88.0132 211.343 88.8723C223.523 89.6525 227.993 73.1023 227.993 73.1023" stroke="black" stroke-width="4.21" stroke-miterlimit="10"/>
<path d="M226.59 52.705C226.677 52.3854 227.985 47.6669 225.486 44.6955C222.988 41.7241 219.602 46.8203 219.261 47.3307C219.925 40.0144 214.842 34.4659 214.842 34.4659C216.717 40.944 214.302 45.1769 214.302 45.1769C205.018 47.3515 199.91 45.6956 196.287 44.9818C195.93 42.6786 195.976 40.3312 196.42 38.0432C195.029 40.0001 194.226 42.3142 194.108 44.7121H194.05C192.671 44.3456 191.363 43.7493 190.182 42.9483L188.344 41.7033C191.124 27.5437 200.827 18.6295 215.825 21.244C230.823 23.8585 231.242 41.1059 231.242 41.1059L227.902 42.4047C227.902 42.4047 227.931 48.0985 226.59 52.705Z" stroke="black" stroke-width="4.21" stroke-miterlimit="10"/>
<path d="M198.657 51.9663V58.8512C198.658 58.935 198.678 59.0176 198.716 59.0919C198.755 59.1666 198.81 59.2309 198.878 59.2803C198.946 59.3297 199.024 59.362 199.107 59.3757C199.19 59.389 199.274 59.3828 199.354 59.3575C199.896 59.1782 200.394 58.8869 200.815 58.5026" stroke="black" stroke-width="2" stroke-miterlimit="10"/>
<path d="M194.539 57.1929C196.71 56.3463 197.516 53.2122 196.339 50.1926C195.162 47.1731 192.447 45.4118 190.275 46.2584C188.104 47.105 187.297 50.2391 188.475 53.2587C189.652 56.2782 192.367 58.0395 194.539 57.1929Z" stroke="black" stroke-width="2" stroke-miterlimit="10"/>
<path d="M207.608 59.1616C209.78 58.315 210.586 55.1809 209.409 52.1614C208.231 49.1418 205.516 47.3806 203.345 48.2272C201.173 49.0738 200.367 52.2083 201.544 55.2274C202.721 58.247 205.436 60.0086 207.608 59.1616Z" stroke="black" stroke-width="2" stroke-miterlimit="10"/>
<path d="M196.83 52.3232C196.83 52.3232 198.117 50.8541 200.814 52.5763" stroke="black" stroke-width="2" stroke-miterlimit="10"/>
<path d="M204.749 68.1637C204.749 68.1637 205.683 71.326 208.43 81.5765" stroke="black" stroke-width="2" stroke-miterlimit="10"/>
<path d="M135.966 367.731L152.151 358.995C153.078 358.493 153.869 357.771 154.454 356.893C155.039 356.015 155.401 355.007 155.508 353.957C158.197 327.542 157.376 310.843 157.376 310.843" stroke="black" stroke-width="4.21" stroke-miterlimit="10"/>
<path d="M121.276 232.267L58.9883 188.738" stroke="black" stroke-width="4.21" stroke-miterlimit="10"/>
<path d="M117.748 244.261L58.9883 203.192" stroke="black" stroke-width="4.21" stroke-miterlimit="10"/>
<path d="M356.012 161.522V197.158C356.012 198.792 355.537 200.391 354.646 201.761C353.754 203.13 352.485 204.212 350.991 204.873L306.793 224.444L293.281 244.979C292.933 245.488 292.432 245.873 291.851 246.079C291.27 246.285 290.638 246.3 290.047 246.123C289.457 245.946 288.938 245.586 288.566 245.094C288.194 244.603 287.987 244.006 287.977 243.389V232.782L283.445 234.786C282.437 235.227 281.335 235.41 280.239 235.32C279.143 235.229 278.086 234.868 277.164 234.268C276.242 233.668 275.483 232.849 274.956 231.883C274.429 230.917 274.15 229.836 274.145 228.736V198.976C274.145 195.264 275.231 191.633 277.269 188.531C279.306 185.428 282.206 182.988 285.611 181.513L346.351 155.181C347.402 154.724 348.551 154.536 349.693 154.635C350.835 154.733 351.936 155.113 352.894 155.742C353.852 156.372 354.639 157.229 355.183 158.238C355.728 159.247 356.012 160.375 356.012 161.522Z" fill="#FFE5D2"/>
<path d="M301.795 208.1C303.972 203.9 303.383 199.275 300.479 197.77C297.575 196.265 293.456 198.449 291.279 202.649C289.102 206.849 289.691 211.474 292.595 212.979C295.499 214.484 299.618 212.3 301.795 208.1Z" fill="white"/>
<path d="M320.671 200.021C322.848 195.821 322.258 191.196 319.355 189.691C316.451 188.185 312.332 190.37 310.155 194.57C307.978 198.77 308.567 203.395 311.471 204.9C314.375 206.405 318.494 204.221 320.671 200.021Z" fill="white"/>
<path d="M338.911 191.296C341.088 187.097 340.499 182.471 337.596 180.967C334.692 179.461 330.573 181.646 328.396 185.846C326.219 190.046 326.808 194.671 329.712 196.176C332.616 197.681 336.734 195.496 338.911 191.296Z" fill="white"/>
</svg>
