<svg width="53" height="54" viewBox="0 0 53 54" fill="none" xmlns="http://www.w3.org/2000/svg">
<rect width="53" height="54" rx="26.5" fill="#FF8E3C"/>
<g clip-path="url(#clip0_143_185)">
<path d="M13.8641 32.8828C15.7889 32.8828 17.3493 31.33 17.3493 29.4144C17.3493 27.4987 15.7889 25.9459 13.8641 25.9459C11.9393 25.9459 10.3789 27.4987 10.3789 29.4144C10.3789 31.33 11.9393 32.8828 13.8641 32.8828Z" fill="#F9CDB7"/>
<path d="M16.5769 27.2972C15.9073 26.8633 15.1083 26.6717 14.3136 26.7543C13.5188 26.8369 12.7768 27.1888 12.2118 27.7511C11.6468 28.3134 11.2932 29.0518 11.2102 29.8428C11.1271 30.6336 11.3197 31.4289 11.7557 32.0953C11.3203 31.8138 10.9536 31.4391 10.6824 30.9986C10.4112 30.5581 10.2423 30.0628 10.188 29.549C10.1338 29.0351 10.1956 28.5157 10.3689 28.0286C10.5422 27.5416 10.8226 27.0993 11.1897 26.7339C11.5568 26.3686 12.0013 26.0895 12.4907 25.9171C12.9801 25.7446 13.502 25.6831 14.0183 25.737C14.5346 25.7911 15.0323 25.9591 15.475 26.229C15.9177 26.499 16.2941 26.8639 16.5769 27.2972Z" fill="#E2A78D"/>
<path d="M13.8639 33.14C13.0996 33.1402 12.3525 32.9148 11.7169 32.4923C11.0814 32.0699 10.586 31.4694 10.2934 30.7667C10.0008 30.064 9.92417 29.2909 10.0732 28.5449C10.2222 27.7988 10.5901 27.1136 11.1305 26.5757C11.6708 26.0378 12.3593 25.6715 13.1089 25.5231C13.8585 25.3746 14.6354 25.4507 15.3416 25.7417C16.0477 26.0328 16.6512 26.5256 17.0758 27.158C17.5004 27.7905 17.7271 28.5339 17.7271 29.2945C17.7249 30.3136 17.3172 31.2903 16.5932 32.011C15.8692 32.7316 14.8879 33.1376 13.8639 33.14ZM13.8639 26.2039C13.2494 26.2038 12.6487 26.385 12.1378 26.7246C11.6268 27.0643 11.2285 27.547 10.9933 28.1119C10.7581 28.6768 10.6965 29.2986 10.8163 29.8982C10.9362 30.498 11.232 31.049 11.6665 31.4813C12.101 31.9137 12.6546 32.2082 13.2572 32.3275C13.8599 32.4467 14.4845 32.3854 15.0522 32.1513C15.6199 31.9172 16.105 31.5209 16.4463 31.0123C16.7875 30.5039 16.9696 29.906 16.9694 29.2945C16.969 28.4748 16.6417 27.6887 16.0595 27.1087C15.4773 26.5288 14.6876 26.2025 13.8639 26.2014V26.2039Z" fill="#213346"/>
<path d="M39.078 32.8828C41.0028 32.8828 42.5632 31.33 42.5632 29.4144C42.5632 27.4987 41.0028 25.9459 39.078 25.9459C37.1531 25.9459 35.5928 27.4987 35.5928 29.4144C35.5928 31.33 37.1531 32.8828 39.078 32.8828Z" fill="#F9CDB7"/>
<path d="M39.0787 33.14C38.3144 33.1402 37.5673 32.9148 36.9317 32.4923C36.2962 32.0699 35.8008 31.4694 35.5082 30.7667C35.2156 30.064 35.139 29.2909 35.288 28.5449C35.437 27.7988 35.8049 27.1136 36.3453 26.5757C36.8857 26.0378 37.5742 25.6715 38.3238 25.5231C39.0733 25.3746 39.8503 25.4507 40.5564 25.7417C41.2625 26.0328 41.8661 26.5256 42.2907 27.158C42.7153 27.7905 42.9419 28.5339 42.9419 29.2945C42.9397 30.3136 42.532 31.2903 41.808 32.011C41.084 32.7316 40.1027 33.1376 39.0787 33.14ZM39.0787 26.2039C38.4643 26.2038 37.8635 26.385 37.3526 26.7246C36.8416 27.0643 36.4434 27.547 36.2082 28.1119C35.9729 28.6768 35.9113 29.2986 36.0311 29.8982C36.151 30.498 36.4468 31.049 36.8814 31.4813C37.3158 31.9137 37.8694 32.2082 38.472 32.3275C39.0747 32.4467 39.6993 32.3854 40.267 32.1513C40.8346 31.9172 41.3198 31.5209 41.6611 31.0123C42.0023 30.5039 42.1844 29.906 42.1843 29.2945C42.1839 28.4748 41.8565 27.6887 41.2743 27.1087C40.6921 26.5288 39.9025 26.2025 39.0787 26.2014V26.2039Z" fill="#213346"/>
<path d="M26.1273 11.4379H26.3621C29.6241 11.4379 32.7524 12.7275 35.059 15.023C37.3655 17.3184 38.6614 20.4317 38.6614 23.678V31.637C38.662 33.2599 38.3413 34.8669 37.7177 36.3665C37.0941 37.8661 36.1799 39.2286 35.0272 40.3765C33.8744 41.5244 32.5058 42.4351 30.9994 43.0566C29.493 43.6781 27.8784 43.9982 26.2477 43.9986C22.9545 43.9986 19.7961 42.6967 17.4675 40.3792C15.1388 38.0618 13.8306 34.9185 13.8306 31.6412V23.6822C13.8306 20.4359 15.1264 17.3226 17.4329 15.0272C19.7395 12.7317 22.8679 11.4421 26.1298 11.4421L26.1273 11.4379Z" fill="#F9CDB7"/>
<path d="M27.8219 43.7498C27.256 43.8282 26.6853 43.8677 26.1139 43.8679C19.2832 43.8679 13.6968 38.3075 13.6968 31.5105V23.3839C13.6968 16.7403 19.1578 11.3047 25.8335 11.3047H26.3934C26.8717 11.3041 27.3496 11.3321 27.8245 11.3885C22.3971 12.0319 17.6963 16.9522 16.8335 22.4364C16.5678 24.1855 16.193 25.9163 15.7113 27.619L14.5874 31.5105C14.5874 37.7311 21.7919 42.9153 27.8219 43.7498Z" fill="#E2A78D"/>
<path d="M26.1138 44.3756C22.723 44.3661 19.4739 43.0214 17.0763 40.6353C14.6786 38.2492 13.3274 35.0156 13.3179 31.6412V23.678C13.3268 20.3346 14.6652 17.1307 17.0407 14.7664C19.4162 12.4022 22.6355 11.0699 25.9951 11.0609H26.2299C29.5898 11.0695 32.8096 12.4015 35.1854 14.7658C37.5613 17.1301 38.9 20.3343 38.9088 23.678V31.6412C38.8988 35.0155 37.5475 38.2487 35.15 40.6348C32.7524 43.0208 29.5036 44.3656 26.1129 44.3756H26.1138ZM25.9951 11.8149C22.8363 11.8237 19.8095 13.0764 17.5759 15.2993C15.3423 17.5222 14.0836 20.5344 14.0747 23.678V31.6412C14.0713 34.011 14.7752 36.3286 16.097 38.2998C17.4188 40.2711 19.2991 41.8073 21.4994 42.7137C23.6996 43.6201 26.1208 43.8559 28.4559 43.3911C30.791 42.9262 32.9348 41.7818 34.6155 40.1028C35.7376 38.9951 36.628 37.6769 37.2349 36.2244C37.8418 34.772 38.1532 33.2142 38.1512 31.6412V23.678C38.1423 20.5344 36.8835 17.5222 34.65 15.2993C32.4164 13.0764 29.3895 11.8237 26.2308 11.8149H25.9951Z" fill="#213346"/>
<path d="M37.3972 29.5744V29.5906C37.3496 29.5931 37.3686 29.5821 37.3972 29.5744Z" fill="#BFE1EE"/>
<path d="M41.0157 29.6037C40.9574 29.6037 40.9009 29.5835 40.8558 29.5467C40.8107 29.5099 40.7798 29.4587 40.7682 29.4018C40.4265 27.7011 38.7032 27.9868 38.63 28.0002C38.5966 28.0073 38.5622 28.0077 38.5287 28.0012C38.4952 27.9947 38.4634 27.9816 38.4351 27.9625C38.4069 27.9435 38.3828 27.919 38.3644 27.8904C38.3459 27.8618 38.3335 27.8298 38.3278 27.7964C38.322 27.7629 38.3233 27.7286 38.3312 27.6956C38.3392 27.6626 38.3539 27.6315 38.3742 27.6043C38.3946 27.5771 38.4203 27.5543 38.4498 27.5372C38.4793 27.5201 38.512 27.5092 38.5458 27.505C39.3338 27.3651 40.9172 27.5603 41.2675 29.3029C41.2806 29.3683 41.2671 29.4361 41.2301 29.4915C41.193 29.547 41.1353 29.5855 41.0696 29.5987C41.0519 29.6023 41.0338 29.6039 41.0157 29.6037Z" fill="#213346"/>
<path d="M11.7903 29.8257C11.78 29.8265 11.7695 29.8265 11.7592 29.8257C11.6928 29.8175 11.6323 29.7835 11.5912 29.731C11.55 29.6786 11.5314 29.612 11.5394 29.5459C11.6868 28.3537 12.1952 27.7647 12.596 27.4807C12.8566 27.2879 13.1657 27.1705 13.4891 27.1414C13.5561 27.1387 13.6214 27.1627 13.6707 27.2079C13.7199 27.2532 13.7491 27.316 13.7518 27.3827C13.7545 27.4494 13.7304 27.5143 13.685 27.5633C13.6395 27.6124 13.5763 27.6414 13.5093 27.6441C13.4546 27.6441 12.2718 27.7346 12.0403 29.607C12.0324 29.6674 12.0026 29.7229 11.9566 29.7631C11.9107 29.8034 11.8516 29.8256 11.7903 29.8257Z" fill="#213346"/>
<path d="M25.5439 50.2435C33.9001 50.2435 40.6742 48.2608 40.6742 45.8149C40.6742 43.3691 33.9001 41.3864 25.5439 41.3864C17.1877 41.3864 10.4136 43.3691 10.4136 45.8149C10.4136 48.2608 17.1877 50.2435 25.5439 50.2435Z" fill="#DFE7EA"/>
<path d="M38.2639 33.6C40.0444 36.8338 39.4778 39.9856 39.5401 42.9932L38.5762 41.9318C38.2144 43.8072 37.3389 45.5468 36.0465 46.9585C35.7637 46.4439 35.3621 46.0037 34.8747 45.6742C34.5186 47.2575 33.6741 48.6904 32.4594 49.7726C32.6308 49.3601 32.7115 48.916 32.6961 48.4699C32.6807 48.0238 32.5696 47.5862 32.3702 47.1864C32.1561 47.8464 31.8046 48.4541 31.3385 48.9698C30.8724 49.4854 30.3023 49.8975 29.6654 50.1789C29.8659 49.8985 29.9914 49.5718 30.0302 49.2297C30.0689 48.8877 30.0195 48.5414 29.8868 48.2235C28.9052 49.8815 26.0834 49.9318 25.0437 48.3073C24.9713 48.6349 25.0243 49.0655 25.3602 49.0932C23.9459 49.3102 22.6512 48.717 21.678 47.6731C21.7377 48.2652 22.0193 48.8132 22.4668 49.2079C21.7115 49.1604 20.9821 48.9163 20.3514 48.5001C19.7207 48.0838 19.2109 47.5101 18.873 46.8362C17.0479 46.9493 15.2253 45.7043 14.6748 43.9701C14.7128 44.1163 14.7119 44.2699 14.672 44.4156C14.6322 44.5614 14.5548 44.6943 14.4475 44.8012C11.2948 43.2086 11.4632 36.0664 13.5282 33.7105C13.5282 33.7105 17.8746 34.4042 20.5155 36.3965C21.2336 36.9394 21.2546 36.1753 22.2833 35.7497C23.6707 35.1775 26.1448 34.7754 27.5507 34.7695C29.6056 34.7603 30.7042 37.3541 32.0208 36.1234C35.5077 32.8686 38.2336 33.5455 38.2639 33.6Z" fill="#B46078"/>
<path d="M39.6621 42.6221L38.6981 41.5581C38.337 43.433 37.4631 45.1724 36.1726 46.5848C35.8896 46.0702 35.4881 45.6298 35.0008 45.2997C34.6447 46.883 33.8003 48.316 32.5856 49.3981C32.7561 48.9852 32.8361 48.5408 32.82 48.0945C32.8039 47.6483 32.6921 47.2107 32.4921 46.8111C32.2787 47.4719 31.9274 48.0805 31.4613 48.597C30.9952 49.1134 30.4248 49.526 29.7873 49.8078C29.9877 49.5274 30.1131 49.2009 30.1518 48.859C30.1906 48.5171 30.1413 48.171 30.0086 47.8533C29.0271 49.5112 26.2052 49.5615 25.1656 47.937C25.0923 48.2646 25.1748 49.471 25.5116 49.4995C24.0973 49.7157 22.7731 48.3467 21.7999 47.3028C21.8563 47.8893 22.0029 48.9441 22.4465 49.3328C20.9396 49.2566 19.6498 47.8147 18.9949 46.4625C17.1698 46.5756 15.3473 45.3315 14.7967 43.5965C14.8347 43.7428 14.8338 43.8966 14.7939 44.0424C14.7541 44.1883 14.6767 44.3213 14.5694 44.4284C13.4801 43.8788 12.7611 42.6816 12.373 41.254C13.7671 42.2652 15.4079 42.9572 17.0301 43.5822C18.1312 44.0011 19.2466 44.4058 20.4075 44.616C21.5339 44.8196 22.6847 44.8397 23.8296 44.8598C27.0058 44.9143 30.3118 44.9436 33.1858 43.5847C34.0091 43.1952 34.8771 42.5291 34.8484 41.6218C34.8155 40.5846 33.6758 39.9931 32.7034 39.622C34.7744 39.3162 36.4731 37.7177 37.4177 35.8586C37.7709 35.1521 38.05 34.4112 38.2502 33.6477L38.529 33.8639C39.38 36.8338 39.5998 39.6128 39.6621 42.6221Z" fill="#96426E"/>
<path d="M31.5821 50.9254L32.232 49.3889C32.4098 48.9634 32.4765 48.4999 32.4256 48.0418C31.8616 49.0386 30.9895 49.8278 29.9388 50.2921L28.6575 50.8492L29.4808 49.7249C29.6644 49.4676 29.7693 49.163 29.7831 48.8477C29.2241 49.3395 28.4605 49.626 27.6162 49.6411C26.9659 49.6604 26.3235 49.495 25.7641 49.1644C25.8551 49.6243 25.8609 50.0332 25.5023 50.1974L25.3441 50.2703L25.1858 50.1974C24.0249 49.6645 23.114 49.115 22.3496 48.4791C22.4793 49.0069 22.6258 49.1962 22.7007 49.2616L23.5181 49.9762L22.4313 49.9209C20.8209 49.8371 19.4849 48.3375 18.7693 46.9887H18.7651C17.201 46.9887 15.6932 46.1148 14.8775 44.7995L14.8388 44.8397L14.6443 45.0282L14.4018 44.9059C13.1989 44.2977 12.3318 42.9204 11.9622 41.0236C11.4209 38.248 12.0363 34.8868 13.3647 33.3721C13.4318 33.3008 13.524 33.2582 13.622 33.2533C13.72 33.2483 13.8161 33.2814 13.8901 33.3456C13.9641 33.4098 14.0101 33.5 14.0186 33.5973C14.0271 33.6945 13.9973 33.7913 13.9355 33.8672C12.7443 35.2269 12.2038 38.3075 12.7055 40.8803C12.996 42.3666 13.6046 43.4775 14.4355 44.0514C14.4512 43.9805 14.4494 43.9069 14.4305 43.8369L15.1578 43.6274C15.6537 45.1891 17.3281 46.3327 18.9714 46.2305L19.2239 46.2145L19.3342 46.4433C19.9925 47.8013 20.8975 48.6257 21.6981 48.9759C21.5535 48.4887 21.4613 47.9877 21.4228 47.4813L21.3159 46.372L22.0777 47.1889C22.8354 48.0007 23.7521 48.6575 25.0099 49.2834C24.9804 49.146 24.9442 49.0002 24.9181 48.8963C24.8087 48.4632 24.7497 48.2076 24.7952 48.0007L24.9913 47.1093L25.4846 47.8784C25.8929 48.5151 26.6632 48.8913 27.5463 48.8913H27.6019C28.511 48.8745 29.2855 48.4724 29.682 47.8021L30.0617 47.1604L30.3564 47.844C30.5234 48.2357 30.5815 48.6648 30.5247 49.0865C31.282 48.5209 31.8438 47.7351 32.1326 46.8379L32.413 45.9531L32.8339 46.7817C33.0762 47.2649 33.2024 47.7975 33.2026 48.3375C33.8979 47.4638 34.3856 46.4452 34.6295 45.3575L34.7499 44.8146L35.2121 45.1271C35.6007 45.3897 35.941 45.7171 36.2181 46.0947C37.2829 44.8038 38.0085 43.2695 38.3294 41.6302L38.4717 40.8854L39.3531 41.8564C39.5349 38.7071 39.0694 36.1359 37.9076 33.8211C37.8786 33.7766 37.8594 33.7265 37.8512 33.6741C37.843 33.6217 37.846 33.5681 37.8601 33.5169C37.874 33.4658 37.8988 33.4182 37.9325 33.3771C37.9663 33.336 38.0084 33.3026 38.0561 33.2789C38.1038 33.2552 38.156 33.2417 38.2092 33.2395C38.2625 33.2372 38.3156 33.2461 38.3652 33.2656C38.4147 33.2852 38.4595 33.3149 38.4967 33.3529C38.534 33.3908 38.5627 33.4362 38.5811 33.486C39.9137 36.1418 40.3767 39.0992 40.0383 42.798L39.96 43.6559L38.9052 42.4939C38.4628 44.1647 37.6196 45.7037 36.4479 46.9786L36.0893 47.369L35.8367 46.9049C35.6728 46.606 35.4635 46.3342 35.2163 46.0989C34.7806 47.5332 33.9567 48.8204 32.8347 49.8195L31.5821 50.9254Z" fill="#213346"/>
<path d="M23.3076 42.1312C23.0814 42.1307 22.8646 42.0411 22.7045 41.8818C22.5446 41.7227 22.4545 41.5068 22.4541 41.2816V38.0352C22.4547 37.8101 22.5449 37.5943 22.7048 37.4352C22.8647 37.2761 23.0815 37.1863 23.3076 37.1857H29.278C29.5041 37.1865 29.7206 37.2763 29.8803 37.4355C30.0401 37.5947 30.1301 37.8102 30.1308 38.0352V41.2816C30.1303 41.5067 30.0404 41.7223 29.8805 41.8816C29.7208 42.0408 29.5041 42.1305 29.278 42.1312" fill="#F9CDB7"/>
<path d="M30.2754 38.3888V39.3941C30.2091 39.2425 30.0998 39.1134 29.9609 39.0225C29.822 38.9318 29.6595 38.8833 29.4934 38.8831H23.5205C23.2944 38.8835 23.0776 38.973 22.9177 39.132C22.7577 39.2911 22.6676 39.5067 22.6669 39.7317V41.972C22.6206 41.8663 22.5965 41.7522 22.5962 41.6369V38.3888C22.5969 38.1639 22.6869 37.9484 22.8467 37.7894C23.0065 37.6304 23.223 37.5407 23.449 37.5401H29.426C29.6514 37.5416 29.8671 37.6316 30.0261 37.7906C30.1852 37.9495 30.2748 38.1645 30.2754 38.3888Z" fill="#E2A78D"/>
<path d="M26.2586 37.0868C26.8748 37.0868 27.4767 37.0868 28.0576 37.096L28.9129 37.1061H29.1217H29.2252H29.2539H29.2917L29.3667 37.1111C29.5642 37.1334 29.7536 37.2024 29.9189 37.3122C30.0762 37.4163 30.2073 37.555 30.3022 37.7175C30.3971 37.88 30.4531 38.0622 30.4661 38.2497V38.3175V38.3745V38.4675L30.4611 38.6526C30.4611 38.7741 30.4543 38.8948 30.4501 39.0129C30.435 39.4854 30.4181 39.9261 30.3988 40.3274C30.3794 40.7287 30.3583 41.0931 30.3356 41.4123C30.3356 41.4525 30.3306 41.4961 30.3272 41.5305C30.3272 41.5497 30.3272 41.5682 30.3272 41.5874C30.3272 41.6067 30.323 41.6335 30.3205 41.6553C30.3101 41.744 30.2884 41.831 30.2556 41.9142C30.1981 42.056 30.1089 42.1829 29.9947 42.2853C29.8453 42.4226 29.6515 42.5023 29.4483 42.5098C29.3974 42.5113 29.3466 42.5036 29.2985 42.4872C29.2656 42.4746 29.2496 42.4612 29.2496 42.4462C29.2496 42.4311 29.2656 42.4168 29.2934 42.4009L29.4121 42.3439C29.5477 42.2793 29.6651 42.1823 29.7539 42.0616C29.8107 41.9808 29.8506 41.8893 29.8709 41.7927C29.8809 41.7397 29.8846 41.6857 29.8819 41.6318V41.5874C29.8819 41.5682 29.8819 41.5497 29.8777 41.5305C29.8777 41.4919 29.8718 41.4525 29.8692 41.4123C29.8465 41.0931 29.8255 40.7295 29.8069 40.3274C29.7884 39.9253 29.7699 39.4854 29.7548 39.0129C29.7548 38.8948 29.7472 38.7741 29.7438 38.6526L29.7388 38.4675V38.3745V38.351V38.3376V38.3108C29.7294 38.2395 29.7039 38.1713 29.6643 38.1113C29.6246 38.0512 29.5718 38.0009 29.5098 37.964C29.4472 37.927 29.3769 37.9049 29.3044 37.8995H29.2404H29.1368H28.9281L28.0728 37.9095C27.4919 37.9154 26.89 37.9179 26.2738 37.9179C25.6575 37.9179 25.0556 37.9179 24.4748 37.9095L23.6186 37.8995H23.4107H23.3071H23.2431C23.1706 37.9049 23.1003 37.927 23.0377 37.964C22.9757 38.0009 22.9229 38.0512 22.8833 38.1113C22.8436 38.1713 22.8181 38.2395 22.8088 38.3108V38.3376V38.351V38.3745V38.4675L22.8037 38.6526C22.8037 38.7741 22.7961 38.8948 22.7928 39.0129C22.7776 39.4854 22.7599 39.9261 22.7406 40.3274C22.7212 40.7287 22.701 41.0931 22.6783 41.4123C22.6783 41.4525 22.6724 41.4961 22.6699 41.5305C22.6699 41.5497 22.6699 41.5682 22.6699 41.5874V41.6318C22.6671 41.6857 22.6708 41.7397 22.6808 41.7927C22.7008 41.8894 22.7407 41.9809 22.7978 42.0616C22.8862 42.1827 23.0037 42.2797 23.1396 42.3439L23.2575 42.4009C23.2861 42.4168 23.3012 42.4319 23.3012 42.4462C23.3012 42.4604 23.2861 42.4746 23.2532 42.4872C23.2051 42.5036 23.1543 42.5113 23.1034 42.5098C22.8999 42.5023 22.7059 42.4227 22.5562 42.2853C22.4423 42.1828 22.3533 42.0559 22.2961 41.9142C22.2633 41.831 22.2416 41.744 22.2313 41.6553C22.2313 41.6335 22.2254 41.6059 22.2245 41.5874L22.2195 41.5305C22.2195 41.4919 22.2144 41.4525 22.2111 41.4123C22.1892 41.0931 22.1681 40.7295 22.1488 40.3274C22.1294 39.9253 22.1126 39.4854 22.0974 39.0129C22.0974 38.8948 22.0898 38.7741 22.0865 38.6526C22.0865 38.5915 22.0823 38.5295 22.0806 38.4675V38.3745V38.3175V38.2497C22.1014 37.962 22.2228 37.6906 22.4235 37.4827C22.6244 37.2747 22.892 37.1432 23.18 37.1111L23.2549 37.1061H23.2928H23.3214H23.425H23.6329L24.4891 37.096C25.0405 37.0927 25.6424 37.0868 26.2586 37.0868Z" fill="#213346"/>
<path d="M14.5861 35.3426C14.5668 35.606 14.5807 35.8709 14.6274 36.1309C14.6789 36.3998 14.7637 36.6612 14.8799 36.9092C14.6904 36.6964 14.5284 36.4608 14.3976 36.208C14.2665 35.9445 14.1686 35.6659 14.1063 35.3786C14.0431 35.0838 14.0149 34.7827 14.0221 34.4813C14.0256 34.3277 14.0374 34.1745 14.0575 34.0222C14.0772 33.8612 14.1101 33.702 14.156 33.5463L15.0323 33.9284C14.9673 34.0261 14.911 34.1293 14.8639 34.2367C14.813 34.3516 14.7681 34.469 14.7293 34.5885C14.6525 34.8335 14.6045 35.0865 14.5861 35.3426Z" fill="#213346"/>
<path d="M15.8926 36.0589C15.9608 36.6788 16.2377 37.298 16.6384 37.8358C16.0958 37.3961 15.6792 36.822 15.4304 36.1711C15.304 35.8234 15.2382 35.4567 15.2359 35.087C15.2327 34.6958 15.308 34.3079 15.4573 33.946L16.2992 34.3967C15.9768 34.8248 15.8261 35.4448 15.8926 36.0589Z" fill="#213346"/>
<path d="M18.277 36.5255C18.3456 37.1272 18.5418 37.7075 18.8528 38.2279C18.3978 37.7782 18.0434 37.2377 17.8132 36.642C17.5676 36.0162 17.4583 35.3458 17.4924 34.6749L18.4353 34.8357C18.2618 35.3813 18.2079 35.9574 18.277 36.5255Z" fill="#213346"/>
<path d="M33.7952 36.1854C33.827 36.4304 33.8182 36.6788 33.7691 36.921C33.727 37.1078 33.663 37.2167 33.6007 37.2125C33.4803 37.1999 33.4323 36.7609 33.3633 36.2365C33.2943 35.712 33.2488 35.2722 33.3633 35.2312C33.4189 35.2136 33.5073 35.3049 33.5923 35.4758C33.6984 35.6996 33.7671 35.9394 33.7952 36.1854Z" fill="#213346"/>
<path d="M35.6922 35.6894C35.6859 36.0381 35.6177 36.383 35.491 36.7081C35.3891 36.9595 35.2813 37.0885 35.2266 37.0692C35.1113 37.0257 35.2477 36.4216 35.262 35.6777C35.2763 34.9337 35.182 34.3238 35.2999 34.287C35.3546 34.271 35.4556 34.4084 35.5448 34.6614C35.6539 34.9929 35.7038 35.3408 35.6922 35.6894Z" fill="#213346"/>
<path d="M37.6888 35.3819C37.7253 35.6377 37.7395 35.8962 37.7309 36.1544C37.7241 36.365 37.6992 36.5746 37.6568 36.781C37.5819 37.1321 37.4783 37.3331 37.4236 37.3214C37.2999 37.2954 37.416 36.4526 37.2628 35.4431C37.1096 34.4335 36.783 33.6485 36.8958 33.5907C36.9463 33.5647 37.0987 33.7315 37.267 34.0481C37.3642 34.2348 37.4462 34.429 37.512 34.6287C37.5916 34.8745 37.6507 35.1265 37.6888 35.3819Z" fill="#213346"/>
<path d="M15.3247 43.9534C15.2918 43.7135 15.2845 43.4709 15.3028 43.2295C15.3119 43.1246 15.3265 43.0203 15.3466 42.917C15.3636 42.827 15.3858 42.738 15.4131 42.6506C15.5133 42.3297 15.6387 42.158 15.6909 42.1764C15.7431 42.1948 15.7305 42.3967 15.7119 42.705C15.7119 42.783 15.7018 42.8667 15.701 42.9564C15.7002 43.046 15.701 43.1424 15.701 43.2421C15.7058 43.4596 15.7229 43.6766 15.7523 43.8922C15.7856 44.1071 15.83 44.3202 15.8854 44.5306C15.914 44.6269 15.9384 44.7199 15.9695 44.8045C16.0007 44.8892 16.0251 44.9721 16.0537 45.0433C16.1581 45.334 16.2339 45.5209 16.1825 45.5569C16.1312 45.5929 15.9687 45.4597 15.7818 45.179C15.7299 45.1032 15.6827 45.0243 15.6404 44.9428C15.5918 44.849 15.5483 44.7529 15.5099 44.6546C15.4236 44.428 15.3615 44.1929 15.3247 43.9534Z" fill="#213346"/>
<path d="M18.0242 45.1137C17.9709 44.7269 17.9692 44.3347 18.0191 43.9475C18.0587 43.6534 18.1176 43.475 18.1765 43.4758C18.2355 43.4766 18.2843 43.6593 18.323 43.9475C18.3617 44.2357 18.3904 44.6311 18.4501 45.0534C18.4813 45.2636 18.5191 45.4605 18.5596 45.6398C18.584 45.7236 18.6016 45.8124 18.6269 45.8911C18.6376 45.9303 18.6485 45.968 18.6597 46.0043L18.6942 46.1073C18.7784 46.3704 18.8534 46.5396 18.8028 46.5773C18.7523 46.615 18.5958 46.5002 18.4223 46.2422L18.3567 46.1391C18.3356 46.1031 18.3163 46.0637 18.2952 46.0227C18.2519 45.9361 18.2134 45.8471 18.1799 45.7563C18.1076 45.5475 18.0554 45.3323 18.0242 45.1137Z" fill="#213346"/>
<path d="M21.2445 45.6742C20.8892 44.4175 20.8412 43.3577 20.9557 43.3434C21.0702 43.3292 21.3118 44.3362 21.6586 45.5594C22.0055 46.7826 22.3262 47.7678 22.2143 47.8156C22.1023 47.8633 21.5955 46.93 21.2445 45.6742Z" fill="#213346"/>
<path d="M30.7478 46.6921C30.9069 46.1635 31.0189 45.6667 31.1182 45.3081C31.2175 44.9495 31.3009 44.7267 31.3607 44.7359C31.4204 44.7451 31.4398 44.9797 31.4179 45.3567C31.3877 45.8516 31.301 46.3415 31.1595 46.8169C31.0781 47.0819 30.9748 47.3397 30.8505 47.5877C30.7943 47.6958 30.7325 47.8009 30.6653 47.9027C30.6341 47.9505 30.6038 47.9974 30.5727 48.0401L30.4776 48.1599C30.225 48.4623 30.0179 48.5905 29.9784 48.5528C29.9388 48.5151 30.0575 48.3124 30.2242 47.9932C30.2452 47.9538 30.2663 47.9094 30.289 47.8684L30.3547 47.7301C30.4018 47.6363 30.4388 47.5299 30.491 47.4227C30.5786 47.2023 30.667 46.956 30.7478 46.6921Z" fill="#213346"/>
<path d="M33.2557 45.7387C33.3685 45.0953 33.4241 44.4904 33.5083 44.0547C33.5924 43.6191 33.6606 43.3535 33.7196 43.3585C33.7785 43.3636 33.8096 43.6392 33.8105 44.0807C33.8164 44.6611 33.7727 45.241 33.68 45.8141C33.6242 46.136 33.5373 46.452 33.4207 46.7574C33.3242 47.0089 33.1994 47.2486 33.0486 47.4721C32.7843 47.8524 32.5435 48.0133 32.5006 47.9747C32.4576 47.9362 32.6075 47.7066 32.7843 47.3213C32.8864 47.0956 32.9739 46.8636 33.0461 46.6267C33.134 46.3352 33.204 46.0387 33.2557 45.7387Z" fill="#213346"/>
<path d="M35.7929 44.1301C35.9184 43.609 36.0051 43.1248 36.0859 42.7704C36.1667 42.416 36.24 42.1998 36.2997 42.2065C36.3595 42.2132 36.3906 42.4394 36.3839 42.8056C36.3768 43.2853 36.3173 43.7629 36.2063 44.2298C36.1433 44.4907 36.0589 44.746 35.9537 44.993C35.9007 45.1062 35.8535 45.2134 35.7963 45.3089C35.7685 45.3575 35.7433 45.4044 35.7121 45.448L35.6279 45.5711C35.4099 45.8803 35.218 46.0227 35.175 45.99C35.1321 45.9574 35.2264 45.7496 35.3619 45.427L35.4234 45.303C35.4402 45.2586 35.4579 45.2126 35.4756 45.164C35.5151 45.0701 35.5471 44.9646 35.5867 44.8565C35.6582 44.6328 35.729 44.3898 35.7929 44.1301Z" fill="#213346"/>
<path d="M36.6523 43.3426C36.7878 43.0075 36.8989 42.69 36.989 42.3934C37.0311 42.2443 37.0732 42.1035 37.1077 41.9686C37.1422 41.8338 37.1734 41.7089 37.2003 41.5942C37.3064 41.1334 37.3628 40.8401 37.4259 40.8401C37.489 40.8401 37.5328 41.1451 37.5008 41.6377C37.4924 41.76 37.4806 41.8949 37.4571 42.0382C37.4335 42.1814 37.4057 42.3339 37.3729 42.4939C37.2121 43.1864 36.9364 43.8472 36.5571 44.4493C36.4671 44.5859 36.3829 44.7166 36.2936 44.8314C36.2044 44.9461 36.1211 45.0525 36.0411 45.1447C35.7136 45.515 35.4611 45.6934 35.4207 45.6549C35.3802 45.6164 35.5444 45.365 35.797 44.9646C35.8601 44.864 35.9291 44.7551 35.9982 44.6345C36.0672 44.5138 36.1404 44.3831 36.217 44.2508C36.3627 43.9777 36.5176 43.6719 36.6523 43.3426Z" fill="#213346"/>
<path d="M13.0624 36.8866C13.1255 36.5808 13.2922 36.3672 13.405 36.4023C13.5178 36.4375 13.5414 36.6897 13.4833 36.9729C13.4252 37.256 13.3032 37.4755 13.1845 37.4663C13.0658 37.4571 12.9993 37.1915 13.0624 36.8866Z" fill="white"/>
<path d="M13.1686 40.1925C13.0568 39.7868 13.0035 39.3674 13.0103 38.9467C13.0213 38.6242 13.0768 38.4273 13.1341 38.4273C13.2578 38.4273 13.3378 39.188 13.5845 40.0811C13.8311 40.9742 14.1426 41.6729 14.0365 41.7332C13.9869 41.7617 13.8379 41.6209 13.6645 41.3478C13.4435 40.9888 13.2765 40.5996 13.1686 40.1925Z" fill="white"/>
<path d="M20.569 36.7986H20.5278C20.0951 36.7836 19.755 36.5264 19.4822 36.3203L19.4654 36.3077C17.7813 35.0405 15.8166 34.1933 13.7359 33.837C13.6387 33.8183 13.5528 33.7624 13.4965 33.6815C13.4402 33.6004 13.418 33.5007 13.4346 33.4036C13.4512 33.3065 13.5053 33.2198 13.5854 33.1619C13.6654 33.104 13.7651 33.0796 13.863 33.0939C16.0641 33.4706 18.1425 34.3666 19.9242 35.707L19.9402 35.7196C20.1481 35.8762 20.3611 36.0379 20.5556 36.0455C20.75 36.053 20.9647 35.9106 21.1937 35.7606L21.2585 35.7187C22.5507 34.8767 24.2268 34.4118 25.9829 34.4118C27.7364 34.4118 29.4151 34.8742 30.7081 35.7154L30.7729 35.7573C31.0011 35.9072 31.2191 36.0488 31.4111 36.0421C31.603 36.0354 31.8185 35.8745 32.0256 35.7162L32.0424 35.7036C33.8241 34.3633 35.9025 33.4672 38.1037 33.0906C38.1532 33.081 38.2042 33.0813 38.2536 33.0916C38.303 33.102 38.3499 33.1221 38.3914 33.1506C38.4329 33.1792 38.4683 33.2157 38.4954 33.2581C38.5225 33.3005 38.5408 33.3478 38.5493 33.3974C38.5578 33.4469 38.5562 33.4976 38.5447 33.5466C38.5332 33.5955 38.512 33.6416 38.4823 33.6822C38.4527 33.7229 38.4151 33.7572 38.372 33.7832C38.3287 33.8092 38.2808 33.8264 38.2308 33.8337C36.1501 34.19 34.1854 35.0372 32.5012 36.3043L32.4844 36.3169C32.2116 36.523 31.8715 36.7802 31.4388 36.7953C31.0061 36.8104 30.645 36.5758 30.3571 36.3873L30.2948 36.3462C27.877 34.7745 24.0896 34.7745 21.6718 36.3462L21.6096 36.3873C21.3309 36.5724 20.9857 36.7986 20.569 36.7986Z" fill="#213346"/>
<path d="M26.0278 32.9171C25.9779 32.9172 25.9287 32.9076 25.8826 32.8887C25.8367 32.8697 25.7948 32.842 25.7596 32.807C25.7244 32.772 25.6965 32.7303 25.6776 32.6845C25.6585 32.6387 25.6488 32.5897 25.6489 32.5401V28.6369C25.6489 28.5369 25.6888 28.441 25.7599 28.3703C25.8309 28.2996 25.9272 28.2599 26.0278 28.2599C26.1282 28.2599 26.2246 28.2996 26.2956 28.3703C26.3667 28.441 26.4066 28.5369 26.4066 28.6369V32.5401C26.4066 32.5897 26.3967 32.6387 26.3777 32.6844C26.3587 32.7301 26.3308 32.7717 26.2956 32.8067C26.2604 32.8417 26.2187 32.8695 26.1727 32.8884C26.1268 32.9073 26.0775 32.9171 26.0278 32.9171Z" fill="#213346"/>
<path d="M24.9906 22.6149C25.132 23.2365 25.0823 24.0659 24.6437 24.5677C24.1319 25.1542 23.3263 25.0336 22.6301 25.0042C21.7801 24.9669 20.9292 25.0536 20.1045 25.2614C19.4311 25.4332 18.83 25.8479 18.1456 25.9618C17.3963 26.0917 17.2195 25.6937 17.7196 25.1475C18.3089 24.5057 19.1507 23.8221 19.9463 23.451C21.4245 22.759 23.3061 22.4213 24.9636 22.5864" fill="#E2A78D"/>
<path d="M27.1944 22.8896C27.053 23.5113 27.1035 24.3407 27.5421 24.8425C28.0531 25.429 28.8596 25.3083 29.5558 25.279C30.4057 25.2417 31.2565 25.3284 32.0813 25.5362C32.7547 25.708 33.3558 26.1185 34.0402 26.2366C34.7903 26.3665 34.9662 25.9694 34.4662 25.4223C33.882 24.7805 33.0351 24.0977 32.2404 23.7258C30.7613 23.0337 28.8806 22.6961 27.2222 22.862" fill="#E2A78D"/>
<path d="M27.2737 21.9748C27.1323 22.5956 27.182 23.425 27.6205 23.9268C28.1315 24.5133 28.938 24.3935 29.6342 24.3642C30.4841 24.3264 31.3351 24.413 32.1597 24.6214C32.8332 24.7931 33.4351 25.2028 34.1187 25.3218C34.8688 25.4516 35.0447 25.0537 34.5455 24.5066C33.9604 23.8648 33.1144 23.182 32.3188 22.8101C30.8397 22.118 28.9591 21.7812 27.3015 21.9463" fill="#B46078"/>
<path d="M34.3796 25.723C34.271 25.7223 34.1624 25.7122 34.0555 25.6929C33.6346 25.62 33.2549 25.4549 32.8887 25.2949C32.6237 25.1704 32.3489 25.0672 32.0671 24.9866C31.278 24.787 30.4636 24.7043 29.6502 24.7412C29.5761 24.7412 29.5003 24.7479 29.4246 24.752C28.7511 24.7889 27.9093 24.8358 27.3343 24.1748C26.7778 23.5381 26.7551 22.547 26.9041 21.891C26.9274 21.809 26.9737 21.7352 27.0378 21.6785C27.1018 21.6218 27.1807 21.5845 27.2653 21.571C29.0538 21.4158 30.8523 21.7253 32.4847 22.4691C33.2592 22.8318 34.1582 23.5155 34.8309 24.2536C35.325 24.7956 35.2316 25.1793 35.1322 25.3594C35.0472 25.5061 34.8485 25.723 34.3796 25.723ZM30.0181 23.9788C30.7727 23.9772 31.5245 24.0703 32.2557 24.2561C32.577 24.3467 32.8903 24.4633 33.1927 24.6046C33.5294 24.7529 33.8543 24.8928 34.1852 24.9498C34.2625 24.9645 34.3413 24.9706 34.4201 24.9682C34.3775 24.8929 34.3258 24.8231 34.266 24.7604C33.6565 24.0902 32.8492 23.4744 32.1614 23.1519C30.7346 22.5018 29.1694 22.2093 27.6028 22.2998C27.5439 22.7807 27.6138 23.342 27.9084 23.6797C28.2452 24.0617 28.7983 24.0315 29.3859 23.9997L29.6207 23.9871C29.7521 23.9821 29.8851 23.9788 30.0181 23.9788Z" fill="#213346"/>
<path d="M24.5898 21.6413C24.7312 22.263 24.6815 23.0924 24.2429 23.5934C23.7311 24.1799 22.9246 24.06 22.2284 24.0307C21.3784 23.993 20.5276 24.0797 19.7029 24.2879C19.0294 24.4597 18.4284 24.8744 17.7439 24.9883C16.9939 25.1182 16.8179 24.7202 17.318 24.174C17.9022 23.5322 18.7491 22.8486 19.5446 22.4775C21.0229 21.7854 22.9036 21.4478 24.562 21.6129" fill="#B46078"/>
<path d="M17.4829 25.3896C17.0149 25.3896 16.8154 25.1726 16.7345 25.026C16.6344 24.8459 16.5409 24.463 17.0359 23.9201C17.7094 23.182 18.6068 22.4959 19.3813 22.1365C21.0134 21.3918 22.8121 21.0823 24.6006 21.2384C24.6854 21.2515 24.7645 21.2887 24.8286 21.3454C24.8926 21.4022 24.9389 21.4761 24.9618 21.5584C25.1108 22.2135 25.0872 23.2046 24.5308 23.8414C23.9533 24.5015 23.1148 24.4555 22.4405 24.4186L22.2149 24.4077C21.4015 24.3708 20.5871 24.4535 19.798 24.6532C19.5167 24.7344 19.2423 24.8374 18.9772 24.9615C18.6101 25.1215 18.2313 25.2865 17.8096 25.3594C17.7018 25.3789 17.5925 25.389 17.4829 25.3896ZM17.4434 24.6356C17.5218 24.6384 17.6003 24.6326 17.6774 24.618C18.0082 24.5602 18.3298 24.4203 18.6707 24.272C18.9729 24.1309 19.2859 24.0144 19.6069 23.9235C20.4681 23.7059 21.3567 23.6155 22.2443 23.6554C22.3218 23.6554 22.4001 23.6629 22.4801 23.6671C23.0693 23.6989 23.6224 23.7299 23.9566 23.3471C24.2521 23.012 24.3212 22.449 24.2622 21.9672C22.6957 21.8772 21.1307 22.1697 19.7037 22.8193C19.0142 23.1418 18.2069 23.7584 17.5991 24.4278C17.5388 24.4901 17.4865 24.5597 17.4434 24.6348V24.6356Z" fill="#213346"/>
<path d="M25.4325 41.1694C24.8901 41.1693 24.3486 41.1241 23.8137 41.0345C23.7746 41.0286 23.7371 41.015 23.7035 40.9944C23.6698 40.9738 23.6407 40.9468 23.6177 40.9148C23.5948 40.8827 23.5785 40.8464 23.5699 40.808C23.5614 40.7697 23.5607 40.73 23.5679 40.6913C23.5751 40.6526 23.59 40.6158 23.6117 40.583C23.6335 40.5502 23.6617 40.5221 23.6945 40.5003C23.7275 40.4785 23.7644 40.4636 23.8033 40.4563C23.8421 40.4491 23.882 40.4497 23.9206 40.4581C23.9458 40.4623 26.5 40.9147 27.6928 40.0668C27.8449 39.9645 27.9733 39.8312 28.0698 39.6758C28.1663 39.5204 28.2286 39.3464 28.2527 39.1654C28.258 39.1268 28.2708 39.0897 28.2907 39.0563C28.3105 39.0228 28.3368 38.9935 28.3681 38.9702C28.3994 38.9469 28.435 38.93 28.4729 38.9206C28.5108 38.9111 28.5502 38.9093 28.5888 38.9151C28.6274 38.9209 28.6645 38.9343 28.6979 38.9546C28.7312 38.9748 28.7602 39.0014 28.7832 39.0329C28.8061 39.0643 28.8225 39.1 28.8314 39.1379C28.8403 39.1758 28.8417 39.215 28.8352 39.2533C28.7992 39.5122 28.7094 39.7607 28.5716 39.9831C28.4337 40.2056 28.2509 40.397 28.0346 40.5452C27.3334 41.0429 26.3004 41.1694 25.4325 41.1694Z" fill="#213346"/>
<path d="M39.7572 30.4298C39.7005 30.4296 39.6456 30.4106 39.6012 30.3756C39.5567 30.3406 39.5254 30.2919 39.5122 30.2371C39.409 29.858 39.376 29.4634 39.4145 29.0725C39.4563 28.6479 39.6516 28.2528 39.9642 27.9608C40.0143 27.9164 40.08 27.8935 40.1469 27.8973C40.2139 27.9011 40.2766 27.9311 40.3212 27.9809C40.3659 28.0307 40.3888 28.0961 40.385 28.1627C40.3812 28.2293 40.351 28.2917 40.301 28.3361C40.0803 28.5475 39.9438 28.831 39.9163 29.1345C39.8849 29.4656 39.9134 29.7996 40.0005 30.1206C40.0159 30.1854 40.0049 30.2536 39.9699 30.3103C39.9348 30.367 39.8786 30.4076 39.8136 30.4231C39.7951 30.4276 39.7762 30.4298 39.7572 30.4298Z" fill="#213346"/>
<path d="M12.8329 30.4297C12.8131 30.43 12.7933 30.4277 12.774 30.423C12.7417 30.4154 12.7113 30.4016 12.6843 30.3823C12.6574 30.363 12.6346 30.3386 12.6172 30.3105C12.5997 30.2825 12.588 30.2512 12.5827 30.2186C12.5774 30.186 12.5786 30.1527 12.5863 30.1206C12.6734 29.7996 12.7019 29.4656 12.6705 29.1345C12.6433 28.8311 12.507 28.5476 12.2866 28.3361C12.2366 28.2917 12.2063 28.2293 12.2026 28.1627C12.1988 28.0961 12.2217 28.0307 12.2664 27.9809C12.311 27.9311 12.3737 27.9011 12.4407 27.8973C12.5076 27.8935 12.5733 27.9164 12.6233 27.9608C12.936 28.2528 13.1313 28.6479 13.173 29.0725C13.2112 29.4634 13.1781 29.8579 13.0754 30.2371C13.0623 30.2914 13.0313 30.3399 12.9874 30.3748C12.9435 30.4097 12.8891 30.4291 12.8329 30.4297Z" fill="#213346"/>
<path d="M31.6613 18.2165C31.8871 18.3074 32.1036 18.4195 32.3078 18.5516C32.4743 18.6593 32.6293 18.7833 32.7709 18.9219C33.0108 19.1623 33.1076 19.36 33.0487 19.4246C32.9897 19.4891 32.7919 19.4245 32.5082 19.293L32.0191 19.0685C31.8356 18.9847 31.6352 18.9009 31.4222 18.8172C31.2093 18.7334 31.0013 18.6596 30.8127 18.5926L30.3018 18.4251C30.008 18.3245 29.816 18.2407 29.8194 18.1503C29.8227 18.0598 30.0282 17.9827 30.3683 17.976C30.5658 17.9723 30.7632 17.9886 30.9575 18.0246C31.1978 18.066 31.4334 18.1302 31.6613 18.2165Z" fill="white"/>
<path d="M13.1616 20.4584C13.2365 20.2717 13.3576 20.1069 13.5135 19.9792C13.6414 19.882 13.7593 19.856 13.8317 19.9063C13.9041 19.9565 13.9218 20.0738 13.9032 20.2146C13.8754 20.3847 13.8256 20.5505 13.7551 20.708C13.6908 20.8682 13.6059 21.0194 13.5025 21.1579C13.4133 21.2702 13.319 21.3381 13.2306 21.3213C13.1422 21.3045 13.0799 21.2023 13.0622 21.044C13.0455 20.8436 13.0797 20.6422 13.1616 20.4584Z" fill="white"/>
<path d="M15.0014 18.5424C15.2758 18.415 15.5595 18.441 15.6353 18.6019C15.711 18.7627 15.5511 18.9964 15.2741 19.1238C14.9971 19.2511 14.716 19.2243 14.6402 19.0643C14.5644 18.9043 14.7269 18.6697 15.0014 18.5424Z" fill="white"/>
<path d="M16.2817 17.1659C16.4812 16.7428 16.7388 16.4269 16.9089 16.4831C17.079 16.5392 17.0832 16.9757 16.866 17.4373C16.6488 17.8989 16.3061 18.1754 16.1563 18.0824C16.0064 17.9894 16.0831 17.5889 16.2817 17.1659Z" fill="white"/>
<path d="M14.873 17.3334V10.8699C14.873 9.56543 15.4564 8.38666 16.3538 7.87477L19.6118 6.0174C23.512 3.79474 27.9207 3.79474 31.8184 6.0174L35.0772 7.87477C35.9762 8.38415 36.5588 9.56292 36.5588 10.8699V17.3359" fill="#FEFDF5"/>
<path d="M36.3038 10.7685V12.393C32.1603 8.34309 26.6143 6.14138 21.3452 7.37209C19.8989 7.70721 18.4097 8.36404 17.5275 9.74555C16.4272 11.4689 16.6402 14.1498 17.993 15.6101C18.9721 16.6607 20.2702 16.9857 21.6079 17.2371H14.6206V10.7685C14.6206 9.46322 15.2032 8.28445 16.1014 7.77256L19.3593 5.91518C23.2587 3.69335 27.6683 3.69335 31.566 5.91518L34.8239 7.77004C35.7221 8.28445 36.3038 9.46322 36.3038 10.7685Z" fill="#F4EAE1"/>
<path d="M36.5431 17.7322C36.4426 17.7322 36.3462 17.6925 36.2752 17.6218C36.2041 17.5511 36.1642 17.4552 36.1642 17.3552V10.8891C36.1642 9.71624 35.6591 8.66733 34.8745 8.22079L31.6158 6.36424C29.7334 5.29104 27.7433 4.74648 25.7002 4.74648C23.657 4.74648 21.6669 5.29104 19.7846 6.36424L16.5259 8.22079C15.743 8.66733 15.2362 9.7154 15.2362 10.8891V17.3552C15.2362 17.4552 15.1963 17.5511 15.1252 17.6218C15.0542 17.6925 14.9578 17.7322 14.8573 17.7322C14.7569 17.7322 14.6605 17.6925 14.5895 17.6218C14.5184 17.5511 14.4785 17.4552 14.4785 17.3552V10.8891C14.4785 9.44982 15.1343 8.14539 16.1496 7.56647L19.4075 5.70993C23.407 3.43031 27.9942 3.43031 31.9929 5.70993L35.255 7.56647C36.2652 8.14539 36.9219 9.44982 36.9219 10.8891V17.3552C36.9221 17.4047 36.9123 17.4538 36.8933 17.4997C36.8743 17.5454 36.8464 17.587 36.8112 17.6221C36.776 17.6571 36.7342 17.6848 36.6882 17.7037C36.6421 17.7227 36.5929 17.7323 36.5431 17.7322Z" fill="#213346"/>
<path d="M40.2141 18.0749C40.043 18.7906 39.8219 19.4935 39.5524 20.1785C39.4135 20.5463 38.2249 23.6805 38.3688 23.8154C35.5066 21.1403 31.1038 19.4279 26.1622 19.4279C21.2206 19.4279 16.8296 21.1378 13.9682 23.8087C12.9352 20.6083 10.3895 15.7416 13.4151 13.0012C14.2796 12.2179 15.3808 11.8886 16.4541 11.6188C22.5734 10.0807 28.9655 9.87541 35.1067 11.2938C36.1169 11.5275 37.1271 11.809 38.0422 12.3611C38.9573 12.9132 39.7646 13.7669 40.1468 14.8745C40.5105 15.9217 40.4515 17.015 40.2141 18.0749Z" fill="#F9637C"/>
<path d="M15.2091 12.5857C15.8085 12.0428 16.5232 11.7177 17.2623 11.4798C17.0328 11.5357 16.8033 11.5915 16.5737 11.6474C15.5004 11.9171 14.3993 12.2464 13.5347 13.0297C10.5091 15.7701 13.0548 20.6368 14.0878 23.8372C14.5381 23.4181 15.0162 23.0296 15.5189 22.6743C14.3892 19.4991 12.4024 15.1284 15.2091 12.5857Z" fill="#BA4264"/>
<path d="M18.804 12.7968C18.793 12.7978 18.7818 12.7967 18.7712 12.7934C18.7605 12.7902 18.7507 12.7849 18.7421 12.7779C18.7248 12.7636 18.7139 12.7432 18.7118 12.721C18.7097 12.6988 18.7165 12.6766 18.7308 12.6594C18.7451 12.6422 18.7657 12.6313 18.788 12.6292C19.3141 12.5237 19.8723 12.429 20.4473 12.3477C20.4696 12.3446 20.4922 12.3505 20.5102 12.364C20.5282 12.3775 20.5401 12.3976 20.5432 12.4198C20.5463 12.442 20.5404 12.4645 20.5269 12.4825C20.5133 12.5004 20.4931 12.5122 20.4708 12.5153C19.8992 12.5991 19.3436 12.6904 18.8208 12.7951C18.8153 12.7965 18.8096 12.797 18.804 12.7968Z" fill="#B13A59"/>
<path d="M14.8145 14.092C14.8004 14.092 14.7866 14.0884 14.7742 14.0817C14.7618 14.075 14.7514 14.0653 14.7438 14.0535C14.7317 14.0348 14.7277 14.0122 14.7324 13.9905C14.7371 13.9688 14.7503 13.9499 14.769 13.9379C14.8044 13.9153 15.6639 13.374 17.7744 12.8555C17.7853 12.8524 17.7967 12.8514 17.8079 12.8528C17.8192 12.8541 17.83 12.8577 17.8398 12.8634C17.8496 12.869 17.8582 12.8766 17.865 12.8855C17.8718 12.8946 17.8768 12.9049 17.8795 12.9158C17.8822 12.9267 17.8827 12.9381 17.8809 12.9493C17.8791 12.9604 17.875 12.9711 17.869 12.9806C17.8629 12.9902 17.855 12.9984 17.8457 13.0047C17.8364 13.0112 17.8259 13.0157 17.8148 13.018C15.7313 13.5299 14.8684 14.0736 14.86 14.0786C14.8464 14.0873 14.8306 14.0919 14.8145 14.092Z" fill="#B13A59"/>
<path d="M28.5986 12.0696H28.591C28.016 12.0185 27.4562 11.9858 26.925 11.9674C26.9027 11.9674 26.8812 11.9585 26.8655 11.9428C26.8497 11.9271 26.8408 11.9058 26.8408 11.8836C26.8408 11.8614 26.8497 11.8401 26.8655 11.8243C26.8812 11.8086 26.9027 11.7998 26.925 11.7998C27.4587 11.8166 28.0194 11.8517 28.6003 11.9029C28.6226 11.9039 28.6436 11.9136 28.6587 11.9301C28.6738 11.9465 28.6817 11.9682 28.6807 11.9904C28.6797 12.0126 28.6698 12.0335 28.6533 12.0485C28.6368 12.0635 28.615 12.0714 28.5927 12.0704L28.5986 12.0696Z" fill="#B13A59"/>
<path d="M22.7958 12.3201C22.7735 12.3219 22.7513 12.3147 22.7343 12.3003C22.7172 12.2858 22.7066 12.2652 22.7049 12.243C22.7031 12.2208 22.7102 12.1988 22.7248 12.1818C22.7393 12.1648 22.76 12.1543 22.7823 12.1525L23.2327 12.0763C24.0998 11.9272 25.0005 11.773 25.9021 11.7873C25.9245 11.7873 25.9459 11.7961 25.9617 11.8118C25.9775 11.8275 25.9863 11.8488 25.9863 11.871C25.9863 11.8933 25.9775 11.9146 25.9617 11.9303C25.9459 11.946 25.9245 11.9548 25.9021 11.9548C25.0115 11.9414 24.1233 12.0939 23.2638 12.2413L22.8118 12.3176L22.7958 12.3201Z" fill="#B13A59"/>
<path d="M37.4715 13.7854C37.4621 13.7853 37.4526 13.7836 37.4437 13.7804C36.8923 13.5835 36.3493 13.4059 35.8383 13.2534C35.8277 13.2502 35.8179 13.245 35.8092 13.238C35.8006 13.231 35.7935 13.2224 35.7882 13.2127C35.783 13.203 35.7798 13.1923 35.7787 13.1813C35.7776 13.1703 35.7787 13.1592 35.7819 13.1487C35.7851 13.1381 35.7904 13.1282 35.7974 13.1197C35.8044 13.1111 35.8131 13.104 35.8228 13.0988C35.8326 13.0936 35.8434 13.0904 35.8544 13.0893C35.8654 13.0882 35.8766 13.0893 35.8872 13.0925C36.4032 13.2459 36.9462 13.4277 37.5001 13.6229C37.5187 13.6296 37.5344 13.6426 37.5443 13.6596C37.5543 13.6767 37.5578 13.6967 37.5543 13.7161C37.551 13.7355 37.5408 13.7531 37.5256 13.7657C37.5105 13.7784 37.4913 13.7854 37.4715 13.7854Z" fill="#B13A59"/>
<path d="M34.8628 12.9819C34.8561 12.9828 34.8492 12.9828 34.8426 12.9819C32.7666 12.4617 31.7825 12.5454 31.7732 12.5454C31.7509 12.5475 31.7286 12.5407 31.7114 12.5265C31.694 12.5123 31.6832 12.4918 31.6811 12.4696C31.6789 12.4474 31.6858 12.4252 31.7 12.408C31.7143 12.3909 31.7349 12.38 31.7572 12.3779C31.7977 12.3779 32.775 12.2882 34.883 12.8169C34.894 12.8182 34.9047 12.8217 34.9144 12.8271C34.9241 12.8326 34.9327 12.8398 34.9396 12.8486C34.9464 12.8573 34.9515 12.8672 34.9545 12.8779C34.9575 12.8886 34.9583 12.8997 34.9571 12.9107C34.9557 12.9217 34.9522 12.9323 34.9468 12.9421C34.9413 12.9517 34.934 12.9602 34.9253 12.967C34.9165 12.9739 34.9065 12.9789 34.8957 12.9819C34.885 12.9849 34.8738 12.9858 34.8628 12.9844V12.9819Z" fill="#B13A59"/>
<path d="M18.8518 13.875C18.8295 13.8771 18.8073 13.8703 18.79 13.8561C18.7727 13.8419 18.7618 13.8214 18.7597 13.7992C18.7575 13.777 18.7644 13.7548 18.7787 13.7376C18.793 13.7205 18.8135 13.7096 18.8358 13.7075C19.3611 13.6019 19.9201 13.5072 20.4951 13.426C20.5175 13.4229 20.5401 13.4287 20.5581 13.4422C20.5761 13.4557 20.588 13.4758 20.5911 13.498C20.5943 13.5202 20.5884 13.5428 20.5747 13.5607C20.5612 13.5786 20.5411 13.5904 20.5187 13.5935C19.9471 13.6773 19.3915 13.7686 18.8687 13.8734C18.8632 13.8748 18.8576 13.8753 18.8518 13.875Z" fill="#B13A59"/>
<path d="M14.8623 15.1711C14.8441 15.171 14.8265 15.1652 14.812 15.1544C14.7974 15.1435 14.7868 15.1283 14.7817 15.111C14.7766 15.0936 14.7773 15.0751 14.7836 15.0582C14.7899 15.0412 14.8016 15.0268 14.8168 15.017C14.8522 14.9943 15.7117 14.4531 17.8222 13.9345C17.8435 13.9302 17.8657 13.9341 17.8841 13.9457C17.9025 13.9572 17.9157 13.9754 17.9209 13.9964C17.9262 14.0175 17.923 14.0397 17.9121 14.0584C17.9013 14.0772 17.8835 14.091 17.8626 14.0971C15.7841 14.6081 14.9162 15.1527 14.9077 15.1577C14.8942 15.1664 14.8784 15.1711 14.8623 15.1711Z" fill="#B13A59"/>
<path d="M28.6464 13.1487H28.6389C28.0639 13.0976 27.5032 13.0649 26.9729 13.0465C26.9505 13.0465 26.9292 13.0377 26.9133 13.0219C26.8976 13.0063 26.8887 12.9849 26.8887 12.9627C26.8887 12.9405 26.8976 12.9191 26.9133 12.9035C26.9292 12.8877 26.9505 12.8789 26.9729 12.8789C27.5057 12.8957 28.0672 12.9308 28.6473 12.982C28.6696 12.9829 28.6907 12.9925 28.7059 13.0088C28.721 13.0252 28.729 13.0469 28.7281 13.0691C28.7272 13.0913 28.7175 13.1122 28.7011 13.1273C28.6846 13.1424 28.6628 13.1504 28.6405 13.1495L28.6464 13.1487Z" fill="#B13A59"/>
<path d="M22.8438 13.4033C22.8239 13.4035 22.8045 13.3967 22.7893 13.3841C22.774 13.3715 22.7636 13.3539 22.7601 13.3344C22.7566 13.315 22.7601 13.2949 22.77 13.2778C22.78 13.2607 22.7956 13.2475 22.8143 13.2408C22.853 13.2266 23.7891 12.8923 25.9468 12.8672C25.9691 12.8672 25.9905 12.876 26.0063 12.8917C26.022 12.9074 26.031 12.9287 26.031 12.9509C26.031 12.9731 26.022 12.9944 26.0063 13.0102C25.9905 13.0258 25.9691 13.0347 25.9468 13.0347C23.8228 13.0598 22.8791 13.395 22.8699 13.3983C22.8614 13.4013 22.8526 13.403 22.8438 13.4033Z" fill="#B13A59"/>
<path d="M37.5194 14.8645C37.5096 14.8645 37.4999 14.8628 37.4907 14.8594C36.9402 14.6626 36.4006 14.4849 35.8862 14.3325C35.8647 14.326 35.8468 14.3113 35.8362 14.2917C35.8256 14.2721 35.8233 14.2491 35.8298 14.2277C35.8363 14.2064 35.851 14.1885 35.8707 14.178C35.8905 14.1674 35.9136 14.1652 35.935 14.1716C36.4511 14.3249 36.9941 14.5067 37.548 14.7019C37.5666 14.7086 37.5822 14.7217 37.5921 14.7387C37.602 14.7558 37.6056 14.7757 37.6022 14.7952C37.5987 14.8145 37.5886 14.8321 37.5734 14.8448C37.5583 14.8575 37.5391 14.8645 37.5194 14.8645Z" fill="#B13A59"/>
<path d="M34.9106 14.061C34.9039 14.0618 34.8971 14.0618 34.8904 14.061C32.8094 13.5391 31.8304 13.6254 31.8211 13.6262C31.81 13.6273 31.7989 13.6262 31.7882 13.623C31.7776 13.6198 31.7676 13.6145 31.759 13.6076C31.7505 13.6006 31.7433 13.5919 31.7381 13.5822C31.7329 13.5725 31.7296 13.5618 31.7285 13.5508C31.7273 13.5398 31.7284 13.5287 31.7316 13.5181C31.7349 13.5075 31.7401 13.4977 31.7472 13.4891C31.7614 13.4718 31.7819 13.4608 31.8043 13.4586C31.8455 13.4586 32.822 13.369 34.9308 13.8976C34.9531 13.9003 34.9734 13.9117 34.9874 13.9293C35.0013 13.9469 35.0075 13.9693 35.0049 13.9915C35.0022 14.0137 34.9908 14.0339 34.9731 14.0478C34.9554 14.0616 34.9329 14.0679 34.9106 14.0652V14.061Z" fill="#B13A59"/>
<path d="M18.7548 15.0923C18.7351 15.0927 18.7159 15.0862 18.7005 15.074C18.6851 15.0618 18.6746 15.0445 18.6706 15.0253C18.6685 15.0145 18.6684 15.0034 18.6705 14.9926C18.6726 14.9818 18.6768 14.9715 18.6828 14.9623C18.689 14.9532 18.6968 14.9452 18.706 14.9391C18.7152 14.9329 18.7254 14.9286 18.7363 14.9264C19.2625 14.8217 19.8206 14.7262 20.3956 14.6449C20.4066 14.6433 20.4178 14.6438 20.4286 14.6465C20.4394 14.6492 20.4495 14.654 20.4584 14.6606C20.4674 14.6672 20.4749 14.6755 20.4806 14.6851C20.4862 14.6946 20.4899 14.7052 20.4915 14.7162C20.4946 14.7381 20.4888 14.7605 20.4755 14.7782C20.462 14.796 20.442 14.8077 20.42 14.8108C19.8475 14.8946 19.2919 14.9859 18.7691 15.0907C18.7644 15.0918 18.7596 15.0924 18.7548 15.0923Z" fill="#B13A59"/>
<path d="M14.7666 16.3884C14.7525 16.3884 14.7387 16.3848 14.7263 16.3781C14.714 16.3714 14.7035 16.3617 14.6959 16.3498C14.6839 16.3312 14.6798 16.3085 14.6845 16.2868C14.6893 16.2651 14.7025 16.2462 14.7212 16.2342C14.7565 16.2116 15.6169 15.6704 17.7274 15.1518C17.749 15.1464 17.7719 15.15 17.791 15.1614C17.8101 15.1728 17.8239 15.1914 17.8292 15.213C17.8319 15.2237 17.8324 15.2348 17.8306 15.2457C17.8289 15.2566 17.8251 15.2671 17.8193 15.2766C17.8135 15.2859 17.8059 15.2941 17.7969 15.3006C17.7879 15.3071 17.7777 15.3117 17.7669 15.3143C15.6842 15.8262 14.8205 16.3699 14.8121 16.375C14.7985 16.3837 14.7828 16.3883 14.7666 16.3884Z" fill="#B13A59"/>
<path d="M28.5504 14.366H28.5428C27.9678 14.314 27.408 14.2822 26.8776 14.2629C26.8553 14.2629 26.8339 14.2541 26.8181 14.2384C26.8024 14.2227 26.7935 14.2013 26.7935 14.1791C26.7935 14.1569 26.8024 14.1356 26.8181 14.1199C26.8339 14.1042 26.8553 14.0954 26.8776 14.0954C27.4114 14.1121 27.972 14.1473 28.5529 14.1984C28.5752 14.1994 28.5963 14.2092 28.6113 14.2256C28.6264 14.2421 28.6343 14.2638 28.6333 14.286C28.6323 14.3082 28.6225 14.3291 28.606 14.3441C28.5895 14.3591 28.5676 14.367 28.5453 14.366H28.5504Z" fill="#B13A59"/>
<path d="M22.7475 14.6207C22.7277 14.6208 22.7084 14.614 22.6931 14.6014C22.6777 14.5888 22.6675 14.5712 22.6639 14.5517C22.6604 14.5323 22.6639 14.5122 22.6738 14.4951C22.6837 14.478 22.6994 14.4648 22.7181 14.4581C22.7576 14.4439 23.6929 14.1096 25.8514 14.0845C25.8737 14.0845 25.8951 14.0933 25.9109 14.109C25.9267 14.1247 25.9356 14.1461 25.9356 14.1683C25.9356 14.1905 25.9267 14.2117 25.9109 14.2275C25.8951 14.2432 25.8737 14.252 25.8514 14.252C23.7224 14.2772 22.7846 14.6123 22.7753 14.6156C22.7664 14.6187 22.757 14.6204 22.7475 14.6207Z" fill="#B13A59"/>
<path d="M37.4247 16.0826C37.4149 16.0826 37.4053 16.0809 37.3961 16.0776C36.8455 15.8799 36.3059 15.7023 35.7915 15.5498C35.7809 15.5466 35.771 15.5414 35.7624 15.5345C35.7538 15.5274 35.7467 15.5188 35.7415 15.5091C35.7362 15.4993 35.733 15.4887 35.7319 15.4777C35.7308 15.4667 35.7319 15.4556 35.7351 15.4451C35.7415 15.4239 35.7561 15.4061 35.7757 15.3955C35.7952 15.3851 35.8182 15.3826 35.8395 15.3889C36.3564 15.5431 36.8994 15.724 37.4525 15.9192C37.4716 15.9255 37.4879 15.9384 37.4983 15.9555C37.5087 15.9727 37.5126 15.9931 37.5092 16.0128C37.5059 16.0326 37.4955 16.0505 37.4799 16.0633C37.4644 16.0762 37.4448 16.083 37.4247 16.0826Z" fill="#B13A59"/>
<path d="M34.8149 15.2783H34.7947C32.7196 14.758 31.7346 14.8427 31.7254 14.8435C31.7031 14.8456 31.6808 14.8388 31.6635 14.8246C31.6462 14.8104 31.6353 14.7899 31.6332 14.7677C31.6311 14.7455 31.6379 14.7233 31.6522 14.7061C31.6665 14.6889 31.6871 14.678 31.7094 14.6759C31.7498 14.6759 32.7263 14.5863 34.836 15.1149C34.8583 15.1177 34.8786 15.1292 34.8924 15.1469C34.9063 15.1645 34.9124 15.187 34.9096 15.2092C34.9068 15.2314 34.8953 15.2516 34.8775 15.2653C34.8598 15.2791 34.8372 15.2853 34.8149 15.2825V15.2783Z" fill="#B13A59"/>
<path d="M21.3043 8.68657C21.5635 8.65956 21.8256 8.68812 22.0729 8.77035C22.264 8.8424 22.3692 8.93791 22.3574 9.02169C22.3456 9.10547 22.2227 9.17333 22.0425 9.21941C21.8182 9.27043 21.5902 9.30404 21.3607 9.31994C21.1317 9.34425 20.9012 9.35069 20.6712 9.33921C20.486 9.32581 20.3547 9.28476 20.3269 9.20014C20.2991 9.11552 20.3858 9.00242 20.5618 8.89937C20.791 8.77613 21.0443 8.70355 21.3043 8.68657Z" fill="white"/>
<path d="M25.9238 8.52406C27.1091 8.59695 28.0477 8.85415 28.0283 9.02673C28.009 9.19932 27.051 9.2345 25.8867 9.16329C24.7225 9.09208 23.7745 8.94295 23.7754 8.76786C23.7762 8.59276 24.7393 8.45285 25.9238 8.52406Z" fill="white"/>
<path d="M13.7881 24.4915L13.6046 23.9243C13.4438 23.4216 13.2443 22.8829 13.0339 22.3082C11.8704 19.1414 10.4242 15.1996 13.1576 12.7222C14.0971 11.8752 15.2555 11.5309 16.3616 11.2527C22.7049 9.66095 29.2165 9.54617 35.1927 10.9268C36.2088 11.1614 37.2813 11.4563 38.2393 12.0428C39.3236 12.6988 40.1284 13.6614 40.5056 14.753C40.849 15.7467 40.8751 16.8618 40.5838 18.1603C40.4104 18.8931 40.1854 19.6129 39.9104 20.3143L39.8986 20.3478C39.0568 22.5746 38.7478 23.5833 38.7394 23.7702C38.7373 23.7273 38.7267 23.6851 38.7081 23.6463C38.6897 23.6075 38.6636 23.5727 38.6316 23.544L38.1131 24.0936C35.1961 21.3665 30.8421 19.8049 26.1632 19.8049C21.4843 19.8049 17.1412 21.364 14.2267 24.0843L13.7881 24.4915ZM26.6152 10.7224C23.2197 10.7287 19.838 11.1524 16.5468 11.9841C15.5366 12.2355 14.4776 12.548 13.6703 13.2802C11.3131 15.4166 12.6601 19.0945 13.7477 22.0502C13.8866 22.4289 14.0213 22.7941 14.1434 23.1452C17.1841 20.5363 21.5272 19.0509 26.1649 19.0509C30.7714 19.0509 35.0883 20.5162 38.1189 23.0907C38.2031 22.8184 38.3185 22.4599 38.4708 22.0242C38.6619 21.4746 38.901 20.8203 39.1813 20.0789L39.194 20.0462C39.4586 19.377 39.676 18.6903 39.8447 17.9911C40.104 16.8324 40.0863 15.8514 39.7892 14.9935C39.4693 14.0677 38.7789 13.2467 37.8453 12.6812C37.0271 12.186 36.1246 11.9146 35.0218 11.6599C32.2646 11.0303 29.4442 10.7157 26.6152 10.7224Z" fill="#213346"/>
<path d="M36.6272 27.7094C36.6042 27.4168 36.5995 27.123 36.6129 26.8298C36.6298 26.5977 36.6736 26.4419 36.7611 26.4209C36.8487 26.4 36.9606 26.5231 37.0616 26.7485C37.2996 27.339 37.3421 27.9897 37.1829 28.6059C37.1122 28.8421 37.0145 28.9787 36.9303 28.9695C36.8461 28.9603 36.777 28.8111 36.7299 28.5833C36.6773 28.2944 36.6429 28.0026 36.6272 27.7094Z" fill="white"/>
<path d="M36.1311 25.1961C36.0901 25.1052 36.0689 25.0067 36.0688 24.907C36.0655 24.8623 36.0712 24.8174 36.0857 24.775C36.1002 24.7325 36.123 24.6934 36.153 24.6599C36.1905 24.6281 36.2367 24.6085 36.2857 24.6033C36.3347 24.5983 36.3841 24.608 36.4274 24.6314C36.5579 24.6977 36.6612 24.8071 36.7195 24.9408C36.7779 25.0745 36.7877 25.2243 36.7473 25.3645C36.7346 25.4119 36.708 25.4544 36.6708 25.4865C36.6335 25.5186 36.5874 25.5388 36.5385 25.5446C36.4932 25.5438 36.4486 25.534 36.4071 25.5159C36.3657 25.4977 36.3282 25.4716 36.2969 25.439C36.2253 25.3704 36.1688 25.2876 36.1311 25.1961Z" fill="white"/>
<path d="M35.2745 23.8682C35.1903 23.7618 35.2366 23.5875 35.3772 23.4786C35.5178 23.3697 35.6987 23.3672 35.7829 23.4736C35.8671 23.58 35.82 23.7551 35.6794 23.864C35.5388 23.9729 35.3578 23.9746 35.2745 23.8682Z" fill="white"/>
<path d="M31.7782 18.0749C32.1641 18.1441 32.533 18.2863 32.865 18.4938C33.1176 18.6613 33.2363 18.8197 33.195 18.8959C33.1538 18.9722 32.9635 18.9638 32.6899 18.9127C32.4163 18.8616 32.0544 18.7778 31.6536 18.699C31.2529 18.6203 30.8867 18.5642 30.6131 18.5089C30.3395 18.4536 30.1611 18.3941 30.1526 18.3044C30.1442 18.2148 30.3134 18.1168 30.6098 18.0531C30.9971 17.9857 31.3938 17.9931 31.7782 18.0749Z" fill="white"/>
<path d="M34.9713 19.2763C35.0248 19.2974 35.0734 19.329 35.1142 19.3693C35.155 19.4096 35.1872 19.4578 35.2087 19.5108C35.2255 19.5523 35.2307 19.5975 35.224 19.6416C35.2174 19.6858 35.199 19.7274 35.1708 19.7622C35.1145 19.8263 35.0379 19.8694 34.9536 19.8845C34.8763 19.9032 34.7949 19.897 34.7213 19.867C34.6477 19.8368 34.5855 19.7844 34.5436 19.7169C34.4951 19.6466 34.4728 19.5615 34.4805 19.4765C34.4856 19.4316 34.5028 19.3889 34.5302 19.353C34.5576 19.3171 34.5942 19.2891 34.6362 19.2721C34.6895 19.2501 34.7466 19.2392 34.8042 19.2399C34.8619 19.2407 34.9187 19.253 34.9713 19.2763Z" fill="white"/>
<path d="M36.9437 20.2908C37.1195 20.4002 37.2685 20.5473 37.3798 20.7214C37.464 20.863 37.48 20.9853 37.4211 21.0515C37.3621 21.1177 37.2417 21.1186 37.0944 21.075C36.7401 20.9507 36.4206 20.7442 36.1625 20.4726C36.0623 20.3562 36.0135 20.2464 36.0514 20.1651C36.0893 20.0839 36.2071 20.0504 36.3713 20.0688C36.5763 20.0995 36.7718 20.1754 36.9437 20.2908Z" fill="white"/>
<path d="M21.2285 31.0648C22.2936 31.0648 23.1571 30.2055 23.1571 29.1454C23.1571 28.0854 22.2936 27.2261 21.2285 27.2261C20.1633 27.2261 19.2998 28.0854 19.2998 29.1454C19.2998 30.2055 20.1633 31.0648 21.2285 31.0648Z" fill="#213346"/>
<path d="M22.0887 28.7827C22.6791 28.7827 23.1578 28.3063 23.1578 27.7187C23.1578 27.1311 22.6791 26.6547 22.0887 26.6547C21.4982 26.6547 21.0195 27.1311 21.0195 27.7187C21.0195 28.3063 21.4982 28.7827 22.0887 28.7827Z" fill="#F9CDB7"/>
<path d="M20.4538 30.3041C20.6992 30.3041 20.8983 30.106 20.8983 29.8617C20.8983 29.6175 20.6992 29.4194 20.4538 29.4194C20.2083 29.4194 20.0093 29.6175 20.0093 29.8617C20.0093 30.106 20.2083 30.3041 20.4538 30.3041Z" fill="white"/>
<path d="M30.1518 31.4837C31.217 31.4837 32.0804 30.6244 32.0804 29.5643C32.0804 28.5043 31.217 27.645 30.1518 27.645C29.0866 27.645 28.2231 28.5043 28.2231 29.5643C28.2231 30.6244 29.0866 31.4837 30.1518 31.4837Z" fill="#213346"/>
<path d="M31.012 29.2015C31.6025 29.2015 32.0811 28.7252 32.0811 28.1376C32.0811 27.5499 31.6025 27.0736 31.012 27.0736C30.4215 27.0736 29.9429 27.5499 29.9429 28.1376C29.9429 28.7252 30.4215 29.2015 31.012 29.2015Z" fill="#F9CDB7"/>
<path d="M29.3771 30.723C29.6226 30.723 29.8216 30.5249 29.8216 30.2806C29.8216 30.0363 29.6226 29.8383 29.3771 29.8383C29.1316 29.8383 28.9326 30.0363 28.9326 30.2806C28.9326 30.5249 29.1316 30.723 29.3771 30.723Z" fill="white"/>
</g>
<defs>
<clipPath id="clip0_143_185">
<rect width="33" height="47" fill="white" transform="translate(10 4)"/>
</clipPath>
</defs>
</svg>
